<?xml version="1.0" encoding="utf-8"?>
<!-- Generator: Adobe Illustrator 24.2.1, SVG Export Plug-In . SVG Version: 6.00 Build 0)  -->
<svg version="1.1" xmlns="http://www.w3.org/2000/svg" xmlns:xlink="http://www.w3.org/1999/xlink" x="0px" y="0px"
	 viewBox="0 0 500 500" style="enable-background:new 0 0 500 500;" xml:space="preserve">
<style type="text/css">
	.bathroom-st0{fill:#414042;stroke:#A7A9AC;stroke-width:0.5;stroke-miterlimit:10;}
	.bathroom-st1{fill:#6D6E71;stroke:#D1D3D4;stroke-width:0.5;stroke-miterlimit:10;}
	.bathroom-st2{fill:#939598;}
	.bathroom-st3{fill:#808285;}
	.bathroom-st4{fill:#BCBEC0;}
	.bathroom-st5{fill:#726658;}
	.bathroom-st6{fill:#594A42;}
	.bathroom-st7{fill:#C2B59B;}
	.bathroom-st8{fill:url(#bathroom-SVGID_1_);}
	.bathroom-st9{fill:url(#bathroom-SVGID_2_);}
	.bathroom-st10{enable-background:new    ;}
	.bathroom-st11{fill:#BFBFBF;}
	.bathroom-st12{clip-path:url(#bathroom-SVGID_4_);}
	.bathroom-st13{clip-path:url(#bathroom-SVGID_6_);}
	.bathroom-st14{fill:none;}
	.bathroom-st15{fill:#FFFFFF;}
	.bathroom-st16{fill:url(#bathroom-SVGID_7_);}
	.bathroom-st17{fill:url(#bathroom-SVGID_8_);}
	.bathroom-st18{fill:url(#bathroom-SVGID_9_);stroke:#FFFFFF;stroke-miterlimit:10;}
	.bathroom-st19{fill:url(#bathroom-SVGID_10_);}
	.bathroom-st20{fill:url(#bathroom-SVGID_11_);}
	.bathroom-st21{fill:url(#bathroom-SVGID_12_);}
	.bathroom-st22{fill:#7D7C7C;}
	.bathroom-st23{fill:#F6F6F6;}
	.bathroom-st24{fill:#BABABA;}
	.bathroom-st25{fill:#D3D3D3;}
	.bathroom-st26{fill:#B5B6B6;}
	.bathroom-st27{fill:#DCDCDC;}
	.bathroom-st28{fill:#9E9E9E;}
	.bathroom-st29{fill:url(#bathroom-SVGID_13_);stroke:#603913;stroke-miterlimit:10;}
	.bathroom-st30{fill:url(#bathroom-SVGID_14_);stroke:#603913;stroke-miterlimit:10;}
	.bathroom-st31{opacity:0.7;}
	.bathroom-st32{clip-path:url(#bathroom-SVGID_16_);}
	.bathroom-st33{clip-path:url(#bathroom-SVGID_18_);}
	.bathroom-st34{fill:#DFDFDE;}
	.bathroom-st35{fill:#F9FBF8;}
	.bathroom-st36{opacity:0.7;fill:#00B1B5;enable-background:new    ;}
	.bathroom-st37{fill:#C2C1C0;}
	.bathroom-st38{opacity:0.5;fill:#101010;enable-background:new    ;}
	.bathroom-st39{fill:url(#bathroom-SVGID_19_);}
	.bathroom-st40{fill:#303030;}
	.bathroom-st41{fill:#101010;}
	.bathroom-st42{fill:url(#bathroom-SVGID_20_);}
	.bathroom-st43{fill:url(#bathroom-SVGID_21_);}
	.bathroom-st44{fill:url(#bathroom-SVGID_22_);}
	.bathroom-st45{fill:url(#bathroom-SVGID_23_);}
	.bathroom-st46{fill:none;stroke:#000000;stroke-width:0.2;stroke-miterlimit:10;}
	.bathroom-st47{fill:#B5B5B6;}
	.bathroom-st48{fill:#5E5D5F;}
	.bathroom-st49{fill:#787878;}
	.bathroom-st50{fill:url(#bathroom-SVGID_24_);}
	.bathroom-st51{fill:url(#bathroom-SVGID_25_);}
	.bathroom-st52{fill:url(#bathroom-SVGID_26_);}
	.bathroom-st53{fill:url(#bathroom-SVGID_27_);}
	.bathroom-st54{fill:url(#bathroom-SVGID_28_);}
	.bathroom-st55{fill:#E6E7E8;}
	.bathroom-st56{fill:url(#bathroom-SVGID_29_);}
	.bathroom-st57{fill:#4F7CBF;}
	.bathroom-st58{fill:url(#bathroom-SVGID_30_);}
	.bathroom-st59{fill:url(#bathroom-SVGID_31_);}
	.bathroom-st60{fill:#58C1EF;}
	.bathroom-st61{fill:#4DABCB;}
	.bathroom-st62{fill:#00AEEF;}
	.bathroom-st63{fill:#E2E2E2;}
	.bathroom-st64{fill:#BCBFC1;}
	.bathroom-st65{fill:#414142;}
	.bathroom-st66{fill:#ADE0F0;stroke:#000000;stroke-width:0.2;stroke-miterlimit:10;}
	.bathroom-st67{fill:url(#bathroom-SVGID_32_);}
	.bathroom-st68{fill:url(#bathroom-SVGID_33_);}
	.bathroom-st69{fill:#414042;}
	.bathroom-st70{fill:#CECCCD;}
	.bathroom-st71{fill:#FFFFFF;stroke:#6D6E71;stroke-width:0.1;stroke-miterlimit:10;}
	.bathroom-st72{clip-path:url(#bathroom-SVGID_35_);enable-background:new    ;}
	.bathroom-st73{fill:#717477;}
	.bathroom-st74{fill:#74777A;}
	.bathroom-st75{fill:#777A7D;}
	.bathroom-st76{fill:#7B7D80;}
	.bathroom-st77{fill:#7E8183;}
	.bathroom-st78{fill:#818486;}
	.bathroom-st79{fill:#848789;}
	.bathroom-st80{fill:#878A8C;}
	.bathroom-st81{fill:#8A8D8F;}
	.bathroom-st82{fill:#8D9093;}
	.bathroom-st83{fill:#919396;}
	.bathroom-st84{fill:#949799;}
	.bathroom-st85{fill:#979A9C;}
	.bathroom-st86{fill:#9A9D9F;}
	.bathroom-st87{fill:#9DA0A2;}
	.bathroom-st88{clip-path:url(#bathroom-SVGID_37_);enable-background:new    ;}
	.bathroom-st89{fill:#999B9E;}
	.bathroom-st90{fill:#A6A9AB;}
	.bathroom-st91{fill:#747779;}
	.bathroom-st92{clip-path:url(#bathroom-SVGID_39_);enable-background:new    ;}
	.bathroom-st93{fill:#A0A3A5;}
	.bathroom-st94{fill:#A3A6A8;}
	.bathroom-st95{fill:#A6A8AB;}
	.bathroom-st96{fill:#A9ABAE;}
	.bathroom-st97{fill:#ACAEB0;}
	.bathroom-st98{fill:#AFB1B3;}
	.bathroom-st99{fill:#B2B4B6;}
	.bathroom-st100{fill:#B5B7B9;}
	.bathroom-st101{fill:#B8BABC;}
	.bathroom-st102{fill:#BDBFC1;}
	.bathroom-st103{fill:#C4C5C7;}
	.bathroom-st104{fill:#C7C8C9;}
	.bathroom-st105{fill:#C9CACC;}
	.bathroom-st106{fill:#CBCCCD;}
	.bathroom-st107{fill:#CCCDCF;}
	.bathroom-st108{fill:url(#bathroom-SVGID_40_);}
	.bathroom-st109{fill:#C9C9C9;}
	.bathroom-st110{fill:url(#bathroom-SVGID_41_);}
	.bathroom-st111{fill:#BCBFC1;stroke:#000000;stroke-width:0.2;stroke-miterlimit:10;}
	.bathroom-st112{fill:url(#bathroom-SVGID_42_);}
	.bathroom-st113{fill:url(#bathroom-SVGID_43_);}
	.bathroom-st114{opacity:0.5;}
	.bathroom-st115{fill:#ED1C24;}
	.bathroom-st116{fill:#8E191C;}
	.bathroom-st117{fill:url(#bathroom-SVGID_44_);}
	.bathroom-st118{fill:#52120D;}
	.bathroom-st119{fill:#FEEBE9;}
	.bathroom-st120{fill:#66B7E6;}
	.bathroom-st121{fill:#0078BA;}
	.bathroom-st122{fill:url(#bathroom-SVGID_45_);}
	.bathroom-st123{fill:url(#bathroom-SVGID_46_);}
	.bathroom-st124{fill:#969696;}
	.bathroom-st125{fill:#606161;}
	.bathroom-st126{fill:#4C4C4C;}
	.bathroom-st127{fill:#909091;}
	.bathroom-st128{fill:#2D2D2D;}
	.bathroom-st129{fill:url(#bathroom-SVGID_47_);}
	.bathroom-st130{fill:url(#bathroom-SVGID_48_);}
	.bathroom-st131{fill:url(#bathroom-SVGID_49_);}
	.bathroom-st132{fill:url(#bathroom-SVGID_50_);}
</style>
<g id="Layer_1">
	<g id="bathroom">
		<g>
			<polygon class="bathroom-st0" points="320.2,398.4 384.4,361.4 422.8,383.6 357.9,420.2 			"/>
			<polygon class="bathroom-st0" points="384.4,361.4 448.7,324.3 485.7,345.6 422.8,383.6 			"/>
			<polygon class="bathroom-st0" points="199.9,467.7 257,434.7 298.2,458.5 242.7,492.9 			"/>
			<polygon class="bathroom-st0" points="257,434.7 321.3,397.6 360.1,420 297.2,457.9 			"/>
			<polygon class="bathroom-st0" points="255.9,393.5 320.2,356.4 355.8,377.1 291.6,414.1 			"/>
			<polygon class="bathroom-st0" points="320.2,356.4 384.4,319.3 420.1,339.9 355.9,377 			"/>
			<polygon class="bathroom-st0" points="164.3,446.3 192.8,429.8 228.5,450.4 199.9,467.7 			"/>
			<polygon class="bathroom-st0" points="192.8,429.7 257,392.7 292.7,413.3 228.5,450.4 			"/>
			<polygon class="bathroom-st0" points="385,319.1 449.3,282 485,302.6 420.7,339.7 			"/>
			<polygon class="bathroom-st0" points="243,359.1 307.2,322.1 342.9,342.7 278.6,379.8 			"/>
			<polygon class="bathroom-st0" points="307.1,322.1 371.4,285 407.1,305.6 342.9,342.6 			"/>
			<polygon class="bathroom-st0" points="127.7,425.4 179.8,395.4 215.5,416 163.4,446.1 			"/>
			<polygon class="bathroom-st0" points="179.8,395.4 244,358.3 279.7,378.9 215.5,416 			"/>
			<polygon class="bathroom-st0" points="186.3,349.9 250.5,312.8 286.2,333.4 222,370.5 			"/>
			<polygon class="bathroom-st0" points="250.5,312.8 314.7,275.7 350.5,296.3 286.2,333.4 			"/>
			<polygon class="bathroom-st0" points="91.1,404.7 123.1,386.1 158.8,406.8 127.7,425.4 			"/>
			<polygon class="bathroom-st0" points="123.1,386.1 187.4,349.1 223.1,369.6 158.8,406.8 			"/>
			<polygon class="bathroom-st0" points="315.4,275.4 379.6,238.4 415.3,258.9 351.1,296.1 			"/>
			<polygon class="bathroom-st0" points="169.3,318.2 233.5,281.1 269.2,301.7 205,338.8 			"/>
			<polygon class="bathroom-st0" points="233.5,281.1 297.8,244 333.5,264.6 269.2,301.7 			"/>
			<polygon class="bathroom-st0" points="56.9,382.9 106.2,354.5 141.9,375 91.9,403.9 			"/>
			<polygon class="bathroom-st0" points="106.2,354.5 170.4,317.3 206.1,338 141.9,375 			"/>
			<polygon class="bathroom-st0" points="114.7,307.7 178.9,270.6 214.6,291.2 150.4,328.3 			"/>
			<polygon class="bathroom-st0" points="178.9,270.6 243.1,233.5 278.9,254.1 214.6,291.2 			"/>
			<polygon class="bathroom-st0" points="20.2,362.1 51.6,344 87.2,364.6 55.6,382.8 			"/>
			<polygon class="bathroom-st0" points="51.5,343.9 115.8,306.9 151.5,327.5 87.2,364.6 			"/>
			<polygon class="bathroom-st0" points="243.8,233.2 308,196.2 343.7,216.8 279.5,253.9 			"/>
			<polygon class="bathroom-st0" points="97.1,276.8 161.4,239.7 197.1,260.3 132.9,297.4 			"/>
			<polygon class="bathroom-st0" points="161.4,239.7 225.6,202.6 261.3,223.2 197.1,260.3 			"/>
			<polygon class="bathroom-st0" points="7.7,356.4 57.6,326.7 69.7,333.7 19.1,362.8 			"/>
			<polygon class="bathroom-st0" points="34,313 98.3,276 134,296.5 69.7,333.7 			"/>
		</g>
		<g>
			<polygon class="bathroom-st1" points="20.7,144.3 20.7,185.6 85,148.5 85,107.3 			"/>
			<polygon class="bathroom-st1" points="85,107 85,148.4 149.4,111.2 149.4,70.1 			"/>
			<polygon class="bathroom-st1" points="149.4,69.9 149.4,111.3 213.7,74.1 213.7,33 			"/>
			<polygon class="bathroom-st1" points="213.7,32.7 213.7,74 250.6,51.8 250.6,10.7 			"/>
			<polygon class="bathroom-st1" points="8.8,191.4 9.2,232.4 57.6,204.5 57.6,163.3 			"/>
			<polygon class="bathroom-st1" points="57.7,163.3 58,204.6 122.3,167.5 122.1,126.4 			"/>
			<polygon class="bathroom-st1" points="121.9,125.9 121.9,167.2 186.7,130.6 186.3,89 			"/>
			<polygon class="bathroom-st1" points="186.3,88.9 186.3,130.3 250.6,93.1 250.6,52 			"/>
			<polygon class="bathroom-st1" points="20.7,226.5 20.7,267.8 85,230.6 85,189.5 			"/>
			<polygon class="bathroom-st1" points="85,189.2 86.1,237.2 150.4,200.1 149.4,152.2 			"/>
			<polygon class="bathroom-st1" points="149.4,152.1 149.4,193.4 213.7,156.3 213.7,115.2 			"/>
			<polygon class="bathroom-st1" points="213.7,114.9 213.7,156.2 278,119.1 278,78 			"/>
			<polygon class="bathroom-st1" points="7.7,274 7.7,315.2 57.6,286.5 57.6,245.3 			"/>
			<polygon class="bathroom-st1" points="57.6,245 57.6,286.3 121.9,249.2 121.9,208.1 			"/>
			<polygon class="bathroom-st1" points="121.9,208 121.9,249.3 186.3,212.2 186.3,171.1 			"/>
			<polygon class="bathroom-st1" points="186.3,170.6 186.3,212 250.6,174.9 250.6,133.7 			"/>
			<polygon class="bathroom-st1" points="17.5,309.2 17.5,350.5 81.9,313.4 81.9,272.3 			"/>
			<polygon class="bathroom-st1" points="81.3,272.4 81.3,313.7 146.3,276.1 146.6,234.9 			"/>
			<polygon class="bathroom-st1" points="146.6,234.9 146.2,276.2 210.5,239.1 210.5,197.9 			"/>
			<polygon class="bathroom-st1" points="210.5,197.6 210.5,239 274.8,201.9 274.8,160.7 			"/>
		</g>
		<g>
			<polygon class="bathroom-st1" points="480.3,145.3 480.3,186.7 416,149.5 416,108.4 			"/>
			<polygon class="bathroom-st1" points="416,108 416,149.4 351.6,112.3 351.6,71.1 			"/>
			<polygon class="bathroom-st1" points="351.6,71 351.6,112.3 287.3,75.1 287.3,34 			"/>
			<polygon class="bathroom-st1" points="287.3,33.8 287.3,75.1 250.4,52.8 250.4,11.7 			"/>
			<polygon class="bathroom-st1" points="480.3,185.5 480.3,226.8 443.4,205.5 443.4,164.4 			"/>
			<polygon class="bathroom-st1" points="443.4,164 443.4,205.4 379.1,168.3 379.1,127.1 			"/>
			<polygon class="bathroom-st1" points="380.2,127.8 380.2,169.1 315.9,132 315.9,90.8 			"/>
			<polygon class="bathroom-st1" points="314.7,89.9 314.7,131.3 250.4,94.2 250.4,53 			"/>
			<polygon class="bathroom-st1" points="480.3,227.5 480.3,268.8 416,231.7 416,190.6 			"/>
			<polygon class="bathroom-st1" points="416,190.2 415,238.2 350.6,201.2 351.6,153.3 			"/>
			<polygon class="bathroom-st1" points="351.6,153.1 351.6,194.4 287.3,157.3 287.3,116.2 			"/>
			<polygon class="bathroom-st1" points="287.3,115.9 287.3,157.3 250.4,134.7 250.4,94.2 			"/>
			<polygon class="bathroom-st1" points="480.3,267.2 479.9,308.1 443.4,287.5 443.4,246.3 			"/>
			<polygon class="bathroom-st1" points="443.4,246 443.4,287.3 379.1,250.2 379.1,209.1 			"/>
			<polygon class="bathroom-st1" points="379.1,208.9 379.1,250.2 314.7,213.1 314.7,172 			"/>
			<polygon class="bathroom-st1" points="314.7,171.7 314.7,213 250.4,175.9 250.4,134.7 			"/>
			<polygon class="bathroom-st1" points="479.9,308.1 479.3,348.5 419.2,314.5 419.2,273.3 			"/>
			<polygon class="bathroom-st1" points="419.2,273 419.2,314.3 354.9,277.2 354.9,236.1 			"/>
			<polygon class="bathroom-st1" points="354.9,235.9 354.9,277.2 290.5,240.1 290.5,198.9 			"/>
			<polygon class="bathroom-st1" points="290.5,198.7 290.5,240 250.1,216.1 250.1,175.5 			"/>
		</g>
		<g>
			<polygon class="bathroom-st2" points="7.4,142.8 21.7,151 21.7,349.1 7.2,340.7 			"/>
			<polygon class="bathroom-st3" points="492.8,142.8 478.6,150.8 478.9,348.8 492.8,340.7 			"/>
			<polygon class="bathroom-st4" points="7.4,142.8 250.1,2.6 492.8,142.8 478.6,151 250.1,19.2 21.7,151 			"/>
			<polygon class="bathroom-st2" points="250,497.2 249.9,497.4 7.2,357.2 7.2,340.7 250.1,480.9 			"/>
			<polygon class="bathroom-st3" points="492.8,340.7 492.8,357.2 250,497.4 250,480.9 			"/>
		</g>
		<g id="table">
			<polygon class="bathroom-st5" points="47.7,336.2 110.8,299.8 110.9,252.8 47.7,289.3 			"/>
			<polygon class="bathroom-st6" points="47.7,271.1 77,286.9 77,353.5 47.7,336.2 			"/>
			<polygon class="bathroom-st5" points="110.9,234.6 140.2,251.9 140.1,317 110.8,299.8 			"/>
			<polygon class="bathroom-st5" points="77,353.5 140.1,317 140.2,270.1 77,306.6 			"/>
			<polygon class="bathroom-st7" points="47.7,271.1 77,288.4 140.2,251.9 110.9,234.6 			"/>
			<g>
				<polygon class="bathroom-st6" points="77,304.2 77,306.6 140.2,270.1 140.2,267.8 				"/>
				<polygon class="bathroom-st6" points="107.4,289 108.8,288.2 109.1,335 107.9,335.7 				"/>
			</g>
			<g>
				
					<linearGradient id="bathroom-SVGID_1_" gradientUnits="userSpaceOnUse" x1="103.9679" y1="192.8905" x2="109.2854" y2="172.8867" gradientTransform="matrix(1 0 0 -1 0 502.7)">
					<stop  offset="0" style="stop-color:#FFFFFF"/>
					<stop  offset="1" style="stop-color:#9E9E9E"/>
				</linearGradient>
				<polygon class="bathroom-st8" points="106.8,323.1 104.5,324.3 104.5,309.2 106.8,308 				"/>
				<polygon class="bathroom-st4" points="106.8,308 104.5,309.2 104.5,324.3 103.6,323.6 103.6,308.9 105.9,307.5 				"/>
			</g>
			<g>
				
					<linearGradient id="bathroom-SVGID_2_" gradientUnits="userSpaceOnUse" x1="110.5121" y1="197.3938" x2="115.8296" y2="177.39" gradientTransform="matrix(1 0 0 -1 0 502.7)">
					<stop  offset="0" style="stop-color:#FFFFFF"/>
					<stop  offset="1" style="stop-color:#9E9E9E"/>
				</linearGradient>
				<polygon class="bathroom-st9" points="113.3,318.5 111,319.8 111,304.7 113.3,303.4 				"/>
				<polygon class="bathroom-st4" points="113.3,303.4 111,304.7 111,319.8 110.2,319.2 110.2,304.3 112.5,303 				"/>
			</g>
			<g>
				<g>
					<g class="bathroom-st10">
						<g>
							<polygon class="bathroom-st11" points="103.5,283 103.5,281.6 113.3,275.9 113.3,277.4 							"/>
							<g class="bathroom-st10">
								<g>
									<defs>
										<polygon id="bathroom-SVGID_3_" points="103.5,283 103.5,281.6 113.3,275.9 113.3,277.4 										"/>
									</defs>
									<clipPath id="bathroom-SVGID_4_">
										<use xlink:href="#bathroom-SVGID_3_"  style="overflow:visible;"/>
									</clipPath>
									<g class="bathroom-st12">
										<g>
											<g>
												<g>
													<defs>
														<polyline id="bathroom-SVGID_5_" points="113.3,277.4 103.5,283 103.5,281.6 113.3,275.9 113.3,277.4 														"/>
													</defs>
													<clipPath id="bathroom-SVGID_6_">
														<use xlink:href="#bathroom-SVGID_5_"  style="overflow:visible;"/>
													</clipPath>
													<g class="bathroom-st13">
													</g>
												</g>
											</g>
										</g>
									</g>
								</g>
							</g>
						</g>
						<g>
							<polygon class="bathroom-st11" points="103.5,283 103.1,282.8 103.1,281.3 103.5,281.6 							"/>
						</g>
						<g>
							<polygon class="bathroom-st11" points="103.5,281.6 103.1,281.3 112.9,275.7 113.3,275.9 							"/>
						</g>
					</g>
				</g>
			</g>
		</g>
		<g>
			<line class="bathroom-st14" x1="154.5" y1="74" x2="146.4" y2="79.2"/>
		</g>
		<g>
			<polygon class="bathroom-st15" points="106.6,209.8 43.1,246 43.1,151.4 106.6,115.2 			"/>
			<g>
				
					<linearGradient id="bathroom-SVGID_7_" gradientUnits="userSpaceOnUse" x1="47.7174" y1="348.6608" x2="107.6409" y2="291.8103" gradientTransform="matrix(1 0 0 -1 0 502.7)">
					<stop  offset="0" style="stop-color:#FFFFFF"/>
					<stop  offset="1" style="stop-color:#9E9E9E"/>
				</linearGradient>
				<polygon class="bathroom-st16" points="109.1,211.4 45.7,247.6 45.7,153 109.1,116.8 				"/>
				
					<linearGradient id="bathroom-SVGID_8_" gradientUnits="userSpaceOnUse" x1="75.0809" y1="365.2588" x2="50.2175" y2="284.2434" gradientTransform="matrix(1 0 0 -1 0 502.7)">
					<stop  offset="0" style="stop-color:#FFFFFF"/>
					<stop  offset="1" style="stop-color:#A5A5A5"/>
				</linearGradient>
				<polygon class="bathroom-st17" points="109.1,116.8 106.6,115.2 43.1,151.4 43.1,246 45.7,247.6 45.7,153 				"/>
			</g>
			
				<linearGradient id="bathroom-SVGID_9_" gradientUnits="userSpaceOnUse" x1="52.5312" y1="342.6793" x2="102.7446" y2="295.0409" gradientTransform="matrix(1 0 0 -1 0 502.7)">
				<stop  offset="0" style="stop-color:#FFFFFF"/>
				<stop  offset="1" style="stop-color:#9E9E9E"/>
			</linearGradient>
			<polygon class="bathroom-st18" points="104,208.1 50.8,238.4 50.8,159.1 104,128.8 			"/>
			<polygon class="bathroom-st15" points="45.7,238.4 89.8,128.8 109.1,116.8 109.1,132.4 52.1,243.4 45.7,247.6 			"/>
			<polyline class="bathroom-st15" points="108.5,141.2 109.1,148.1 60.5,238.6 			"/>
		</g>
		<g id="light">
			
				<linearGradient id="bathroom-SVGID_10_" gradientUnits="userSpaceOnUse" x1="78.6854" y1="377.0136" x2="78.8371" y2="286.6215" gradientTransform="matrix(1 0 0 -1 0 502.7)">
				<stop  offset="0" style="stop-color:#FFF200;stop-opacity:0.8"/>
				<stop  offset="1" style="stop-color:#FFF200;stop-opacity:0"/>
			</linearGradient>
			<polygon class="bathroom-st19" points="94.6,228.6 63.1,230.3 63.1,130.6 93.9,128.5 			"/>
			
				<linearGradient id="bathroom-SVGID_11_" gradientUnits="userSpaceOnUse" x1="77.9365" y1="385.904" x2="86.6547" y2="353.1071" gradientTransform="matrix(1 0 0 -1 0 502.7)">
				<stop  offset="0" style="stop-color:#FFFFFF"/>
				<stop  offset="1" style="stop-color:#9E9E9E"/>
			</linearGradient>
			<polygon class="bathroom-st20" points="93.9,128.5 68.5,143.3 68.5,129.7 93.9,115 			"/>
			
				<linearGradient id="bathroom-SVGID_12_" gradientUnits="userSpaceOnUse" x1="75.7553" y1="385.3242" x2="84.4735" y2="352.5273" gradientTransform="matrix(1 0 0 -1 0 502.7)">
				<stop  offset="0" style="stop-color:#FFFFFF"/>
				<stop  offset="1" style="stop-color:#9E9E9E"/>
			</linearGradient>
			<polygon class="bathroom-st21" points="93.9,115 88.5,112.2 63.1,126.9 63.1,140.5 68.5,143.3 68.5,129.7 			"/>
		</g>
		<g id="lightswitchgui">
			<g>
				<g>
					<g>
						<polygon class="bathroom-st22" points="122,205.3 121.7,205.1 121.6,187.6 121.9,187.8 						"/>
					</g>
					<g>
						<polygon class="bathroom-st23" points="121.9,187.8 121.6,187.6 132.1,181.6 132.4,181.8 						"/>
					</g>
					<g>
						<polygon class="bathroom-st24" points="132.4,181.8 132.5,199.3 122,205.3 121.9,187.8 						"/>
					</g>
				</g>
				<g>
					<g>
						<g>
							<polygon class="bathroom-st25" points="125.7,197.2 125.5,197.2 125.5,191.6 125.7,191.7 							"/>
						</g>
						<g>
							<polygon class="bathroom-st25" points="125.7,191.7 125.5,191.6 128.9,189.7 129,189.7 							"/>
						</g>
						<g>
							<polygon class="bathroom-st26" points="129,189.7 129,195.3 125.7,197.2 125.7,191.7 							"/>
						</g>
					</g>
				</g>
			</g>
			<g>
				<g>
					<g class="bathroom-st10">
						<g>
							<polygon class="bathroom-st27" points="126.9,193.9 128.4,193 128.3,190.9 126.9,191.7 							"/>
						</g>
						<g>
							<polygon class="bathroom-st28" points="128.2,195.9 128.7,194 126.9,193.9 126.9,191.7 126.7,191.9 126.7,196.2 							"/>
						</g>
					</g>
				</g>
				<g>
					<g>
						<g class="bathroom-st10">
							<g>
								<polygon class="bathroom-st27" points="128.2,194.3 129.8,193.3 130.4,195.3 128.7,196.2 								"/>
							</g>
							<g>
								<polygon class="bathroom-st23" points="126.9,193.9 128.4,193 129.8,193.3 128.2,194.3 								"/>
							</g>
							<g>
								<polyline class="bathroom-st28" points="126.7,196.3 126.7,194 128.2,194.3 128.7,196.2 126.7,196.3 								"/>
							</g>
						</g>
					</g>
				</g>
			</g>
		</g>
		<g id="window_back">
			<polygon class="bathroom-st34" points="328,168.4 326.8,132.1 399.4,174.9 400.5,211.2 			"/>
			<g>
				<polygon class="bathroom-st35" points="318,175.2 322.1,172.5 325.1,170.5 328,168.4 330.8,166.5 329.6,126.2 326.7,124.5 323.6,122.7 
					320.5,120.9 319.4,120.2 316.5,122.2 				"/>
			</g>
			<g>
				<polygon class="bathroom-st35" points="318,175.2 404,225.9 406.9,223.8 406.9,222.4 406.8,218.6 406.6,214.8 406.6,211.1 372.4,191 
					369.3,189.2 366.2,187.4 330.8,166.5 328,168.4 325.1,170.5 322.1,172.5 				"/>
				<g class="bathroom-st31">
					<g class="bathroom-st10">
						<polygon class="bathroom-st36" points="328,168.4 326.8,132.1 399.4,174.9 400.5,211.2 						"/>
						<g>
							<polygon class="bathroom-st35" points="366.4,194.9 369.4,192.9 328,168.5 325.1,170.5 							"/>
						</g>
						<g>
							<polygon class="bathroom-st34" points="366.5,195.7 369.4,193.7 369.4,192.9 366.4,194.9 							"/>
						</g>
						<g>
							<polygon class="bathroom-st35" points="325.1,170.5 325.1,170.5 328,168.5 328,168.4 326.7,124.5 323.6,122.7 							"/>
						</g>
						<g>
							<polygon class="bathroom-st34" points="369.6,197.5 372.5,195.4 369.4,193.7 366.5,195.7 							"/>
						</g>
						<g>
							<polygon class="bathroom-st34" points="369.6,197.5 372.5,195.4 372.5,194.6 369.5,196.7 							"/>
						</g>
						<g>
							<polygon class="bathroom-st35" points="369.5,196.7 370.2,197 406.8,218.6 406.6,214.8 372.5,194.6 371.9,195.1 							"/>
						</g>
						<g>
							<polygon class="bathroom-st35" points="369.5,196.7 371.9,195.1 372.5,194.6 372.4,191 371.2,150.7 368.1,148.9 369.3,189.2 
								369.4,193.7 							"/>
						</g>
						<g>
							<path class="bathroom-st34" d="M322.1,172.5l84.8,50l-0.1-3.8L370.2,197l-0.6-0.4v0.8l-3.1-1.8v-0.8l-41.4-24.4v-0.1l-1.4-47.7
								l-3.1-1.8L322.1,172.5z"/>
						</g>
						<g>
							<polygon class="bathroom-st34" points="366.4,194.9 366.5,195.7 369.6,197.5 369.5,196.7 369.4,193.7 369.3,189.2 368.1,148.9 
								365,147.1 366.2,187.4 366.3,191 							"/>
						</g>
					</g>
				</g>
			</g>
			<g>
				<path class="bathroom-st37" d="M407.2,231.5l-92.1-54.2l-1.8-60.7l92.1,54.2L407.2,231.5z M318,175.2l85.9,50.6l-1.6-53l-85.9-50.6
					L318,175.2"/>
			</g>
			<g>
				<g class="bathroom-st10">
					<g>
						<polygon class="bathroom-st35" points="315.1,177.2 318,175.2 316.5,122.2 313.5,124.2 						"/>
					</g>
					<g>
						<polygon class="bathroom-st35" points="401,227.9 404,225.9 318,175.2 315.1,177.2 						"/>
					</g>
					<g>
						<polygon class="bathroom-st35" points="404.2,233.5 407.2,231.5 405.3,170.9 402.4,172.9 						"/>
					</g>
					<g>
						<polygon class="bathroom-st35" points="402.4,172.9 405.3,170.9 313.3,116.6 310.3,118.6 						"/>
					</g>
					<g>
						<path class="bathroom-st34" d="M404.2,233.5l-92.1-54.2l-1.8-60.6l92.1,54.2L404.2,233.5z M315.1,177.2l85.9,50.6l-1.6-53l-85.9-50.6
							L315.1,177.2"/>
					</g>
				</g>
			</g>
		</g>
		<g id="toilet">
			<path class="bathroom-st38" d="M383.8,292.3c0,0-9,12.4-19.7,7.8c-8.4-3.6-6-11.3-4.2-14.3c0.6-0.9,1.1-1.5,1.8-2.4
				c2.5-2.6,10.1-7.8,18-2.7C389.3,287,383.8,292.3,383.8,292.3z"/>
			
				<linearGradient id="bathroom-SVGID_16_" gradientUnits="userSpaceOnUse" x1="377.5535" y1="225.9274" x2="371.8971" y2="209.1695" gradientTransform="matrix(1 5.616738e-03 5.616738e-03 -1 -4.0016 503.173)">
				<stop  offset="0" style="stop-color:#F1F2F2"/>
				<stop  offset="1" style="stop-color:#A7A9AC"/>
			</linearGradient>
			<path style="fill:url(#bathroom-SVGID_16_);" d="M360.4,292.1l21.5-11.2c0,0,4.5,2.7-3.1,8.5C371.3,295.2,362.8,295.4,360.4,292.1z"/>
			<path class="bathroom-st40" d="M360.4,292.1l21.5-11.2c0,0,0.8,3.5-6,8C369.3,293.3,362.8,294.3,360.4,292.1z"/>
			<path class="bathroom-st41" d="M383.1,279.6c0,0-12.9,17.4-27.3,11.6c-11.4-4.5-7.7-15.2-5.1-19.3c0.8-1.4,1.5-2.2,2.6-3.3
				c3.5-3.7,14.2-11.1,24.8-4.5C390.8,272.1,383.1,279.6,383.1,279.6z"/>
			
				<radialGradient id="bathroom-SVGID_18_" cx="390.5462" cy="259.006" r="11.4585" gradientTransform="matrix(0.9974 7.234246e-02 7.234246e-02 -0.9974 -42.0254 507.0576)" gradientUnits="userSpaceOnUse">
				<stop  offset="0" style="stop-color:#F1F2F2"/>
				<stop  offset="0.3839" style="stop-color:#EFF0F0"/>
				<stop  offset="0.5641" style="stop-color:#E9EAEB"/>
				<stop  offset="0.7018" style="stop-color:#DEDFE1"/>
				<stop  offset="0.8179" style="stop-color:#CFD1D2"/>
				<stop  offset="0.9193" style="stop-color:#BBBDC0"/>
				<stop  offset="1" style="stop-color:#A7A9AC"/>
			</radialGradient>
			<path style="fill:url(#bathroom-SVGID_18_);" d="M377.2,278.7c0,0-8.6,11.6-18.2,7.7c-7.6-3.1-5.2-10.2-3.4-12.8c0.5-0.8,1.9-2.4,2.7-3
				c2.5-2.3,8.5-6.7,15.6-2.2C382.3,273.7,377.2,278.7,377.2,278.7z"/>
			<path class="bathroom-st41" d="M392.5,261.3c0,0,9.3-19.5-2.5-29.5c-9.4-8-17,0.4-19.4,4.5c-0.6,1.1-1.3,2.5-1.7,3.8
				c-1.5,4.9-3.2,17.7,7.6,24C389.5,271.6,392.5,261.3,392.5,261.3z"/>
			
				<linearGradient id="bathroom-SVGID_19_" gradientUnits="userSpaceOnUse" x1="516.7626" y1="223.2996" x2="518.3345" y2="222.3081" gradientTransform="matrix(0.842 -7.760885e-03 0.1387 -0.9632 -93.0717 480.7666)">
				<stop  offset="0" style="stop-color:#FFFFFF"/>
				<stop  offset="1" style="stop-color:#939598"/>
			</linearGradient>
			<path class="bathroom-st39" d="M374.1,262.8l-1.3-0.6c-0.1,0-0.1-0.1-0.1-0.1l0.2-0.4c0-0.1,0.1-0.1,0.1-0.1l1.3,0.6
				c0.1,0,0.1,0.1,0.1,0.1l-0.2,0.4C374.2,262.8,374.2,262.8,374.1,262.8z"/>
			
				<linearGradient id="bathroom-SVGID_20_" gradientUnits="userSpaceOnUse" x1="526.0839" y1="200.5834" x2="528.2527" y2="199.5714" gradientTransform="matrix(0.8546 -2.451519e-02 0.1548 -0.9415 -100.6713 467.3037)">
				<stop  offset="0" style="stop-color:#FFFFFF"/>
				<stop  offset="1" style="stop-color:#939598"/>
			</linearGradient>
			<path class="bathroom-st42" d="M381.2,266.7l-1.4-0.9c-0.1-0.1-0.1-0.1,0-0.1l0.3-0.5c0.1-0.1,0.1-0.1,0.1,0l1.4,0.9
				c0.1,0.1,0.1,0.1,0,0.1l-0.3,0.5C381.3,266.7,381.2,266.8,381.2,266.7z"/>
		</g>
		<g id="outlet">
			<g>
				<g>
					<g>
						<polygon class="bathroom-st22" points="26.5,282 26.1,281.9 26.1,264.6 26.4,264.8 						"/>
					</g>
					<g>
						<polygon class="bathroom-st23" points="26.4,264.8 26.1,264.6 36.4,258.7 36.7,258.9 						"/>
					</g>
					<g>
						<polygon class="bathroom-st24" points="36.7,258.9 36.8,276.1 26.5,282 26.5,264.8 						"/>
					</g>
				</g>
				<g>
					<g class="bathroom-st10">
						<g>
							<path class="bathroom-st23" d="M33.3,268.3l0.3,0.2c-0.4-0.2-0.9-0.2-1.5,0.1l-0.3-0.2C32.4,268.1,32.9,268.1,33.3,268.3z"/>
						</g>
						<g>
							<path class="bathroom-st23" d="M30.6,273.5l-0.3-0.2c-0.4-0.2-0.6-0.6-0.6-1.4c0-1.4,0.9-2.9,2.1-3.6l0.3,0.2
								c-1.2,0.6-2.1,2.3-2.1,3.6C30.1,272.8,30.3,273.3,30.6,273.5z"/>
						</g>
						<g>
							<path class="bathroom-st47" d="M32.1,268.6c1.2-0.6,2.1-0.1,2.1,1.2c0,1.4-0.9,2.9-2.1,3.6c-1.2,0.6-2.1,0.1-2.1-1.2
								S31,269.2,32.1,268.6z"/>
						</g>
						<g>
							<path d="M31.4,271.5c0.2-0.1,0.3,0,0.3,0.2c0,0.2-0.1,0.4-0.3,0.5c-0.2,0.1-0.3,0-0.3-0.2S31.2,271.5,31.4,271.5z"/>
						</g>
						<g>
							<path d="M33,270.3c0.2-0.1,0.3,0,0.3,0.2s-0.1,0.4-0.3,0.5c-0.2,0.1-0.3,0-0.3-0.2S32.8,270.4,33,270.3z"/>
						</g>
					</g>
				</g>
			</g>
		</g>
	</g>
	<g id="gui">
		<g id="lightswitch_left_2_">
			<g>
				<g>
					<g>
						<polygon class="bathroom-st22" points="122,205.3 121.7,205.1 121.6,187.6 121.9,187.8 						"/>
					</g>
					<g>
						<polygon class="bathroom-st23" points="121.9,187.8 121.6,187.6 132,181.6 132.4,181.8 						"/>
					</g>
					<g>
						<polygon class="bathroom-st24" points="132.4,181.8 132.4,199.3 122,205.3 121.9,187.8 						"/>
					</g>
				</g>
				<g>
					<g>
						<g>
							<polygon class="bathroom-st25" points="125.7,197.2 125.5,197.2 125.5,191.6 125.6,191.6 							"/>
						</g>
						<g>
							<polygon class="bathroom-st25" points="125.6,191.6 125.5,191.6 128.8,189.7 129,189.7 							"/>
						</g>
						<g>
							<polygon class="bathroom-st26" points="129,189.7 129,195.3 125.7,197.2 125.6,191.6 							"/>
						</g>
					</g>
				</g>
			</g>
			<g>
				<g>
					<g class="bathroom-st10">
						<g>
							<polygon class="bathroom-st49" points="126.7,194 128.3,193.1 128.3,195.3 126.7,196.2 							"/>
						</g>
						<g>
							<polygon class="bathroom-st27" points="128,192 129.6,191.1 130.1,193 128.5,193.9 							"/>
						</g>
						<g>
							<polygon class="bathroom-st23" points="126.5,191.7 128.1,190.8 129.6,191.1 128,192 							"/>
						</g>
						<g>
							<polygon class="bathroom-st28" points="128,192 128.5,193.9 126.7,194 126.7,196.2 126.5,196 126.5,191.7 							"/>
						</g>
					</g>
				</g>
			</g>
		</g>
		<g id="shower">
			<g class="bathroom-st10">
				<g>
					
						<linearGradient id="bathroom-SVGID_21_" gradientUnits="userSpaceOnUse" x1="198.2187" y1="400.8528" x2="281.0923" y2="400.8528" gradientTransform="matrix(1 0 0 -1 0 502.7)">
						<stop  offset="0" style="stop-color:#F1F2F2"/>
						<stop  offset="1" style="stop-color:#BCBEC0"/>
					</linearGradient>
					<polygon class="bathroom-st43" points="281.1,101.8 239.8,125.8 198.2,101.8 239.5,77.9 					"/>
				</g>
				<g>
					
						<linearGradient id="bathroom-SVGID_22_" gradientUnits="userSpaceOnUse" x1="239.7734" y1="386.6181" x2="281.0923" y2="386.6181" gradientTransform="matrix(1 0 0 -1 0 502.7)">
						<stop  offset="0" style="stop-color:#F1F2F2"/>
						<stop  offset="1" style="stop-color:#BCBEC0"/>
					</linearGradient>
					<polygon class="bathroom-st44" points="281.1,101.8 281,106.3 239.8,130.3 239.8,125.8 					"/>
				</g>
				<g>
					<polygon class="bathroom-st2" points="239.8,125.8 239.8,130.3 198.2,106.3 198.2,101.8 					"/>
				</g>
			</g>
			<g>
				<g>
					
						<linearGradient id="bathroom-SVGID_23_" gradientUnits="userSpaceOnUse" x1="197.1578" y1="415.6769" x2="239.6126" y2="415.6769" gradientTransform="matrix(1 0 0 -1 0 502.7)">
						<stop  offset="0" style="stop-color:#F1F2F2"/>
						<stop  offset="1" style="stop-color:#BCBEC0"/>
					</linearGradient>
					<polygon class="bathroom-st45" points="233.1,98.9 197.2,79.2 203.8,75.1 239.7,95 					"/>
					<polygon class="bathroom-st2" points="197.2,79.2 197.2,82 233.1,101.8 233.1,98.9 					"/>
				</g>
				
					<linearGradient id="bathroom-SVGID_24_" gradientUnits="userSpaceOnUse" x1="233.0459" y1="404.3009" x2="239.6358" y2="404.3009" gradientTransform="matrix(1 0 0 -1 0 502.7)">
					<stop  offset="0" style="stop-color:#F1F2F2"/>
					<stop  offset="1" style="stop-color:#BCBEC0"/>
				</linearGradient>
				<polygon class="bathroom-st50" points="233.1,98.9 233.1,101.8 239.7,97.8 239.7,95 				"/>
			</g>
		</g>
		<g id="sink_2_">
			<ellipse class="bathroom-st15" cx="91.4" cy="261.2" rx="17" ry="9.4"/>
			
				<radialGradient id="bathroom-SVGID_25_" cx="92.0037" cy="240.9649" r="10.0396" fx="91.2854" fy="241.0525" gradientTransform="matrix(1 0 0 -1 0 502.7)" gradientUnits="userSpaceOnUse">
				<stop  offset="5.154639e-03" style="stop-color:#E6E7E8"/>
				<stop  offset="1" style="stop-color:#D1D3D4"/>
			</radialGradient>
			<path class="bathroom-st51" d="M91.4,270.6c0,0-20.5,1.1-19.2-17.7h39.6C111.7,252.9,112,270.7,91.4,270.6z"/>
			<ellipse class="bathroom-st55" cx="92" cy="251.9" rx="19.7" ry="11"/>
			
				<radialGradient id="bathroom-SVGID_26_" cx="91.8642" cy="118.3537" r="20.1583" gradientTransform="matrix(1 0 0 -0.4732 0 314.4087)" gradientUnits="userSpaceOnUse">
				<stop  offset="0" style="stop-color:#E6E7E8"/>
				<stop  offset="1" style="stop-color:#D1D3D4"/>
			</radialGradient>
			<ellipse class="bathroom-st52" cx="92" cy="251.9" rx="17.5" ry="9.7"/>
			<path class="bathroom-st57" d="M102.8,259.5c0-3.7-4.2-6.3-9.8-6.3c-5.6,0-10.1,3.2-10.1,7c0,0,3.4,1.8,10.6,1.4
				C100.6,261.2,102.8,259.5,102.8,259.5z"/>
			<g>
				<g>
					
						<linearGradient id="bathroom-SVGID_27_" gradientUnits="userSpaceOnUse" x1="73.26" y1="264.518" x2="101.2358" y2="264.518" gradientTransform="matrix(1 0 0 -1 0 502.7)">
						<stop  offset="0" style="stop-color:#F1F2F2"/>
						<stop  offset="1" style="stop-color:#BCBEC0"/>
					</linearGradient>
					<polygon class="bathroom-st53" points="96.9,246 73.3,233 77.6,230.3 101.2,243.4 					"/>
					<polygon class="bathroom-st2" points="73.3,233 73.3,234.9 96.9,247.9 96.9,246 					"/>
				</g>
				
					<linearGradient id="bathroom-SVGID_28_" gradientUnits="userSpaceOnUse" x1="96.8781" y1="257.0618" x2="101.2206" y2="257.0618" gradientTransform="matrix(1 0 0 -1 0 502.7)">
					<stop  offset="0" style="stop-color:#F1F2F2"/>
					<stop  offset="1" style="stop-color:#BCBEC0"/>
				</linearGradient>
				<polygon class="bathroom-st54" points="96.9,246 96.9,247.9 101.2,245.3 101.2,243.4 				"/>
			</g>
		</g>
		<g id="sink_drops_2_">
			<g id="drio3_8_">
				<g class="bathroom-st10">
					<g>
						<path class="bathroom-st60" d="M98.8,256.3c0.1,0.1,1.2,1.1,1.3,1.8c0.1,1-0.5,2-1.3,2.5s-1.4,0.2-1.3-0.9
							C97.7,258.8,98.8,256.4,98.8,256.3z"/>
					</g>
					<g>
						<path class="bathroom-st61" d="M97.9,260.7l-1.1-0.6c-0.2-0.1-0.4-0.5-0.3-1.1c0.1-0.9,1.2-3.2,1.3-3.3l1.1,0.6
							c-0.1,0.1-1.2,2.5-1.3,3.3C97.5,260.2,97.6,260.5,97.9,260.7z"/>
					</g>
				</g>
			</g>
			<g id="drop2_2_">
				<g class="bathroom-st10">
					<g>
						<path class="bathroom-st60" d="M95.5,254c0.1,0.1,1.2,1.1,1.3,1.8c0.1,1-0.5,2-1.3,2.5c-0.8,0.5-1.4,0.2-1.3-0.9
							C94.4,256.5,95.5,254.2,95.5,254z"/>
					</g>
					<g>
						<path class="bathroom-st61" d="M94.6,258.4l-1.1-0.6c-0.2-0.1-0.4-0.5-0.3-1.1c0.1-0.9,1.2-3.2,1.3-3.3l1.1,0.6
							c-0.1,0.1-1.2,2.5-1.3,3.3C94.2,257.9,94.4,258.3,94.6,258.4z"/>
					</g>
				</g>
			</g>
			<g id="drop1_2_">
				<g class="bathroom-st10">
					<g>
						<path class="bathroom-st60" d="M97.4,249.5c0.1,0.1,1.2,1.1,1.3,1.8c0.1,1-0.5,2-1.3,2.5c-0.8,0.5-1.4,0.2-1.3-0.9
							C96.2,252,97.4,249.6,97.4,249.5z"/>
					</g>
					<g>
						<path class="bathroom-st61" d="M96.4,253.9l-1.1-0.6c-0.2-0.1-0.4-0.5-0.3-1.1c0.1-0.9,1.2-3.2,1.3-3.3l1.1,0.6
							c-0.1,0.1-1.2,2.5-1.3,3.3C96.1,253.4,96.2,253.7,96.4,253.9z"/>
					</g>
				</g>
			</g>
		</g>
		<g id="window_1_">
			<polygon class="bathroom-st34" points="328.2,168.5 327.1,132.3 399.4,174.9 400.6,211.2 			"/>
			<g>
				<polygon class="bathroom-st35" points="318.3,175.3 322.4,172.6 325.3,170.5 328.2,168.5 331,166.6 329.8,126.4 326.9,124.7 323.9,122.9 
					320.8,121.1 319.6,120.4 316.8,122.4 				"/>
			</g>
			<g>
				<polygon class="bathroom-st35" points="324.7,172 406.8,221.5 406.8,220 406.4,217.8 406.3,213.4 406.5,210.4 406.2,203.9 378.8,187.7 
					375.7,186 372.6,184.1 337.3,163.3 334.6,165.2 331.6,167.2 328.7,169.3 				"/>
				<g>
					<g class="bathroom-st10">
						<g>
							<g id="window_outside_2_" class="bathroom-st10">
								<g>
									<polygon class="bathroom-st62" points="370.6,197.8 373.5,195.7 329.1,169.6 326.2,171.6 									"/>
								</g>
								<g>
									<polygon class="bathroom-st62" points="326.2,171.6 326.2,171.6 329.1,169.6 329.1,169.6 327.8,125.7 324.8,124 									"/>
								</g>
								<g>
									<polygon class="bathroom-st62" points="370.6,198.6 373.5,196.6 373.5,195.7 370.6,197.8 									"/>
								</g>
								<g>
									<polygon class="bathroom-st62" points="370.6,197.7 371.2,198.2 406.6,219.3 406.5,215.1 373.5,195.7 372.9,196.2 									"/>
								</g>
								<g>
									<path class="bathroom-st62" d="M367.4,196l-41.3-24.3v-0.1l-1.4-47.6l-3.1-1.8l1.5,51.5l83.6,48.8l-0.4-3.1l-35.4-21.2l-0.6-0.4"/>
								</g>
							</g>
						</g>
						<polygon class="bathroom-st36" points="334.6,165.2 328,127.4 404,172.3 406.5,207.7 						"/>
						<g>
							<polygon class="bathroom-st35" points="372.9,191.6 375.8,189.6 334.6,165.3 331.6,167.3 							"/>
						</g>
						<g>
							<polygon class="bathroom-st34" points="372.9,192.4 375.8,190.4 375.8,189.6 372.9,191.6 							"/>
						</g>
						<g>
							<polygon class="bathroom-st35" points="331.6,167.2 331.6,167.3 334.6,165.3 334.6,165.2 328.9,125.8 325.4,125.7 							"/>
						</g>
						<g>
							<polygon class="bathroom-st34" points="376,194.3 378.9,192.2 375.8,190.4 372.9,192.4 							"/>
						</g>
						<g>
							<polygon class="bathroom-st34" points="376,194.3 378.9,192.2 378.9,191.4 375.9,193.4 							"/>
						</g>
						<g>
							<polygon class="bathroom-st35" points="375.9,193.4 376.6,193.8 406.3,211.4 406.5,207.7 378.9,191.4 378.2,191.9 							"/>
						</g>
						<g>
							<polygon class="bathroom-st35" points="376.1,193.7 378.3,192 378.9,191.5 378.5,187.8 375.2,153.1 372,151.3 375.3,186.3 
								375.8,190.7 							"/>
						</g>
						<g>
							<path class="bathroom-st34" d="M328.7,169.3l77.8,45.9l0.1-3.7l-29.9-17.7l-0.6-0.4v0.8l-3.1-1.8v-0.8l-41.3-24.3v-0.1l-6.5-43.1
								l-3.4-2L328.7,169.3z"/>
						</g>
						<g>
							<polygon class="bathroom-st34" points="372.9,192.1 373,192.9 376.2,194.6 376.1,193.7 375.8,190.7 375.3,186.3 372,151.3 
								368.7,149.3 372.2,184.7 372.6,188.3 							"/>
						</g>
					</g>
				</g>
			</g>
			<g>
				<path class="bathroom-st37" d="M407.2,231.5l-91.8-54.2l-1.8-60.5l91.8,54.2L407.2,231.5z M318.3,175.3l85.6,50.5l-1.6-52.9l-85.6-50.5
					L318.3,175.3"/>
			</g>
			<g>
				<g class="bathroom-st10">
					<g>
						<polygon class="bathroom-st35" points="315.4,177.4 318.3,175.3 316.8,122.4 313.8,124.4 						"/>
					</g>
					<g>
						<polygon class="bathroom-st35" points="401,227.9 404,225.9 318.3,175.3 315.4,177.4 						"/>
					</g>
					<g>
						<polygon class="bathroom-st35" points="404.2,233.5 407.2,231.5 405.3,170.9 402.4,173 						"/>
					</g>
					<g>
						<polygon class="bathroom-st35" points="402.4,173 405.3,170.9 313.6,116.8 310.6,118.8 						"/>
					</g>
					<g>
						<path class="bathroom-st34" d="M404.2,233.5l-91.8-54.2l-1.8-60.5l91.8,54.2L404.2,233.5z M315.4,177.4l85.6,50.5l-1.6-52.9l-85.6-50.5
							L315.4,177.4"/>
					</g>
				</g>
			</g>
		</g>
		<g id="washer_2_">
			<g>
				<g class="bathroom-st10">
					<g>
						<polygon class="bathroom-st63" points="436,308.1 478.5,283.5 478.3,348.7 435.8,373.3 						"/>
					</g>
					<g>
						<polygon class="bathroom-st15" points="382.1,277 424.6,252.3 478.5,283.5 436,308.1 						"/>
					</g>
					<g>
						<polygon class="bathroom-st64" points="436,308.1 435.8,373.3 381.9,342.3 382.1,277 						"/>
					</g>
				</g>
			</g>
			<g class="bathroom-st10">
				<g class="bathroom-st10">
					<g>
						<polygon class="bathroom-st65" points="434.2,308.4 434.2,314.6 383.8,285.6 383.8,279.3 						"/>
					</g>
				</g>
				<g>
					<path class="bathroom-st66" d="M415.4,298.8v2.5c0,0.8-0.8,1.2-1.5,0.8l-10.8-6.2c-0.3-0.2-0.5-0.5-0.5-0.8v-2.5c0-0.8,0.8-1.2,1.5-0.8
						l10.8,6.2C415.2,298.1,415.4,298.5,415.4,298.8z"/>
				</g>
			</g>
			<g>
				<g class="bathroom-st10">
					<g>
						<g>
							
								<linearGradient id="bathroom-SVGID_29_" gradientUnits="userSpaceOnUse" x1="401.147" y1="198.9868" x2="417.9885" y2="157.7046" gradientTransform="matrix(1 0 0 -1 0 502.7)">
								<stop  offset="0" style="stop-color:#E6E7E8"/>
								<stop  offset="1" style="stop-color:#BCBEC0"/>
							</linearGradient>
							<path class="bathroom-st56" d="M395.7,307.9l3.3-1.9c2.7-1.6,6.5-1.4,10.6,1.1l-3.3,1.9C402.2,306.6,398.4,306.4,395.7,307.9z"/>
						</g>
						<g>
							
								<linearGradient id="bathroom-SVGID_30_" gradientUnits="userSpaceOnUse" x1="406.5807" y1="201.2035" x2="423.4222" y2="159.9214" gradientTransform="matrix(1 0 0 -1 0 502.7)">
								<stop  offset="0" style="stop-color:#E6E7E8"/>
								<stop  offset="1" style="stop-color:#BCBEC0"/>
							</linearGradient>
							<path class="bathroom-st58" d="M420.2,342.5l-3.3,1.9c2.7-1.5,4.4-4.9,4.4-9.6c0-9.5-6.7-21-14.9-25.8l3.3-1.9
								c8.3,4.8,14.9,16.3,14.9,25.8C424.5,337.6,422.8,340.9,420.2,342.5z"/>
						</g>
					</g>
					<g>
						
							<ellipse transform="matrix(0.8646 -0.5025 0.5025 0.8646 -108.8535 248.3219)" class="bathroom-st69" cx="406.3" cy="326.1" rx="12.2" ry="21"/>
					</g>
				</g>
			</g>
			<g>
				<g class="bathroom-st10">
					<g>
						
							<ellipse transform="matrix(0.8646 -0.5025 0.5025 0.8646 -108.9092 248.1143)" class="bathroom-st15" cx="405.9" cy="326.1" rx="9" ry="15.5"/>
					</g>
				</g>
			</g>
			<path class="bathroom-st70" d="M416.1,336.7c0,0-1.2,3.9-6.1,3.5c-1.3-0.1-2.6-0.7-2.7-0.7c-2.7-1.1-3.9-2.5-5.6-4c-2.2-2-3.6-4.5-4.9-7.1
				c-2.8-5.8-1.8-11-1.8-11s0.6-3.9,4-5.1c0,0,1.6-0.9,5.2,0.4c0,0-2.2,2.7-3.7,6.6c-1.4,3.8,0.2,7.7,2.4,10.6
				c1.8,2.4,3.5,3.9,5.7,5C410.5,335.8,412.8,336.3,416.1,336.7z"/>
			<g>
				<g class="bathroom-st10">
					<g>
						<polygon class="bathroom-st71" points="399.5,288.9 399.5,294.2 385.4,286.1 385.5,280.7 						"/>
					</g>
				</g>
				<g>
					<g>
						<g class="bathroom-st10">
							<g class="bathroom-st10">
								<g>
									<defs>
										<path id="bathroom-SVGID_34_" d="M390.1,286L390.1,286c0.1-0.1,0.2-0.1,0.2,0h-0.1C390.3,285.9,390.2,285.9,390.1,286z"/>
									</defs>
									<clipPath id="bathroom-SVGID_31_">
										<use xlink:href="#bathroom-SVGID_34_"  style="overflow:visible;"/>
									</clipPath>
									<g style="clip-path:url(#bathroom-SVGID_31_);enable-background:new    ;">
										<path class="bathroom-st73" d="M390.1,286L390.1,286C390.2,286,390.2,285.9,390.1,286L390.1,286C390.1,285.9,390.1,286,390.1,286"
											/>
										<path class="bathroom-st74" d="M390.1,285.9L390.1,285.9C390.2,285.9,390.2,285.9,390.1,285.9L390.1,285.9
											C390.2,285.9,390.1,285.9,390.1,285.9"/>
										<path class="bathroom-st83" d="M390.3,285.9L390.3,285.9C390.3,285.9,390.3,285.9,390.3,285.9L390.3,285.9
											C390.3,286,390.3,285.9,390.3,285.9"/>
										<path class="bathroom-st84" d="M390.3,286L390.3,286C390.3,285.9,390.4,285.9,390.3,286L390.3,286L390.3,286"/>
										<path class="bathroom-st85" d="M390.3,286L390.3,286C390.4,285.9,390.4,285.9,390.3,286L390.3,286L390.3,286"/>
										<path class="bathroom-st86" d="M390.3,286L390.3,286C390.4,285.9,390.4,285.9,390.3,286L390.3,286L390.3,286"/>
										<path class="bathroom-st87" d="M390.3,286L390.3,286C390.4,285.9,390.4,285.9,390.3,286L390.3,286L390.3,286"/>
									</g>
								</g>
							</g>
							<g class="bathroom-st10">
								<g>
									<defs>
										<path id="bathroom-SVGID_36_" d="M393.7,290.2L393.7,290.2c0,0,0.1-0.1,0.1-0.2h0.1C393.8,290.1,393.8,290.1,393.7,290.2z"/>
									</defs>
									<clipPath id="bathroom-SVGID_32_">
										<use xlink:href="#bathroom-SVGID_36_"  style="overflow:visible;"/>
									</clipPath>
									<g style="clip-path:url(#bathroom-SVGID_32_);enable-background:new    ;">
										<polyline class="bathroom-st83" points="393.8,290 393.8,289.9 393.8,289.9 393.8,290 393.8,290 										"/>
										<path class="bathroom-st79" d="M393.8,290.1L393.8,290.1C393.8,290,393.8,290,393.8,290.1L393.8,290.1L393.8,290.1"/>
										<path class="bathroom-st78" d="M393.8,290.1L393.8,290.1C393.8,290,393.8,290.1,393.8,290.1L393.8,290.1L393.8,290.1"/>
										<path class="bathroom-st73" d="M393.7,290.1L393.7,290.1C393.8,290.1,393.8,290.1,393.7,290.1L393.7,290.1
											C393.7,290.2,393.7,290.2,393.7,290.1"/>
									</g>
								</g>
							</g>
							<g>
								<polygon class="bathroom-st89" points="393.8,288.3 393.8,288.3 393.8,289.9 393.8,290 								"/>
							</g>
							<g>
								<polygon class="bathroom-st90" points="390.3,286 390.4,286 393.6,287.8 393.5,287.8 								"/>
							</g>
							<g>
								<path class="bathroom-st91" d="M393.5,287.8c0.2,0.1,0.3,0.4,0.3,0.5v1.7c0,0.2-0.1,0.2-0.3,0.2l-3.2-1.8c-0.2-0.1-0.3-0.3-0.3-0.5
									v-1.7c0-0.2,0.1-0.3,0.3-0.2L393.5,287.8z"/>
							</g>
							<g class="bathroom-st10">
								<g>
									<defs>
										<path id="bathroom-SVGID_38_" d="M393.5,287.8L393.5,287.8c0.2,0.1,0.4,0.3,0.4,0.5h-0.1C393.8,288.1,393.7,287.9,393.5,287.8z"/>
									</defs>
									<clipPath id="bathroom-SVGID_33_">
										<use xlink:href="#bathroom-SVGID_38_"  style="overflow:visible;"/>
									</clipPath>
									<g style="clip-path:url(#bathroom-SVGID_33_);enable-background:new    ;">
										<polyline class="bathroom-st87" points="393.5,287.8 393.6,287.8 393.6,287.8 393.5,287.8 393.5,287.8 										"/>
										<path class="bathroom-st97" d="M393.6,287.8L393.6,287.8C393.6,287.8,393.6,287.8,393.6,287.8L393.6,287.8
											C393.6,287.9,393.6,287.9,393.6,287.8"/>
										<path class="bathroom-st98" d="M393.6,287.9L393.6,287.9C393.6,287.8,393.6,287.8,393.6,287.9L393.6,287.9L393.6,287.9"/>
										<path class="bathroom-st102" d="M393.6,287.9L393.6,287.9C393.7,287.9,393.7,287.9,393.6,287.9L393.6,287.9L393.6,287.9"/>
										<path class="bathroom-st103" d="M393.6,287.9L393.6,287.9C393.7,287.9,393.7,287.9,393.6,287.9L393.6,287.9L393.6,287.9"/>
										<path class="bathroom-st106" d="M393.7,287.9L393.7,287.9C393.7,287.9,393.7,287.9,393.7,287.9L393.7,287.9
											C393.7,288,393.7,288,393.7,287.9"/>
										<path class="bathroom-st104" d="M393.7,288L393.7,288C393.8,288,393.8,288,393.7,288L393.7,288C393.7,288.1,393.7,288,393.7,288"/>
										<path class="bathroom-st103" d="M393.7,288.1L393.7,288.1C393.8,288,393.8,288,393.7,288.1L393.7,288.1L393.7,288.1"/>
										<path class="bathroom-st100" d="M393.7,288.1L393.7,288.1C393.8,288.1,393.8,288.1,393.7,288.1L393.7,288.1
											C393.7,288.2,393.7,288.1,393.7,288.1"/>
										<path class="bathroom-st96" d="M393.8,288.2L393.8,288.2C393.8,288.2,393.8,288.2,393.8,288.2L393.8,288.2
											C393.8,288.2,393.8,288.2,393.8,288.2"/>
										<path class="bathroom-st95" d="M393.8,288.2L393.8,288.2C393.8,288.2,393.8,288.2,393.8,288.2L393.8,288.2L393.8,288.2"/>
										<path class="bathroom-st87" d="M393.8,288.2L393.8,288.2C393.8,288.2,393.8,288.2,393.8,288.2L393.8,288.2
											C393.8,288.3,393.8,288.3,393.8,288.2"/>
										<path class="bathroom-st86" d="M393.8,288.3L393.8,288.3C393.8,288.2,393.8,288.2,393.8,288.3L393.8,288.3L393.8,288.3"/>
										<path class="bathroom-st83" d="M393.8,288.3L393.8,288.3C393.8,288.3,393.8,288.3,393.8,288.3L393.8,288.3
											C393.8,288.3,393.8,288.3,393.8,288.3"/>
									</g>
								</g>
							</g>
						</g>
					</g>
				</g>
			</g>
			<g>
				<g class="bathroom-st10">
					<g>
						<path class="bathroom-st15" d="M417.3,301.2l1.4-0.8c0.4-0.2,0.9-0.2,1.5,0.1l-1.4,0.8C418.1,301,417.6,301,417.3,301.2z"/>
					</g>
					<g>
						
							<linearGradient id="bathroom-SVGID_35_" gradientUnits="userSpaceOnUse" x1="419.9573" y1="201.9846" x2="421.7455" y2="195.8255" gradientTransform="matrix(1 0 0 -1 0 502.7)">
							<stop  offset="0" style="stop-color:#E6E7E8"/>
							<stop  offset="1" style="stop-color:#D1D3D4"/>
						</linearGradient>
						<path style="fill:url(#bathroom-SVGID_35_);" d="M421.6,305.4l-1.4,0.8c0.4-0.2,0.6-0.7,0.6-1.4c0-1.3-0.9-2.9-2.1-3.6l1.4-0.8
							c1.2,0.6,2.1,2.3,2.1,3.6C422.2,304.7,422,305.2,421.6,305.4z"/>
					</g>
					<g>
						
							<ellipse transform="matrix(0.8646 -0.5025 0.5025 0.8646 -95.8737 251.5199)" class="bathroom-st109" cx="418.7" cy="303.6" rx="1.7" ry="2.9"/>
					</g>
				</g>
			</g>
			<g>
				<g class="bathroom-st10">
					<g>
						<path class="bathroom-st15" d="M424.3,305.3l1.4-0.8c0.4-0.2,0.9-0.2,1.5,0.1l-1.4,0.8C425.2,305,424.7,305,424.3,305.3z"/>
					</g>
					<g>
						
							<linearGradient id="bathroom-SVGID_37_" gradientUnits="userSpaceOnUse" x1="427.03" y1="197.9192" x2="428.8181" y2="191.76" gradientTransform="matrix(1 0 0 -1 0 502.7)">
							<stop  offset="0" style="stop-color:#E6E7E8"/>
							<stop  offset="1" style="stop-color:#D1D3D4"/>
						</linearGradient>
						<path style="fill:url(#bathroom-SVGID_37_);" d="M428.7,309.5l-1.4,0.8c0.4-0.2,0.6-0.7,0.6-1.4c0-1.3-0.9-2.9-2.1-3.6l1.4-0.8
							c1.2,0.6,2.1,2.3,2.1,3.6C429.3,308.8,429,309.3,428.7,309.5z"/>
					</g>
					<g>
						
							<ellipse transform="matrix(0.8646 -0.5025 0.5025 0.8646 -96.9801 255.6029)" class="bathroom-st109" cx="425.7" cy="307.7" rx="1.7" ry="2.9"/>
					</g>
				</g>
			</g>
		</g>
		<g id="dryer_2_">
			<g>
				<g>
					<g class="bathroom-st10">
						<g>
							<polygon class="bathroom-st63" points="436.2,242.1 478.7,217.4 478.5,282.7 436,307.3 							"/>
						</g>
						<g>
							<polygon class="bathroom-st15" points="382.3,211 424.8,186.3 478.7,217.4 436.2,242.1 							"/>
						</g>
						<g>
							<polygon class="bathroom-st64" points="436.2,242.1 436,307.3 382.1,276.3 382.3,211 							"/>
						</g>
						<g>
							<polygon class="bathroom-st111" points="429.3,248.4 429.2,286 388.1,262.3 388.2,224.7 							"/>
						</g>
					</g>
				</g>
				<g class="bathroom-st10">
					<g class="bathroom-st10">
						<g>
							<polygon class="bathroom-st65" points="434.4,242.4 434.3,248.6 383.9,219.5 383.9,213.2 							"/>
						</g>
					</g>
					<g>
						<path class="bathroom-st66" d="M415.5,232.8v2.5c0,0.8-0.8,1.2-1.5,0.8l-10.8-6.2c-0.3-0.2-0.5-0.5-0.5-0.8v-2.5c0-0.8,0.8-1.2,1.5-0.8
							l10.8,6.1C415.4,232.1,415.5,232.5,415.5,232.8z"/>
					</g>
				</g>
				<g>
					<g class="bathroom-st10">
						<g>
							<path class="bathroom-st15" d="M417.4,235.2l1.4-0.8c0.4-0.2,0.9-0.2,1.5,0.1l-1.4,0.8C418.3,234.9,417.8,234.9,417.4,235.2z"/>
						</g>
						<g>
							
								<linearGradient id="bathroom-SVGID_39_" gradientUnits="userSpaceOnUse" x1="420.1497" y1="268.0062" x2="421.9378" y2="261.8471" gradientTransform="matrix(1 0 0 -1 0 502.7)">
								<stop  offset="0" style="stop-color:#E6E7E8"/>
								<stop  offset="1" style="stop-color:#D1D3D4"/>
							</linearGradient>
							<path style="fill:url(#bathroom-SVGID_39_);" d="M421.8,239.4l-1.4,0.8c0.4-0.2,0.6-0.7,0.6-1.4c0-1.3-0.9-2.9-2.1-3.6l1.4-0.8
								c1.2,0.6,2.1,2.3,2.1,3.6C422.4,238.7,422.1,239.2,421.8,239.4z"/>
						</g>
						<g>
							
								<ellipse transform="matrix(0.8646 -0.5025 0.5025 0.8646 -62.6793 242.6695)" class="bathroom-st109" cx="418.9" cy="237.6" rx="1.7" ry="2.9"/>
						</g>
					</g>
				</g>
				<g>
					<g class="bathroom-st10">
						<g>
							<path class="bathroom-st15" d="M424.5,239.2l1.4-0.8c0.4-0.2,0.9-0.2,1.5,0.1l-1.4,0.8C425.4,239,424.9,239,424.5,239.2z"/>
						</g>
						<g>
							
								<linearGradient id="bathroom-SVGID_40_" gradientUnits="userSpaceOnUse" x1="427.2223" y1="263.9408" x2="429.0105" y2="257.7816" gradientTransform="matrix(1 0 0 -1 0 502.7)">
								<stop  offset="0" style="stop-color:#E6E7E8"/>
								<stop  offset="1" style="stop-color:#D1D3D4"/>
							</linearGradient>
							<path class="bathroom-st108" d="M428.9,243.4l-1.4,0.8c0.4-0.2,0.6-0.7,0.6-1.4c0-1.3-0.9-2.9-2.1-3.6l1.4-0.8
								c1.2,0.6,2.1,2.3,2.1,3.6C429.5,242.8,429.2,243.3,428.9,243.4z"/>
						</g>
						<g>
							
								<ellipse transform="matrix(0.8646 -0.5025 0.5025 0.8646 -63.764 246.7741)" class="bathroom-st109" cx="426" cy="241.7" rx="1.7" ry="2.9"/>
						</g>
					</g>
				</g>
			</g>
			<g>
				<g>
					<g>
						<polygon points="424.5,293.4 424.5,294.6 416.4,289.9 416.4,288.7 						"/>
					</g>
				</g>
			</g>
			<g>
				<g>
					<g>
						<polygon points="424.6,291.2 424.6,292.4 416.4,287.7 416.4,286.5 						"/>
					</g>
				</g>
			</g>
			<g>
				<g>
					<g>
						<polygon points="424.7,289 424.7,290.2 416.5,285.5 416.5,284.3 						"/>
					</g>
				</g>
			</g>
			<g>
				<g>
					<g>
						<polygon points="424.5,295.5 424.5,296.8 416.4,292.1 416.4,290.8 						"/>
					</g>
				</g>
			</g>
		</g>
		<g id="hairdryer_1_">
			<g class="bathroom-st114">
				<g>
					<g class="bathroom-st10">
						<g>
							<path d="M81.9,281.3l-4.4,2.5c0.1-0.1,0.2-0.1,0.2-0.2l4.4-2.5C82.1,281.2,82,281.3,81.9,281.3z"/>
						</g>
						<g>
							<polygon points="78.7,281.3 83,278.7 82.1,281.1 77.7,283.6 							"/>
						</g>
						<g>
							<path d="M69.8,271.3c0.1,0.1,0.2,0.1,0.3,0.2l8.1,8.1c0.5,0.5,0.7,1.2,0.5,1.7l-0.9,2.4c-0.1,0.4-0.5,0.4-0.8,0.2
								c-0.1-0.1-0.2-0.1-0.3-0.2l-8.1-8.1c-0.5-0.5-0.7-1.2-0.5-1.7l0.9-2.4C69,271.1,69.4,271.1,69.8,271.3z"/>
						</g>
					</g>
				</g>
				<g>
					<path d="M58.2,265.4l-8.8,12.3l7.6,5.7c0,0,20.3-12.7,18.6-17.4C74.1,261.3,67.4,254.1,58.2,265.4z"/>
				</g>
				<g>
					<g>
						<path d="M81.2,280.6l1.5,1.1c-0.1-0.1-0.2-0.1-0.3,0l-1.5-1.1C81,280.5,81.2,280.5,81.2,280.6z"/>
					</g>
					<g>
						<path d="M80.7,283.6l-1.5-1.1c-0.1-0.1-0.1-0.1-0.1-0.3l1.5,1.1C80.6,283.5,80.6,283.6,80.7,283.6z"/>
					</g>
					<g>
						<polygon points="81,282.3 79.5,281.2 80.9,280.6 82.5,281.7 						"/>
					</g>
					<g>
						<polygon points="80.6,283.3 79,282.2 79,281.9 80.6,283 						"/>
					</g>
					<g>
						<path d="M80.6,283l-1.5-1.1c0-0.2,0.2-0.5,0.5-0.6l1.5,1.1C80.8,282.4,80.6,282.7,80.6,283z"/>
					</g>
					<g>
						<path d="M82.5,281.7c0.2-0.1,0.4,0,0.4,0.2l-0.1,0.4c0,0.2-0.2,0.5-0.5,0.6l-1.5,0.6c-0.2,0.1-0.4,0-0.4-0.3l0.1-0.4
							c0-0.2,0.2-0.5,0.5-0.6L82.5,281.7z"/>
					</g>
				</g>
			</g>
			<g>
				<g>
					<g class="bathroom-st10">
						<g>
							<path class="bathroom-st115" d="M69.6,270.4l4.4-2.5c0.2-0.1,0.4-0.1,0.6,0.1l-4.4,2.5C70,270.3,69.7,270.2,69.6,270.4z"/>
						</g>
						<g>
							<path class="bathroom-st115" d="M70.2,270.4l4.4-2.5c0.1,0.1,0.2,0.1,0.3,0.2l-4.4,2.5C70.4,270.5,70.3,270.5,70.2,270.4z"/>
						</g>
						<g>
							<path class="bathroom-st116" d="M82.4,280.4L78,283c0.1-0.1,0.2-0.1,0.2-0.2l4.4-2.5C82.5,280.3,82.5,280.4,82.4,280.4z"/>
						</g>
						<g>
							<polygon class="bathroom-st116" points="79.2,280.4 83.5,277.9 82.6,280.2 78.2,282.7 							"/>
						</g>
						<g>
							<polygon class="bathroom-st115" points="70.5,270.7 74.9,268.1 83,276.2 78.6,278.7 							"/>
						</g>
						<g>
							
							<linearGradient id="bathroom-SVGID_41_" gradientUnits="userSpaceOnUse" x1="81.5215" y1="223.7419" x2="80.3077" y2="225.4951" gradientTransform="matrix(1 0 0 -1 0 502.7)">
								<stop  offset="3.095709e-06" style="stop-color:#8E191C"/>
								<stop  offset="1" style="stop-color:#ED1C24"/>
							</linearGradient>
							<path class="bathroom-st110" d="M78.6,278.7l4.4-2.5c0.5,0.5,0.7,1.2,0.5,1.7l-4.4,2.5C79.3,280,79,279.2,78.6,278.7z"/>
						</g>
						<g>
							<path class="bathroom-st118" d="M70.2,270.4c0.1,0.1,0.2,0.1,0.3,0.2l8.1,8.1c0.5,0.5,0.7,1.2,0.5,1.7l-0.9,2.4
								c-0.1,0.4-0.5,0.4-0.8,0.2c-0.1-0.1-0.2-0.1-0.3-0.2l-8.1-8.1c-0.5-0.5-0.7-1.2-0.5-1.7l0.9-2.4
								C69.5,270.3,69.8,270.2,70.2,270.4z"/>
						</g>
						<g>
							<path class="bathroom-st119" d="M68.6,270.1c0.1,0.1,0.1,0.1,0.2,0.2l5,5c0.3,0.3,0.4,0.8,0.4,1l-0.6,1.5c-0.1,0.2-0.3,0.2-0.5,0.1
								c-0.1-0.1-0.1-0.1-0.2-0.2l-5-5c-0.3-0.3-0.4-0.8-0.4-1l0.6-1.5C68.2,270,68.4,270,68.6,270.1z"/>
						</g>
					</g>
					<g>
						<g class="bathroom-st10">
							<g>
								<path class="bathroom-st120" d="M70.4,273.6l0.5-0.3c0.1-0.1,0.2,0,0.2,0l-0.5,0.3C70.5,273.5,70.5,273.5,70.4,273.6z"/>
							</g>
							<g>
								<path class="bathroom-st120" d="M70.7,273.6l0.5-0.3c0.1,0,0.1,0.1,0.1,0.1l-0.5,0.3C70.7,273.7,70.7,273.7,70.7,273.6z"/>
							</g>
							<g>
								<polygon class="bathroom-st120" points="72.8,276.2 73.4,275.9 73.1,276.4 72.6,276.8 								"/>
							</g>
							<g>
								<path class="bathroom-st120" d="M73.1,276.6l-0.5,0.3c0.1,0,0.1-0.1,0.1-0.1l0.5-0.3C73.1,276.5,73.1,276.5,73.1,276.6z"/>
							</g>
							<g>
								<polygon class="bathroom-st120" points="70.8,273.7 71.3,273.4 73.1,275.3 72.6,275.6 								"/>
							</g>
							<g>
								<path class="bathroom-st120" d="M72.6,275.6l0.5-0.3c0.2,0.2,0.3,0.5,0.2,0.6l-0.5,0.3C72.9,276,72.8,275.7,72.6,275.6z"/>
							</g>
							<g>
								<path class="bathroom-st121" d="M70.7,273.6c0.1,0,0.1,0.1,0.1,0.1l1.8,1.9c0.2,0.2,0.3,0.5,0.2,0.6l-0.2,0.6
									c-0.1,0.1-0.2,0.1-0.4,0.1c-0.1,0-0.1-0.1-0.1-0.1l-1.8-1.9c-0.2-0.2-0.2-0.5-0.2-0.6l0.2-0.6
									C70.4,273.5,70.5,273.5,70.7,273.6z"/>
							</g>
						</g>
					</g>
				</g>
				<g>
					
					<linearGradient id="bathroom-SVGID_42_" gradientUnits="userSpaceOnUse" x1="-54.1545" y1="154.0901" x2="-42.1172" y2="138.0656" gradientTransform="matrix(0.9668 -0.2555 -0.2555 -0.9668 144.7343 397.129)">
						<stop  offset="0" style="stop-color:#ED1C24"/>
						<stop  offset="1" style="stop-color:#52120D"/>
					</linearGradient>
					<path class="bathroom-st112" d="M58.7,264.5l-8.8,12.3l7.6,5.7c0,0,20.3-12.7,18.6-17.4C74.6,260.5,67.9,253.3,58.7,264.5z"/>
				</g>
				<g>
					<g>
						<path class="bathroom-st115" d="M81.7,279.7l1.5,1.1c-0.1-0.1-0.2-0.1-0.3,0l-1.5-1.1C81.5,279.6,81.6,279.6,81.7,279.7z"/>
					</g>
					<g>
						<path class="bathroom-st118" d="M81.1,282.7l-1.5-1.1c-0.1-0.1-0.1-0.1-0.1-0.3l1.5,1.1C81,282.6,81,282.7,81.1,282.7z"/>
					</g>
					<g>
						<polygon class="bathroom-st115" points="81.5,281.4 80,280.4 81.4,279.7 83,280.8 						"/>
					</g>
					<g>
						<polygon class="bathroom-st118" points="81,282.4 79.4,281.3 79.5,281 81,282.1 						"/>
					</g>
					<g>
						
							<linearGradient id="bathroom-SVGID_43_" gradientUnits="userSpaceOnUse" x1="112.8143" y1="259.0995" x2="113.5304" y2="259.9497" gradientTransform="matrix(0.9959 9.002136e-02 9.002136e-02 -0.9959 -55.4694 529.3635)">
							<stop  offset="3.095709e-06" style="stop-color:#52120D"/>
							<stop  offset="1" style="stop-color:#ED1C24"/>
						</linearGradient>
						<path class="bathroom-st113" d="M81,282.1l-1.5-1.1c0-0.2,0.2-0.5,0.5-0.6l1.5,1.1C81.3,281.6,81.1,281.9,81,282.1z"/>
					</g>
					<g>
						<path class="bathroom-st116" d="M83,280.8c0.2-0.1,0.4,0,0.4,0.2l-0.1,0.4c0,0.2-0.2,0.5-0.5,0.6l-1.5,0.6c-0.2,0.1-0.4,0-0.4-0.3
							L81,282c0-0.2,0.2-0.5,0.5-0.6L83,280.8z"/>
					</g>
				</g>
			</g>
			<g>
				<g>
					<g>
						<path class="bathroom-st124" d="M52.2,276c2,0.1,4.4,1.8,5.3,3.7c0.9,1.9,0.1,3.4-1.9,3.2c-2-0.1-4.4-1.8-5.4-3.7
							C49.3,277.3,50.2,275.9,52.2,276z"/>
					</g>
				</g>
			</g>
			<g>
				
					<rect x="49.3" y="277.8" transform="matrix(0.6077 -0.7942 0.7942 0.6077 -200.6498 149.7302)" class="bathroom-st69" width="3.9" height="0.4"/>
				
					<rect x="49.7" y="278" transform="matrix(0.6077 -0.7942 0.7942 0.6077 -200.547 150.4248)" class="bathroom-st69" width="4.5" height="0.4"/>
				
					<rect x="50.3" y="278.5" transform="matrix(0.6077 -0.7942 0.7942 0.6077 -200.6855 151.0808)" class="bathroom-st69" width="4.6" height="0.4"/>
				
					<rect x="50.7" y="278.9" transform="matrix(0.6077 -0.7942 0.7942 0.6077 -200.8152 151.7236)" class="bathroom-st69" width="5" height="0.4"/>
				
					<rect x="51.2" y="279.5" transform="matrix(0.6077 -0.7942 0.7942 0.6077 -200.9887 152.4181)" class="bathroom-st69" width="5.1" height="0.4"/>
				
					<rect x="52" y="279.9" transform="matrix(0.6077 -0.7942 0.7942 0.6077 -201.1086 153.0934)" class="bathroom-st69" width="4.7" height="0.4"/>
				
					<rect x="52.8" y="280.3" transform="matrix(0.6077 -0.7942 0.7942 0.6077 -201.1588 153.7629)" class="bathroom-st69" width="4.6" height="0.4"/>
				
					<rect x="53.4" y="280.8" transform="matrix(0.6077 -0.7942 0.7942 0.6077 -201.3483 154.3529)" class="bathroom-st69" width="4.4" height="0.4"/>
				
					<rect x="54.3" y="281.4" transform="matrix(0.6077 -0.7942 0.7942 0.6077 -201.5307 155.1494)" class="bathroom-st69" width="3.9" height="0.4"/>
			</g>
			<g>
				<g>
					<g>
						<path class="bathroom-st118" d="M52.1,276.1c2,0.1,4.4,1.8,5.4,3.8s0.1,3.4-2,3.2c-2-0.1-4.4-1.8-5.4-3.8S50,276,52.1,276.1z
							 M55.3,282.9c1.9,0.1,2.7-1.2,1.8-3.1c-0.9-1.8-3.1-3.4-5-3.5s-2.7,1.2-1.8,3C51.2,281.2,53.5,282.7,55.3,282.9"/>
					</g>
				</g>
			</g>
			<g>
				<g id="dry_plug_2_">
					<g>
						<g>
							<g class="bathroom-st10">
								<g>
									<path class="bathroom-st125" d="M32.9,270.2l0.1,0.1c-0.2-0.1-0.4-0.1-0.7,0.1l-0.1-0.1C32.5,270.1,32.8,270.1,32.9,270.2z"/>
								</g>
								<g>
									<path class="bathroom-st125" d="M31.7,272.6l-0.1-0.1c-0.2-0.1-0.3-0.3-0.3-0.6c0-0.6,0.4-1.4,0.9-1.7l0.1,0.1
										c-0.5,0.3-0.9,1.1-0.9,1.7C31.4,272.3,31.5,272.5,31.7,272.6z"/>
								</g>
								<g>
									<path class="bathroom-st126" d="M32.4,270.3c0.5-0.3,0.9-0.1,0.9,0.5c0,0.6-0.4,1.4-0.9,1.7c-0.5,0.3-0.9,0.1-0.9-0.5
										C31.4,271.4,31.8,270.6,32.4,270.3z"/>
								</g>
							</g>
						</g>
						<g>
							<g class="bathroom-st10">
								<g>
									<polygon class="bathroom-st127" points="32.6,272.3 31.5,272.1 31.5,271.6 32.6,271.8 									"/>
								</g>
								<g>
									<polygon class="bathroom-st48" points="32.6,271.8 31.5,271.6 33.2,270.5 33.4,271.4 									"/>
								</g>
								<g>
									<polygon class="bathroom-st128" points="33.4,271.4 33.4,271.8 32.6,272.3 32.6,271.8 									"/>
								</g>
							</g>
						</g>
					</g>
					<g>
						<g class="bathroom-st10">
							<g>
								<polygon class="bathroom-st127" points="33.7,272.7 32.6,272.3 32.6,271.8 33.7,272.4 								"/>
							</g>
							<g>
								<polygon class="bathroom-st48" points="33.7,272.4 32.6,271.8 33.4,271.4 34.2,272 								"/>
							</g>
							<g>
								<polygon class="bathroom-st126" points="34.2,272 34.2,272.3 33.7,272.7 33.7,272.4 								"/>
							</g>
						</g>
					</g>
					<g>
						<polygon points="32.2,271.5 32.1,271.4 32.6,271.1 32.8,271.1 						"/>
					</g>
					<g>
						<polygon points="32.4,271.5 32.2,271.5 32.8,271.1 32.9,271.1 						"/>
					</g>
				</g>
				<g>
					<g class="bathroom-st10">
						<g class="bathroom-st10">
							<g>
								
									<radialGradient id="bathroom-SVGID_44_" cx="85.1762" cy="220.6761" r="69.0847" gradientTransform="matrix(1 0 0 -1 0 502.7)" gradientUnits="userSpaceOnUse">
									<stop  offset="0" style="stop-color:#000000"/>
									<stop  offset="1" style="stop-color:#414042"/>
								</radialGradient>
								<path class="bathroom-st117" d="M69.1,294.5c-2.4,0-5-0.4-7.8-1.5c-0.2-0.1-0.7-0.3-1.2-0.7c-1.2,0.6-2.5,1.1-3.2,1.2l-0.3,0.1
									c-1.1,0.4-2,0.4-2.8,0.1c-2.2-0.8-4-2.9-5.4-6.5c-1.9-4.8-6.7-9.7-14.6-14.5l0.6-0.5c8.1,4.9,12.7,9.9,14.6,14.8
									c1.4,3.4,3,5.5,5,6.1c0.7,0.2,1.5,0.2,2.4-0.1l0.3-0.1c0.6-0.2,1.8-0.5,2.8-1.1c-0.5-0.5-1-1.2-1.2-2.2
									c-0.2-1.2,0.1-2.2,0.7-2.9c0.5-0.5,1.2-0.6,1.6-0.7c0.1,0,1.9-0.2,2.7,1c0.5,0.8,0.1,1.8-0.1,2.2c-0.5,1.1-1.4,2-2.5,2.7
									c0.4,0.3,0.8,0.4,0.8,0.5c9.5,3.5,17.2-0.2,20.9-4.4c0.1-0.1,0.2-0.3,0.4-0.5c1.3-1.4,0.6-2.7-0.5-5.2
									c-0.1-0.1-0.1-0.2-0.1-0.3l0.6-0.3c0.1,0.1,0.1,0.2,0.2,0.4c1.4,3,1.8,4.5,0.4,6c-0.2,0.2-0.4,0.4-0.4,0.5
									C80.2,291.6,75.3,294.5,69.1,294.5z M61,286.7c-0.2,0-0.2,0-0.3,0c-0.4,0.1-0.8,0.2-1.2,0.5c-0.5,0.5-0.7,1.3-0.5,2.3
									c0.1,0.8,0.6,1.5,1.1,1.9c1.1-0.6,2-1.4,2.5-2.5c0.2-0.4,0.4-1.1,0.1-1.6C62.4,286.8,61.5,286.7,61,286.7z"/>
							</g>
						</g>
						<g>
							
								<radialGradient id="bathroom-SVGID_45_" cx="85.1762" cy="220.6761" r="69.0847" gradientTransform="matrix(1 0 0 -1 0 502.7)" gradientUnits="userSpaceOnUse">
								<stop  offset="0" style="stop-color:#000000"/>
								<stop  offset="1" style="stop-color:#414042"/>
							</radialGradient>
							<polygon class="bathroom-st122" points="33.7,272.4 33.7,272.7 35.2,273.4 34.2,272 							"/>
							<g>
								
									<radialGradient id="bathroom-SVGID_46_" cx="85.1762" cy="220.6761" r="69.0847" gradientTransform="matrix(1 0 0 -1 0 502.7)" gradientUnits="userSpaceOnUse">
									<stop  offset="0" style="stop-color:#000000"/>
									<stop  offset="1" style="stop-color:#414042"/>
								</radialGradient>
								<path class="bathroom-st123" d="M69,294.2c-2.4,0-5-0.4-7.8-1.5c-0.2-0.1-0.7-0.3-1.2-0.7c-1.2,0.6-2.5,1.1-3.2,1.2l-0.3,0.1
									c-1.1,0.4-2,0.4-2.8,0.1c-2.2-0.8-4-2.9-5.4-6.5c-1.9-4.8-6.6-9.7-14.5-14.6l0.6-0.4c8.1,4.9,12.6,9.8,14.6,14.7
									c1.4,3.4,3,5.5,5,6.1c0.7,0.2,1.5,0.2,2.4-0.1l0.3-0.1c0.6-0.2,1.8-0.5,2.8-1.1c-0.5-0.5-1-1.2-1.2-2.2
									c-0.2-1.2,0.1-2.2,0.7-2.9c0.5-0.5,1.2-0.6,1.6-0.7c0.1,0,1.9-0.2,2.7,1c0.5,0.8,0.1,1.8-0.1,2.2c-0.5,1.1-1.4,2-2.5,2.7
									c0.4,0.3,0.8,0.4,0.8,0.5c9.5,3.5,17.2-0.2,20.9-4.4c0.1-0.1,0.2-0.3,0.4-0.5c1.3-1.4,0.6-2.6-0.6-5.2
									c-0.1-0.1-0.1-0.2-0.1-0.3l0.6-0.3c0.1,0.1,0.1,0.2,0.2,0.4c1.4,3,1.8,4.5,0.5,5.9c-0.2,0.2-0.4,0.4-0.4,0.5
									C80,291.3,75.1,294.2,69,294.2z M60.8,286.5c-0.2,0-0.2,0-0.3,0c-0.4,0.1-0.8,0.2-1.2,0.5c-0.5,0.5-0.7,1.3-0.5,2.3
									c0.1,0.8,0.6,1.5,1.1,1.9c1.1-0.6,2-1.4,2.5-2.5c0.2-0.4,0.4-1.1,0.1-1.6C62.2,286.6,61.3,286.5,60.8,286.5z"/>
							</g>
						</g>
						
							<radialGradient id="bathroom-SVGID_47_" cx="85.1762" cy="220.6761" r="69.0847" gradientTransform="matrix(1 0 0 -1 0 502.7)" gradientUnits="userSpaceOnUse">
							<stop  offset="0" style="stop-color:#000000"/>
							<stop  offset="1" style="stop-color:#414042"/>
						</radialGradient>
						<path class="bathroom-st129" d="M84,285l-1-2.3l-0.5-1.2c0.1,0.1,0.2,0.1,0.2,0.2c0,0.1,0,0.1,0.1,0.2C83.2,282.9,83.6,283.9,84,285z"
							/>
					</g>
				</g>
			</g>
		</g>
		<g id="shower_drops_2_">
			<g id="raindrops_4_">
				<g id="drio3_6_">
					<g class="bathroom-st10">
						<g>
							<path class="bathroom-st60" d="M257.7,135c0.2,0.1,3.4,2.9,3.7,5.1c0.4,2.8-1.4,5.5-3.6,6.8c-2.2,1.3-4,0.6-3.7-2.6
								C254.3,141.9,257.5,135.3,257.7,135z"/>
						</g>
						<g>
							<path class="bathroom-st61" d="M255,147.3l-3.1-1.8c-0.7-0.4-1.1-1.4-0.9-3c0.3-2.4,3.5-9,3.7-9.3l3.1,1.8c-0.2,0.4-3.4,6.9-3.7,9.3
								C253.9,145.9,254.3,146.9,255,147.3z"/>
						</g>
					</g>
				</g>
			</g>
			<g id="raindrops_2_">
				<g id="drio3_3_">
					<g class="bathroom-st10">
						<g>
							<path class="bathroom-st60" d="M240.3,143.3c0.2,0.1,3.4,2.9,3.7,5.1c0.4,2.8-1.4,5.5-3.6,6.8c-2.2,1.3-4,0.6-3.7-2.6
								C236.9,150.2,240.1,143.6,240.3,143.3z"/>
						</g>
						<g>
							<path class="bathroom-st61" d="M237.5,155.6l-3.1-1.8c-0.7-0.4-1.1-1.4-0.9-3c0.3-2.4,3.5-9,3.7-9.3l3.1,1.8c-0.2,0.4-3.4,6.9-3.7,9.3
								C236.5,154.2,236.9,155.2,237.5,155.6z"/>
						</g>
					</g>
				</g>
			</g>
			<g id="raindrops_1_">
				<g id="drio3_1_">
					<g class="bathroom-st10">
						<g>
							<path class="bathroom-st60" d="M250.7,156.3c0.2,0.1,3.4,2.9,3.7,5.1c0.4,2.8-1.4,5.5-3.6,6.8c-2.2,1.3-4,0.6-3.7-2.6
								C247.4,163.3,250.6,156.7,250.7,156.3z"/>
						</g>
						<g>
							<path class="bathroom-st61" d="M248,168.6l-3.1-1.8c-0.7-0.4-1.1-1.4-0.9-3c0.3-2.4,3.5-9,3.7-9.3l3.1,1.8c-0.2,0.4-3.4,6.9-3.7,9.3
								C246.9,167.3,247.3,168.2,248,168.6z"/>
						</g>
					</g>
				</g>
			</g>
		</g>
	</g>

	<path id="path" d="M250.9,440.3c0,0,102.3-25.4,128.8-69.8S247.1,237.6,247.1,237.6S189,250.9,199.9,277s154.2,82.1,139.9,93.5
		c-27.6,22.2-59.3,47.7-92.4,48.5c-47.8,1.2-166.1-39.8-124.3-84.3c16.7-17.7-38,26.6-38,26.6s-10.5,2,10.5,17.8
		C108.6,399.2,192.8,436.7,250.9,440.3z"/>

	<svg id="snif-container">
		<use href="#snif-full-svg" id="snif" width="70"></use> 
	</svg>

	<g id="shower-window" class="bathroom-st31">
			<g>
				<g class="bathroom-st10">
					<g>
						<polygon class="bathroom-st11" points="144.9,278.1 145.4,83.5 217.4,125.1 216.9,319.8 						"/>
						<g class="bathroom-st10">
							<g>
								<defs>
									<polygon id="bathroom-SVGID_15_" points="144.9,278.1 145.4,83.5 217.4,125.1 216.9,319.8 									"/>
								</defs>
								<clipPath id="bathroom-SVGID_13_">
									<use xlink:href="#bathroom-SVGID_15_"  style="overflow:visible;"/>
								</clipPath>
								<g style="clip-path:url(#bathroom-SVGID_13_);">
									<g>
										<g>
											<g>
												<defs>
													<polyline id="bathroom-SVGID_17_" points="216.9,319.8 144.9,278.1 145.4,83.5 217.4,125.1 216.9,319.8 													"/>
												</defs>
												<clipPath id="bathroom-SVGID_14_">
													<use xlink:href="#bathroom-SVGID_17_"  style="overflow:visible;"/>
												</clipPath>
												<g style="clip-path:url(#bathroom-SVGID_14_);">
												</g>
											</g>
										</g>
									</g>
								</g>
							</g>
						</g>
					</g>
					<g>
						<polygon class="bathroom-st11" points="145.4,83.5 146.2,83 218.3,124.6 217.4,125.1 						"/>
					</g>
					<g>
						<polygon class="bathroom-st11" points="217.4,125.1 218.3,124.6 217.7,319.3 216.9,319.8 						"/>
					</g>
				</g>
			</g>
		</g>
	</g>
<g id="Layer_2" style="display: none;">
	<path d="M250.9,440.3c0,0,102.3-25.4,128.8-69.8S247.1,237.6,247.1,237.6S189,250.9,199.9,277s154.2,82.1,139.9,93.5
		c-27.6,22.2-59.3,47.7-92.4,48.5c-47.8,1.2-166.1-39.8-124.3-84.3c16.7-17.7-38,26.6-38,26.6s-10.5,2,10.5,17.8
		C108.6,399.2,192.8,436.7,250.9,440.3z"/>
</g>
</svg>
