<?xml version="1.0" encoding="utf-8"?>
<!-- Generator: Adobe Illustrator 24.3.0, SVG Export Plug-In . SVG Version: 6.00 Build 0)  -->
<svg version="1.1" id="Layer_1" xmlns="http://www.w3.org/2000/svg" xmlns:xlink="http://www.w3.org/1999/xlink" x="0px" y="0px"
	 viewBox="0 0 823.9 839.3" style="enable-background:new 0 0 823.9 839.3;" xml:space="preserve">
<style type="text/css">
	.st0{fill:#414042;stroke:#A7A9AC;stroke-width:0.5;stroke-miterlimit:10;}
	.st1{fill:#6D6E71;stroke:#D1D3D4;stroke-width:0.5;stroke-miterlimit:10;}
	.st2{fill:#939598;}
	.st3{fill:#808285;}
	.st4{fill:#BCBEC0;}
	.st5{fill:#726658;}
	.st6{fill:#594A42;}
	.st7{fill:#C2B59B;}
	.st8{fill:url(#SVGID_1_);}
	.st9{fill:url(#SVGID_2_);}
	.st10{enable-background:new    ;}
	.st11{fill:#BFBFBF;}
	.st12{clip-path:url(#SVGID_4_);}
	.st13{clip-path:url(#SVGID_6_);}
	.st14{opacity:0.5;}
	.st15{fill:#020202;}
	.st16{fill:#414042;}
	.st17{fill:#8E8E8E;}
	.st18{fill:#262626;}
	.st19{fill:#153BCA;}
	.st20{fill:#D5D6D7;}
	.st21{fill:none;}
	.st22{fill:#FFFFFF;}
	.st23{fill:url(#SVGID_7_);}
	.st24{fill:url(#SVGID_8_);}
	.st25{fill:url(#SVGID_9_);stroke:#FFFFFF;stroke-miterlimit:10;}
	.st26{fill:url(#light_1_);}
	.st27{fill:url(#SVGID_10_);}
	.st28{fill:url(#SVGID_11_);}
	.st29{fill:#7D7C7C;}
	.st30{fill:#F6F6F6;}
	.st31{fill:#BABABA;}
	.st32{fill:#D3D3D3;}
	.st33{fill:#B5B6B6;}
	.st34{fill:#DCDCDC;}
	.st35{fill:#9E9E9E;}
	.st36{fill:url(#SVGID_12_);stroke:#603913;stroke-miterlimit:10;}
	.st37{fill:url(#SVGID_13_);stroke:#603913;stroke-miterlimit:10;}
	.st38{opacity:0.7;}
	.st39{fill:#DFDFDE;}
	.st40{fill:#F9FBF8;}
	.st41{opacity:0.7;fill:#00B1B5;enable-background:new    ;}
	.st42{fill:#C2C1C0;}
	.st43{opacity:0.5;fill:#101010;enable-background:new    ;}
	.st44{fill:url(#SVGID_14_);}
	.st45{fill:#303030;}
	.st46{fill:#101010;}
	.st47{fill:url(#SVGID_15_);}
	.st48{fill:url(#SVGID_16_);}
	.st49{fill:url(#SVGID_17_);}
	.st50{fill:url(#SVGID_18_);}
	.st51{fill:none;stroke:#000000;stroke-width:0.2;stroke-miterlimit:10;}
	.st52{fill:#B5B5B6;}
	.st53{fill:#5E5D5F;}
	.st54{fill:#787878;}
	.st55{fill:#58C1EF;}
	.st56{fill:#4DABCB;}
	.st57{fill:url(#SVGID_19_);}
	.st58{fill:url(#SVGID_20_);}
	.st59{fill:url(#SVGID_21_);}
	.st60{fill:url(#SVGID_22_);}
	.st61{opacity:0.5;enable-background:new    ;}
	.st62{fill:url(#SVGID_23_);}
	.st63{fill:#4F7CBF;}
	.st64{fill:url(#SVGID_24_);}
	.st65{fill:#E6E7E8;}
	.st66{fill:url(#SVGID_25_);}
	.st67{fill:url(#SVGID_26_);}
	.st68{fill:#00AEEF;}
	.st69{fill:#E2E2E2;}
	.st70{fill:#BCBFC1;}
	.st71{fill:#414142;}
	.st72{fill:#ADE0F0;stroke:#000000;stroke-width:0.2;stroke-miterlimit:10;}
	.st73{fill:url(#SVGID_27_);}
	.st74{fill:url(#SVGID_28_);}
	.st75{fill:#CECCCD;}
	.st76{fill:#FFFFFF;stroke:#6D6E71;stroke-width:0.1;stroke-miterlimit:10;}
	.st77{clip-path:url(#SVGID_30_);enable-background:new    ;}
	.st78{fill:#717477;}
	.st79{fill:#74777A;}
	.st80{fill:#777A7D;}
	.st81{fill:#7B7D80;}
	.st82{fill:#7E8183;}
	.st83{fill:#818486;}
	.st84{fill:#848789;}
	.st85{fill:#878A8C;}
	.st86{fill:#8A8D8F;}
	.st87{fill:#8D9093;}
	.st88{fill:#919396;}
	.st89{fill:#949799;}
	.st90{fill:#979A9C;}
	.st91{fill:#9A9D9F;}
	.st92{fill:#9DA0A2;}
	.st93{clip-path:url(#SVGID_32_);enable-background:new    ;}
	.st94{fill:#999B9E;}
	.st95{fill:#A6A9AB;}
	.st96{fill:#747779;}
	.st97{clip-path:url(#SVGID_34_);enable-background:new    ;}
	.st98{fill:#A0A3A5;}
	.st99{fill:#A3A6A8;}
	.st100{fill:#A6A8AB;}
	.st101{fill:#A9ABAE;}
	.st102{fill:#ACAEB0;}
	.st103{fill:#AFB1B3;}
	.st104{fill:#B2B4B6;}
	.st105{fill:#B5B7B9;}
	.st106{fill:#B8BABC;}
	.st107{fill:#BDBFC1;}
	.st108{fill:#C4C5C7;}
	.st109{fill:#C7C8C9;}
	.st110{fill:#C9CACC;}
	.st111{fill:#CBCCCD;}
	.st112{fill:#CCCDCF;}
	.st113{fill:url(#SVGID_35_);}
	.st114{fill:#C9C9C9;}
	.st115{fill:url(#SVGID_36_);}
	.st116{fill:#BCBFC1;stroke:#000000;stroke-width:0.2;stroke-miterlimit:10;}
	.st117{fill:url(#SVGID_37_);}
	.st118{fill:url(#SVGID_38_);}
	.st119{fill:#ED1C24;}
	.st120{fill:#8E191C;}
	.st121{fill:url(#SVGID_39_);}
	.st122{fill:#52120D;}
	.st123{fill:#FEEBE9;}
	.st124{fill:#66B7E6;}
	.st125{fill:#0078BA;}
	.st126{fill:url(#SVGID_40_);}
	.st127{fill:url(#SVGID_41_);}
	.st128{fill:#969696;}
	.st129{fill:#EA0000;}
	.st130{fill:#606161;}
	.st131{fill:#4C4C4C;}
	.st132{fill:#909091;}
	.st133{fill:#2D2D2D;}
	.st134{fill:url(#SVGID_42_);}
	.st135{fill:url(#SVGID_43_);}
	.st136{fill:url(#SVGID_44_);}
	.st137{fill:url(#SVGID_45_);}
</style>
<g id="bathroom">
	<g>
		<polygon class="st0" points="531,671.5 640,608.6 705.2,646.3 595,708.4 		"/>
		<polygon class="st0" points="640,608.6 749,545.7 811.8,581.9 705.2,646.3 		"/>
		<polygon class="st0" points="327,789 423.9,733 493.8,773.4 399.6,831.7 		"/>
		<polygon class="st0" points="423.9,733 532.9,670.1 598.8,708.1 492.1,772.3 		"/>
		<polygon class="st0" points="422,663.1 531,600.2 591.5,635.2 482.6,698.1 		"/>
		<polygon class="st0" points="531,600.2 640,537.3 700.6,572.2 591.6,635.1 		"/>
		<polygon class="st0" points="266.5,752.6 314.9,724.7 375.4,759.6 327,789 		"/>
		<polygon class="st0" points="314.9,724.6 423.8,661.7 484.4,696.7 375.5,759.6 		"/>
		<polygon class="st0" points="641,536.8 750,473.9 810.6,508.9 701.6,571.8 		"/>
		<polygon class="st0" points="400,604.8 509,541.9 569.5,576.9 460.5,639.8 		"/>
		<polygon class="st0" points="508.9,541.9 617.9,479 678.5,513.9 569.5,576.8 		"/>
		<polygon class="st0" points="204.5,717.3 292.8,666.3 353.4,701.3 265.1,752.3 		"/>
		<polygon class="st0" points="292.8,666.3 401.8,603.4 462.4,638.3 353.4,701.3 		"/>
		<polygon class="st0" points="303.8,589.1 412.8,526.2 473.4,561.2 364.4,624.1 		"/>
		<polygon class="st0" points="412.8,526.2 521.8,463.3 582.4,498.2 473.4,561.1 		"/>
		<polygon class="st0" points="142.3,682.1 196.7,650.6 257.2,685.6 204.5,717.3 		"/>
		<polygon class="st0" points="196.7,650.6 305.7,587.7 366.3,622.6 257.3,685.6 		"/>
		<polygon class="st0" points="522.9,462.8 631.8,399.9 692.4,434.8 583.4,497.8 		"/>
		<polygon class="st0" points="275.1,535.4 384,472.4 444.6,507.4 335.6,570.3 		"/>
		<polygon class="st0" points="384,472.4 493,409.5 553.6,444.4 444.6,507.4 		"/>
		<polygon class="st0" points="84.3,645.2 167.9,596.9 228.5,631.8 143.7,680.8 		"/>
		<polygon class="st0" points="167.9,596.9 276.9,533.9 337.5,568.9 228.5,631.8 		"/>
		<polygon class="st0" points="182.4,517.5 291.4,454.6 351.9,489.6 242.9,552.5 		"/>
		<polygon class="st0" points="291.4,454.6 400.3,391.7 460.9,426.6 351.9,489.5 		"/>
		<polygon class="st0" points="22,609.8 75.3,579.1 135.8,614 82.1,645 		"/>
		<polygon class="st0" points="75.2,579 184.2,516.1 244.8,551.1 135.8,614 		"/>
		<polygon class="st0" points="401.4,391.2 510.4,328.3 571,363.3 462,426.2 		"/>
		<polygon class="st0" points="152.6,465.1 261.6,402.2 322.2,437.2 213.2,500.1 		"/>
		<polygon class="st0" points="261.6,402.2 370.6,339.3 431.2,374.2 322.2,437.1 		"/>
		<polygon class="st0" points="0.9,600.1 85.6,549.8 106.1,561.6 20.2,611.1 		"/>
		<polygon class="st0" points="45.5,526.6 154.5,463.7 215.1,498.6 106.1,561.6 		"/>
	</g>
	<g>
		<polygon class="st1" points="23,240.3 23,310.4 132.1,247.4 132.1,177.6 		"/>
		<polygon class="st1" points="132.1,177.1 132.1,247.2 241.3,184.2 241.3,114.4 		"/>
		<polygon class="st1" points="241.3,114.1 241.3,184.3 350.4,121.3 350.4,51.5 		"/>
		<polygon class="st1" points="350.4,51 350.4,121.1 413,83.4 413,13.7 		"/>
		<polygon class="st1" points="2.8,320.2 3.4,389.8 85.6,342.4 85.6,272.6 		"/>
		<polygon class="st1" points="85.7,272.5 86.2,342.7 195.3,279.7 194.9,209.9 		"/>
		<polygon class="st1" points="194.7,209.1 194.7,279.2 304.5,217.1 303.9,146.5 		"/>
		<polygon class="st1" points="303.9,146.4 303.9,216.5 413,153.5 413,83.7 		"/>
		<polygon class="st1" points="23,379.7 23,449.8 132.1,386.8 132.1,317 		"/>
		<polygon class="st1" points="132.1,316.5 133.8,398 242.9,335 241.3,253.8 		"/>
		<polygon class="st1" points="241.3,253.5 241.3,323.6 350.4,260.7 350.4,190.9 		"/>
		<polygon class="st1" points="350.4,190.4 350.4,260.5 459.5,197.6 459.5,127.8 		"/>
		<polygon class="st1" points="0.9,460.3 0.9,530.3 85.6,481.5 85.6,411.7 		"/>
		<polygon class="st1" points="85.6,411.1 85.6,481.2 194.7,418.3 194.7,348.5 		"/>
		<polygon class="st1" points="194.7,348.4 194.7,418.5 303.9,355.6 303.9,285.8 		"/>
		<polygon class="st1" points="303.9,285 303.9,355.2 413,292.2 413,222.4 		"/>
		<polygon class="st1" points="17.5,520.1 17.5,590.2 126.7,527.2 126.7,457.4 		"/>
		<polygon class="st1" points="125.8,457.7 125.8,527.8 236.1,464 236.5,394 		"/>
		<polygon class="st1" points="236.5,394 235.8,464.1 344.9,401.1 344.9,331.3 		"/>
		<polygon class="st1" points="344.9,330.8 344.9,401 454.1,338 454.1,268.2 		"/>
	</g>
	<g>
		<polygon class="st1" points="802.6,242 802.6,312.2 693.5,249.2 693.5,179.4 		"/>
		<polygon class="st1" points="693.5,178.8 693.5,249 584.4,186 584.4,116.2 		"/>
		<polygon class="st1" points="584.4,115.9 584.4,186 475.2,123 475.2,53.2 		"/>
		<polygon class="st1" points="475.2,52.8 475.2,122.9 412.7,85.1 412.7,15.4 		"/>
		<polygon class="st1" points="802.6,310.3 802.6,380.3 740.1,344.2 740.1,274.4 		"/>
		<polygon class="st1" points="740.1,273.8 740.1,343.9 630.9,281 630.9,211.2 		"/>
		<polygon class="st1" points="632.9,212.3 632.9,282.4 523.7,219.4 523.7,149.6 		"/>
		<polygon class="st1" points="521.8,148.1 521.8,218.2 412.7,155.3 412.7,85.5 		"/>
		<polygon class="st1" points="802.6,381.4 802.6,451.5 693.5,388.6 693.5,318.8 		"/>
		<polygon class="st1" points="693.5,318.2 691.9,399.7 582.7,336.8 584.4,255.6 		"/>
		<polygon class="st1" points="584.4,255.3 584.4,325.4 475.2,262.4 475.2,192.6 		"/>
		<polygon class="st1" points="475.2,192.2 475.2,262.3 412.7,224.1 412.7,155.3 		"/>
		<polygon class="st1" points="802.6,448.8 802,518.3 740.1,483.2 740.1,413.4 		"/>
		<polygon class="st1" points="740.1,412.9 740.1,483 630.9,420 630.9,350.2 		"/>
		<polygon class="st1" points="630.9,349.9 630.9,420 521.8,357 521.8,287.3 		"/>
		<polygon class="st1" points="521.8,286.8 521.8,356.9 412.7,293.9 412.7,224.1 		"/>
		<polygon class="st1" points="802,518.3 801,586.7 699,529 699,459.2 		"/>
		<polygon class="st1" points="699,458.6 699,528.8 589.9,465.8 589.9,396 		"/>
		<polygon class="st1" points="589.9,395.7 589.9,465.8 480.7,402.8 480.7,333 		"/>
		<polygon class="st1" points="480.7,332.6 480.7,402.7 412.2,362.2 412.2,293.2 		"/>
	</g>
	<g>
		<polygon class="st2" points="0.4,237.7 24.6,251.7 24.6,587.8 0,573.6 		"/>
		<polygon class="st3" points="823.9,237.7 799.8,251.4 800.3,587.2 823.8,573.6 		"/>
		<polygon class="st4" points="0.4,237.7 412.2,0 823.9,237.7 799.7,251.7 412.2,28 24.6,251.7 		"/>
		<polygon class="st2" points="412,839.1 411.8,839.3 0,601.6 0,573.6 412.2,811.4 		"/>
		<polygon class="st3" points="823.8,573.6 823.8,601.6 412,839.3 412,811.4 		"/>
	</g>
	<g id="table">
		<polygon class="st5" points="49.4,573.4 167.3,505.4 167.5,417.6 49.4,485.9 		"/>
		<polygon class="st6" points="49.4,451.9 104.1,481.3 104.1,605.8 49.4,573.4 		"/>
		<polygon class="st5" points="167.5,383.6 222.2,416 222.1,537.6 167.3,505.4 		"/>
		<polygon class="st5" points="104.1,605.8 222.1,537.6 222.2,450 104.1,518.2 		"/>
		<polygon class="st7" points="49.4,451.8 104.1,484.1 222.2,416 167.5,383.6 		"/>
		<g>
			<polygon class="st6" points="104.1,513.6 104.1,518.2 222.2,450 222.2,445.6 			"/>
			<polygon class="st6" points="161,485.3 163.6,483.8 164.2,571.2 161.8,572.4 			"/>
		</g>
		<g>
			
				<linearGradient id="SVGID_1_" gradientUnits="userSpaceOnUse" x1="154.6029" y1="526.1112" x2="164.5358" y2="563.4775" gradientTransform="matrix(1 0 0 1 0 -2.0001)">
				<stop  offset="0" style="stop-color:#FFFFFF"/>
				<stop  offset="1" style="stop-color:#9E9E9E"/>
			</linearGradient>
			<polygon class="st8" points="159.9,548.9 155.6,551.2 155.6,523 159.9,520.7 			"/>
			<polygon class="st4" points="159.9,520.7 155.6,523 155.6,551.2 153.9,550 153.9,522.3 158.1,519.8 			"/>
		</g>
		<g>
			
				<linearGradient id="SVGID_2_" gradientUnits="userSpaceOnUse" x1="166.814" y1="517.7028" x2="176.7469" y2="555.069" gradientTransform="matrix(1 0 0 1 0 -2.0001)">
				<stop  offset="0" style="stop-color:#FFFFFF"/>
				<stop  offset="1" style="stop-color:#9E9E9E"/>
			</linearGradient>
			<polygon class="st9" points="172.1,540.4 167.8,542.8 167.8,514.6 172.1,512.2 			"/>
			<polygon class="st4" points="172.1,512.2 167.8,514.6 167.8,542.8 166.1,541.6 166.1,513.9 170.4,511.4 			"/>
		</g>
		<g>
			<g>
				<g class="st10">
					<g>
						<polygon class="st11" points="153.7,474.1 153.7,471.4 172.1,460.8 172.1,463.5 						"/>
						<g class="st10">
							<g>
								<g>
									<defs>
										<polygon id="SVGID_3_" points="153.7,474.1 153.7,471.4 172.1,460.8 172.1,463.5 										"/>
									</defs>
									<clipPath id="SVGID_4_">
										<use xlink:href="#SVGID_3_"  style="overflow:visible;"/>
									</clipPath>
									<g class="st12">
										<g>
											<g>
												<g>
													<g>
														<defs>
															<polyline id="SVGID_5_" points="172.1,463.5 153.7,474.1 153.7,471.4 172.1,460.8 172.1,463.5 															"/>
														</defs>
														<clipPath id="SVGID_6_">
															<use xlink:href="#SVGID_5_"  style="overflow:visible;"/>
														</clipPath>
														<g class="st13">
															
																<image style="overflow:visible;enable-background:new    ;" width="71" height="54" xlink:href="../../../../Creative Cloud Files/35F42479493CA10B.png"  transform="matrix(0.2566 0 0 0.2566 153.8595 460.5665)">
															</image>
														</g>
													</g>
												</g>
											</g>
										</g>
									</g>
								</g>
							</g>
						</g>
					</g>
					<g>
						<polygon class="st11" points="153.7,474.1 152.9,473.7 152.9,470.9 153.7,471.4 						"/>
					</g>
					<g>
						<polygon class="st11" points="153.7,471.4 152.9,470.9 171.3,460.3 172.1,460.8 						"/>
					</g>
				</g>
			</g>
		</g>
	</g>
	<g>
		<g class="st10">
			<g class="st14">
				<polygon class="st15" points="541.6,438.6 391,526.1 261.2,450.5 411.8,363 				"/>
			</g>
		</g>
		<g class="st10">
			<g>
				<polygon class="st2" points="536,426.9 535.2,437.9 411.9,366.7 412,356.9 				"/>
			</g>
			<g>
				<polygon class="st3" points="412,356.9 411.9,366.7 269.4,449.5 268.6,438.7 				"/>
			</g>
			<g>
				<polygon class="st16" points="535.3,437.8 392.8,520.7 269.4,449.4 411.9,366.6 				"/>
			</g>
			<g>
				<polygon class="st2" points="392.8,511.8 392.7,521.2 268.6,448.1 268.6,438.7 				"/>
			</g>
			<g>
				<polygon class="st3" points="536,426.9 535.2,437.9 392.7,521.2 392.8,511.7 				"/>
			</g>
		</g>
		<g id="drain">
			<polygon class="st17" points="423,419.6 374.6,447.7 325.9,419.6 374.3,391.6 			"/>
			<g>
				<g id="drain_1_">
					<polygon class="st18" points="376.4,399.4 342.2,419.6 338.5,417.2 372.7,397 					"/>
				</g>
				<g id="drain_2_">
					<polygon class="st18" points="384,404.5 349.8,424.7 346.1,422.3 380.3,402.1 					"/>
				</g>
				<g id="drain_3_">
					<polygon class="st18" points="392.7,409.4 358.5,429.6 354.8,427.2 388.9,407 					"/>
				</g>
				<g id="drain_4_">
					<polygon class="st18" points="400.7,414.7 366.5,434.9 362.8,432.5 397,412.3 					"/>
				</g>
				<g id="drain_5_">
					<polygon class="st18" points="409,419.7 374.9,439.9 371.1,437.5 405.3,417.3 					"/>
				</g>
			</g>
		</g>
		<g id="shower_puddle">
			<g>
				<g id="puddle_c">
					<g>
						<g>
							<path class="st19" d="M415.4,430.2c1.8,1.1,1.8,2.8,0,3.8c-1.8,1.1-4.8,1.1-6.6,0c-1.8-1.1-1.8-2.8,0-3.8
								C410.6,429.2,413.6,429.2,415.4,430.2z"/>
						</g>
					</g>
				</g>
			</g>
			<g id="puddle_ring4">
				<g id="ripple_outer">
					<g id="puddle_c_24_">
						<g>
							<g>
								<path class="st20" d="M413.3,418.5c1,0.6,1,1.5,0,2c-1,0.6-2.6,0.6-3.5,0c-1-0.6-1-1.5,0-2
									C410.7,417.9,412.3,417.9,413.3,418.5z M410.1,420.3c0.8,0.4,2,0.4,2.8,0s0.8-1.2,0-1.6s-2-0.5-2.8,0
									C409.3,419.2,409.3,419.9,410.1,420.3"/>
							</g>
						</g>
					</g>
				</g>
				<g id="ripple_inner">
					<g id="puddle_c_21_">
						<g>
							<g>
								<path class="st20" d="M412,419.2c0.3,0.2,0.3,0.4,0,0.6s-0.7,0.2-1,0s-0.3-0.4,0-0.6C411.3,419.1,411.7,419.1,412,419.2z
									 M411.1,419.7c0.2,0.1,0.5,0.1,0.7,0s0.2-0.3,0-0.4s-0.5-0.1-0.7,0C410.9,419.4,410.9,419.6,411.1,419.7"/>
							</g>
						</g>
					</g>
				</g>
			</g>
			<g id="puddle_ring3">
				<g id="ripple_inner">
					<g id="puddle_c_23_">
						<g>
							<g>
								<path class="st20" d="M425,431.1c0.3,0.2,0.3,0.4,0,0.6s-0.7,0.2-1,0s-0.3-0.4,0-0.6C424.2,430.9,424.7,430.9,425,431.1z
									 M424.1,431.6c0.2,0.1,0.5,0.1,0.7,0s0.2-0.3,0-0.4s-0.5-0.1-0.7,0C423.9,431.3,423.9,431.5,424.1,431.6"/>
							</g>
						</g>
					</g>
				</g>
				<g id="ripple_outer">
					<g id="puddle_c_36_">
						<g>
							<g>
								<path class="st20" d="M426.2,430.4c1,0.6,1,1.5,0,2c-1,0.6-2.5,0.6-3.5,0s-1-1.5,0-2C423.7,429.8,425.2,429.8,426.2,430.4z
									 M423.1,432.2c0.8,0.4,2,0.4,2.8,0s0.8-1.2,0-1.6c-0.8-0.5-2.1-0.4-2.8,0C422.3,431,422.3,431.8,423.1,432.2"/>
							</g>
						</g>
					</g>
				</g>
			</g>
			<g id="puddle_ring2">
				<g id="ripple_inner">
					<g id="puddle_c_20_">
						<g>
							<g>
								<path class="st20" d="M399.3,432.1c0.3,0.2,0.3,0.4,0,0.6s-0.7,0.2-1,0s-0.3-0.4,0-0.6C398.6,432,399,431.9,399.3,432.1z
									 M398.4,432.6c0.2,0.1,0.5,0.1,0.7,0s0.2-0.3,0-0.4s-0.5-0.1-0.7,0C398.2,432.3,398.2,432.5,398.4,432.6"/>
							</g>
						</g>
					</g>
				</g>
				<g id="ripple_outer">
					<g id="puddle_c_19_">
						<g>
							<g>
								<path class="st20" d="M400.6,431.4c1,0.6,1,1.5,0,2c-1,0.6-2.5,0.6-3.5,0s-1-1.5,0-2C398,430.8,399.6,430.8,400.6,431.4z
									 M397.4,433.2c0.8,0.4,2,0.5,2.8,0s0.8-1.2,0-1.6s-2-0.5-2.8,0C396.6,432,396.6,432.8,397.4,433.2"/>
							</g>
						</g>
					</g>
				</g>
			</g>
			<g id="puddle_ring1">
				<g id="ripple_outer">
					<g id="puddle_c_28_">
						<g>
							<g>
								<path class="st20" d="M414.6,444.6c1,0.6,1,1.5,0,2c-1,0.6-2.5,0.6-3.5,0s-1-1.5,0-2C412.1,444,413.6,444,414.6,444.6z
									 M411.5,446.4c0.8,0.4,2,0.5,2.8,0s0.8-1.2,0-1.6s-2-0.5-2.8,0C410.7,445.2,410.7,446,411.5,446.4"/>
							</g>
						</g>
					</g>
				</g>
				<g id="ripple_inner">
					<g id="puddle_c_25_">
						<g>
							<g>
								<path class="st20" d="M413.4,445.3c0.3,0.2,0.3,0.4,0,0.6s-0.7,0.2-1,0s-0.3-0.4,0-0.6C412.6,445.1,413.1,445.1,413.4,445.3
									z M412.5,445.8c0.2,0.1,0.5,0.1,0.7,0s0.2-0.3,0-0.4s-0.5-0.1-0.7,0S412.3,445.7,412.5,445.8"/>
							</g>
						</g>
					</g>
				</g>
			</g>
		</g>
	</g>
	<g>
		<line class="st21" x1="249.9" y1="121" x2="236.2" y2="129.9"/>
		<path class="st4" d="M379.1,190.1"/>
		<path class="st4" d="M361.4,200.2"/>
	</g>
	<g>
		<polygon class="st22" points="168.7,351.4 61,412.9 61,252.3 168.7,190.9 		"/>
		<g>
			
				<linearGradient id="SVGID_7_" gradientUnits="userSpaceOnUse" x1="68.7654" y1="258.8467" x2="170.4292" y2="355.2971" gradientTransform="matrix(1 0 0 1 0 -2.0001)">
				<stop  offset="0" style="stop-color:#FFFFFF"/>
				<stop  offset="1" style="stop-color:#9E9E9E"/>
			</linearGradient>
			<polygon class="st23" points="172.9,354.2 65.3,415.6 65.3,255.1 172.9,193.6 			"/>
			
				<linearGradient id="SVGID_8_" gradientUnits="userSpaceOnUse" x1="115.1893" y1="230.6872" x2="73.0071" y2="368.1347" gradientTransform="matrix(1 0 0 1 0 -2.0001)">
				<stop  offset="0" style="stop-color:#FFFFFF"/>
				<stop  offset="1" style="stop-color:#A5A5A5"/>
			</linearGradient>
			<polygon class="st24" points="172.9,193.6 168.7,190.9 61,252.3 61,412.9 65.3,415.6 65.3,255.1 			"/>
		</g>
		
			<linearGradient id="SVGID_9_" gradientUnits="userSpaceOnUse" x1="76.9323" y1="268.9948" x2="162.1224" y2="349.8162" gradientTransform="matrix(1 0 0 1 0 -2.0001)">
			<stop  offset="0" style="stop-color:#FFFFFF"/>
			<stop  offset="1" style="stop-color:#9E9E9E"/>
		</linearGradient>
		<polygon class="st25" points="164.2,348.6 74,400 74,265.5 164.2,214 		"/>
		<polygon class="st22" points="65.3,400 140.1,214 172.9,193.6 172.9,220.2 76.2,408.5 65.3,415.6 		"/>
		<polyline class="st22" points="171.9,235 172.9,246.7 90.4,400.3 		"/>
	</g>
	<g>
		
			<linearGradient id="light_1_" gradientUnits="userSpaceOnUse" x1="121.3046" y1="210.7445" x2="121.5619" y2="364.1002" gradientTransform="matrix(1 0 0 1 0 -2.0001)">
			<stop  offset="0" style="stop-color:#FFF200;stop-opacity:0.8"/>
			<stop  offset="1" style="stop-color:#FFF200;stop-opacity:0"/>
		</linearGradient>
		<polygon id="light" class="st26" points="148.3,383.3 94.9,386.3 94.9,217.1 147.1,213.6 		"/>
		
			<linearGradient id="SVGID_10_" gradientUnits="userSpaceOnUse" x1="120.034" y1="195.6615" x2="134.8249" y2="251.3034" gradientTransform="matrix(1 0 0 1 0 -2.0001)">
			<stop  offset="0" style="stop-color:#FFFFFF"/>
			<stop  offset="1" style="stop-color:#9E9E9E"/>
		</linearGradient>
		<polygon class="st27" points="147.1,213.6 104.1,238.6 104.1,215.6 147.1,190.6 		"/>
		
			<linearGradient id="SVGID_11_" gradientUnits="userSpaceOnUse" x1="116.3335" y1="196.6451" x2="131.1244" y2="252.287" gradientTransform="matrix(1 0 0 1 0 -2.0001)">
			<stop  offset="0" style="stop-color:#FFFFFF"/>
			<stop  offset="1" style="stop-color:#9E9E9E"/>
		</linearGradient>
		<polygon class="st28" points="147.1,190.6 137.9,185.9 94.9,210.8 94.9,233.8 104.1,238.6 104.1,215.6 		"/>
	</g>
	<g id="lightswitch_back">
		<g>
			<g>
				<g>
					<polygon class="st29" points="194.8,343.8 194.2,343.5 194.1,313.7 194.7,314.1 					"/>
				</g>
				<g>
					<polygon class="st30" points="194.7,314.1 194.1,313.7 211.9,303.6 212.5,303.9 					"/>
				</g>
				<g>
					<polygon class="st31" points="212.5,303.9 212.6,333.7 194.8,343.8 194.7,314.1 					"/>
				</g>
			</g>
			<g>
				<g>
					<g>
						<polygon class="st32" points="201,330.1 200.8,330 200.8,320.6 201,320.7 						"/>
					</g>
					<g>
						<polygon class="st32" points="201,320.7 200.8,320.6 206.5,317.3 206.7,317.4 						"/>
					</g>
					<g>
						<polygon class="st33" points="206.7,317.4 206.7,326.9 201,330.1 201,320.7 						"/>
					</g>
				</g>
			</g>
		</g>
		<g>
			<g>
				<g class="st10">
					<g>
						<polygon class="st34" points="203.1,324.5 205.6,323 205.5,319.3 203.1,320.8 						"/>
					</g>
					<g>
						<polygon class="st35" points="205.3,327.8 206.2,324.6 203.1,324.5 203.1,320.8 202.8,321 202.8,328.4 						"/>
					</g>
				</g>
			</g>
			<g>
				<g>
					<g class="st10">
						<g>
							<polygon class="st34" points="205.3,325.1 208,323.5 209,326.8 206.2,328.3 							"/>
						</g>
						<g>
							<polygon class="st30" points="203.1,324.5 205.6,323 208,323.5 205.3,325.1 							"/>
						</g>
						<g>
							<polyline class="st35" points="202.8,328.5 202.8,324.6 205.3,325.1 206.2,328.3 202.8,328.5 							"/>
						</g>
					</g>
				</g>
			</g>
		</g>
	</g>
	
		<linearGradient id="SVGID_12_" gradientUnits="userSpaceOnUse" x1="225.6" y1="455.8" x2="225.6" y2="455.8" gradientTransform="matrix(1 0 0 1 0 -2.0001)">
		<stop  offset="0" style="stop-color:#F1F2F2"/>
		<stop  offset="1" style="stop-color:#BCBEC0"/>
	</linearGradient>
	<path class="st36" d="M225.6,453.8"/>
	
		<linearGradient id="SVGID_13_" gradientUnits="userSpaceOnUse" x1="118.4" y1="517.7001" x2="118.4" y2="517.7001" gradientTransform="matrix(1 0 0 1 0 -2.0001)">
		<stop  offset="0" style="stop-color:#F1F2F2"/>
		<stop  offset="1" style="stop-color:#BCBEC0"/>
	</linearGradient>
	<path class="st37" d="M118.4,515.7"/>
	<g class="st38">
		<g>
			<g class="st10">
				<g>
					<polygon class="st11" points="230.6,475.2 231.6,145.9 358.2,216.2 357.2,545.7 					"/>
				</g>
				<g>
					<polygon class="st11" points="231.6,145.9 233,145 359.6,215.4 358.2,216.2 					"/>
				</g>
				<g>
					<polygon class="st11" points="358.2,216.2 359.6,215.4 358.7,544.9 357.2,545.7 					"/>
				</g>
			</g>
		</g>
	</g>
	<g id="window_back">
		<polygon class="st39" points="544.3,281.2 542.3,219.6 665.5,292.2 667.3,353.8 		"/>
		<g>
			<polygon class="st40" points="527.4,292.8 534.3,288.1 539.3,284.7 544.3,281.2 549,278 547,209.6 542,206.7 536.9,203.7 
				531.6,200.6 529.7,199.5 524.7,202.9 			"/>
		</g>
		<g>
			<polygon class="st40" points="527.4,292.8 673.2,378.7 678.2,375.2 678.1,372.9 677.9,366.4 677.7,359.9 677.6,353.7 
				619.6,319.5 614.3,316.5 609.1,313.4 549,278 544.3,281.2 539.3,284.7 534.3,288.1 			"/>
			<g class="st38">
				<g class="st10">
					<polygon class="st41" points="544.3,281.2 542.3,219.6 665.5,292.2 667.3,353.8 					"/>
					<g>
						<polygon class="st40" points="609.5,326.1 614.5,322.7 544.3,281.3 539.3,284.7 						"/>
					</g>
					<g>
						<polygon class="st39" points="609.6,327.5 614.5,324.1 614.5,322.7 609.5,326.1 						"/>
					</g>
					<g>
						<polygon class="st40" points="539.3,284.7 539.3,284.7 544.3,281.3 544.3,281.2 542,206.7 536.9,203.7 						"/>
					</g>
					<g>
						<polygon class="st39" points="614.8,330.6 619.8,327.1 614.5,324.1 609.6,327.5 						"/>
					</g>
					<g>
						<polygon class="st39" points="614.8,330.6 619.8,327.1 619.7,325.7 614.7,329.2 						"/>
					</g>
					<g>
						<polygon class="st40" points="614.7,329.2 615.9,329.8 677.9,366.4 677.7,359.9 619.7,325.7 618.7,326.5 						"/>
					</g>
					<g>
						<polygon class="st40" points="614.7,329.2 618.7,326.5 619.7,325.7 619.6,319.5 617.5,251.1 612.3,248.1 614.3,316.5 
							614.6,324.1 						"/>
					</g>
					<g>
						<path class="st39" d="M534.3,288.1l143.9,84.8l-0.2-6.5l-62.1-36.6l-1.1-0.7v1.4l-5.2-3.1V326l-70.2-41.4v-0.1l-2.4-81
							l-5.2-3.1L534.3,288.1z"/>
					</g>
					<g>
						<polygon class="st39" points="609.5,326.1 609.6,327.5 614.8,330.6 614.7,329.2 614.6,324.1 614.3,316.5 612.3,248.1 
							607.1,245 609.1,313.4 609.3,319.6 						"/>
					</g>
				</g>
			</g>
		</g>
		<g>
			<path class="st42" d="M678.6,388.2l-156.2-92l-3.1-102.9l156.2,92L678.6,388.2z M527.4,292.8l145.8,85.9l-2.7-89.9l-145.8-85.9
				L527.4,292.8"/>
		</g>
		<g>
			<g class="st10">
				<g>
					<polygon class="st40" points="522.4,296.2 527.4,292.8 524.7,202.9 519.7,206.3 					"/>
				</g>
				<g>
					<polygon class="st40" points="668.2,382.1 673.2,378.7 527.4,292.8 522.4,296.2 					"/>
				</g>
				<g>
					<polygon class="st40" points="673.6,391.6 678.6,388.2 675.5,285.4 670.5,288.8 					"/>
				</g>
				<g>
					<polygon class="st40" points="670.5,288.8 675.5,285.4 519.3,193.3 514.3,196.7 					"/>
				</g>
				<g>
					<path class="st39" d="M673.6,391.6l-156.2-92l-3.1-102.8l156.2,92L673.6,391.6z M522.4,296.2l145.8,85.9l-2.7-89.9l-145.8-85.9
						L522.4,296.2"/>
				</g>
			</g>
		</g>
	</g>
	<g id="toilet">
		<path class="st43" d="M639,491.4c0,0-15.3,21.1-33.4,13.3c-14.3-6.1-10.1-19.2-7.1-24.2c1-1.6,1.8-2.6,3.1-4
			c4.2-4.4,17.2-13.3,30.6-4.6C648.3,482.4,639,491.4,639,491.4z"/>
		
			<linearGradient id="SVGID_14_" gradientUnits="userSpaceOnUse" x1="625.9204" y1="471.3751" x2="616.3242" y2="499.8059" gradientTransform="matrix(1 5.616738e-03 -5.616738e-03 1 0.4432 -5.4191)">
			<stop  offset="0" style="stop-color:#F1F2F2"/>
			<stop  offset="1" style="stop-color:#A7A9AC"/>
		</linearGradient>
		<path class="st44" d="M599.3,491.1l36.5-19c0,0,7.6,4.5-5.2,14.4C617.7,496.4,603.4,496.7,599.3,491.1z"/>
		<path class="st45" d="M599.3,491.1l36.5-19c0,0,1.3,6-10.1,13.5C614.3,493.1,603.3,494.8,599.3,491.1z"/>
		<path class="st46" d="M637.8,469.8c0,0-21.9,29.5-46.3,19.7c-19.4-7.7-13-25.8-8.7-32.7c1.4-2.3,2.5-3.7,4.4-5.6
			c6-6.3,24.1-18.9,42.1-7.7C650.9,457.1,637.8,469.8,637.8,469.8z"/>
		
			<radialGradient id="SVGID_15_" cx="627.5498" cy="466.9502" r="19.44" gradientTransform="matrix(0.9974 7.234246e-02 -7.234246e-02 0.9974 17.0245 -45.7146)" gradientUnits="userSpaceOnUse">
			<stop  offset="0" style="stop-color:#F1F2F2"/>
			<stop  offset="0.3839" style="stop-color:#EFF0F0"/>
			<stop  offset="0.5641" style="stop-color:#E9EAEB"/>
			<stop  offset="0.7018" style="stop-color:#DEDFE1"/>
			<stop  offset="0.8179" style="stop-color:#CFD1D2"/>
			<stop  offset="0.9193" style="stop-color:#BBBDC0"/>
			<stop  offset="1" style="stop-color:#A7A9AC"/>
		</radialGradient>
		<path class="st47" d="M627.7,468.4c0,0-14.6,19.7-30.9,13.1c-12.9-5.2-8.9-17.3-5.8-21.8c0.9-1.3,3.3-4,4.5-5.1
			c4.3-3.9,14.5-11.3,26.5-3.8C636.4,459.9,627.7,468.4,627.7,468.4z"/>
		<path class="st46" d="M653.7,438.8c0,0,15.8-33.1-4.2-50.1c-15.9-13.5-28.8,0.6-32.9,7.6c-1.1,1.9-2.2,4.2-2.9,6.5
			c-2.6,8.3-5.5,30.1,12.9,40.8C648.6,456.3,653.7,438.8,653.7,438.8z"/>
		
			<linearGradient id="SVGID_16_" gradientUnits="userSpaceOnUse" x1="661.4905" y1="450.6053" x2="664.1573" y2="452.2875" gradientTransform="matrix(0.842 -7.760885e-03 -0.1387 0.9632 126.1746 10.5663)">
			<stop  offset="0" style="stop-color:#FFFFFF"/>
			<stop  offset="1" style="stop-color:#939598"/>
		</linearGradient>
		<path class="st48" d="M622.5,441.3l-2.2-1.1c-0.1,0-0.1-0.1-0.1-0.2l0.4-0.7c0-0.1,0.1-0.1,0.2-0.1l2.2,1.1c0.1,0,0.1,0.1,0.1,0.2
			l-0.4,0.7C622.7,441.3,622.6,441.4,622.5,441.3z"/>
		
			<linearGradient id="SVGID_17_" gradientUnits="userSpaceOnUse" x1="680.6614" y1="463.9884" x2="684.3409" y2="465.7054" gradientTransform="matrix(0.8546 -2.451519e-02 -0.1548 0.9415 122.5846 25.8855)">
			<stop  offset="0" style="stop-color:#FFFFFF"/>
			<stop  offset="1" style="stop-color:#939598"/>
		</linearGradient>
		<path class="st49" d="M634.5,448l-2.4-1.6c-0.1-0.1-0.1-0.2,0-0.2l0.5-0.8c0.1-0.1,0.2-0.1,0.2,0l2.4,1.6c0.1,0.1,0.1,0.2,0,0.2
			l-0.5,0.8C634.7,448,634.6,448.1,634.5,448z"/>
	</g>
	
		<linearGradient id="SVGID_18_" gradientUnits="userSpaceOnUse" x1="237.4" y1="127.9001" x2="237.4" y2="127.9001" gradientTransform="matrix(1 0 0 1 0 -2.0001)">
		<stop  offset="0" style="stop-color:#F1F2F2"/>
		<stop  offset="1" style="stop-color:#BCBEC0"/>
	</linearGradient>
	<path class="st50" d="M237.4,125.9"/>
	<path class="st51" d="M124.8,472.3"/>
	<g id="outlet">
		<g>
			<g>
				<g>
					<polygon class="st29" points="29.3,477 28.6,476.6 28.6,441 29.2,441.4 					"/>
				</g>
				<g>
					<polygon class="st30" points="29.2,441.4 28.6,441 49.7,428.9 50.4,429.4 					"/>
				</g>
				<g>
					<polygon class="st31" points="50.4,429.4 50.6,464.8 29.4,477 29.3,441.4 					"/>
				</g>
			</g>
			<g>
				<g class="st10">
					<g>
						<path class="st30" d="M43.4,448.7L44,449c-0.7-0.5-1.8-0.4-3,0.2l-0.6-0.4C41.6,448.2,42.7,448.2,43.4,448.7z"/>
					</g>
					<g>
						<path class="st30" d="M37.9,459.5l-0.6-0.4c-0.7-0.5-1.2-1.3-1.2-2.8c0-2.8,1.9-6.1,4.3-7.4l0.6,0.4c-2.4,1.3-4.3,4.7-4.3,7.4
							C36.7,458,37.2,459,37.9,459.5z"/>
					</g>
					<g>
						<path class="st52" d="M41,449.3c2.4-1.3,4.4-0.2,4.4,2.4c0,2.8-1.9,6.1-4.3,7.4c-2.4,1.3-4.4,0.2-4.4-2.4S38.7,450.6,41,449.3
							z"/>
					</g>
					<g>
						<path d="M39.4,455.2c0.4-0.1,0.6,0,0.6,0.4s-0.2,0.7-0.6,1c-0.4,0.1-0.6,0-0.6-0.4S39,455.4,39.4,455.2z"/>
					</g>
					<g>
						<path d="M42.8,452.8c0.4-0.1,0.6,0,0.6,0.4s-0.2,0.7-0.6,1c-0.4,0.1-0.6,0-0.6-0.4S42.4,453,42.8,452.8z"/>
					</g>
				</g>
			</g>
		</g>
	</g>
	<path class="st53" d="M53.9,461.4"/>
</g>
<g id="gui">
	<g id="lightswitch">
		<g>
			<g>
				<g>
					<polygon class="st29" points="194.8,343.8 194.2,343.5 194.1,313.7 194.7,314.1 					"/>
				</g>
				<g>
					<polygon class="st30" points="194.7,314.1 194.1,313.7 211.8,303.6 212.4,303.9 					"/>
				</g>
				<g>
					<polygon class="st31" points="212.4,303.9 212.5,333.7 194.8,343.8 194.7,314.1 					"/>
				</g>
			</g>
			<g>
				<g>
					<g>
						<polygon class="st32" points="201,330.1 200.8,330 200.8,320.5 200.9,320.6 						"/>
					</g>
					<g>
						<polygon class="st32" points="200.9,320.6 200.8,320.5 206.4,317.3 206.6,317.4 						"/>
					</g>
					<g>
						<polygon class="st33" points="206.6,317.4 206.6,326.9 201,330.1 200.9,320.6 						"/>
					</g>
				</g>
			</g>
		</g>
		<g>
			<g>
				<g class="st10">
					<g>
						<polygon class="st54" points="202.7,324.7 205.5,323.1 205.5,326.8 202.7,328.4 						"/>
					</g>
					<g>
						<polygon class="st34" points="204.9,321.3 207.7,319.7 208.6,322.9 205.9,324.5 						"/>
					</g>
					<g>
						<polygon class="st30" points="202.4,320.8 205.2,319.2 207.7,319.7 204.9,321.3 						"/>
					</g>
					<g>
						<polygon class="st35" points="204.9,321.3 205.9,324.5 202.7,324.7 202.7,328.4 202.4,328.1 202.4,320.8 						"/>
					</g>
				</g>
			</g>
		</g>
	</g>
	<g id="shower">
		<g id="shower_drops_2_">
			<g id="showerdrop4">
				<g id="drio3_6_">
					<g class="st10">
						<g>
							<path class="st55" d="M413,160.5c0.2,0.1,3.5,3,3.7,5.2c0.4,2.8-1.4,5.7-3.7,7c-2.3,1.3-4.1,0.6-3.7-2.7
								C409.6,167.5,412.9,160.8,413,160.5z"/>
						</g>
						<g>
							<path class="st56" d="M410.3,173.1l-3.1-1.8c-0.7-0.4-1.1-1.4-0.9-3.1c0.3-2.5,3.6-9.2,3.7-9.5l3.1,1.8
								c-0.2,0.4-3.4,7.1-3.7,9.5C409.1,171.6,409.5,172.6,410.3,173.1z"/>
						</g>
					</g>
				</g>
			</g>
			<g id="showerdrop3">
				<g id="drio3_3_">
					<g class="st10">
						<g>
							<path class="st55" d="M426,172.1c0.2,0.1,3.5,3,3.7,5.2c0.4,2.8-1.4,5.7-3.7,7c-2.3,1.3-4.1,0.6-3.7-2.7
								C422.6,179.2,425.9,172.4,426,172.1z"/>
						</g>
						<g>
							<path class="st56" d="M423.2,184.7l-3.1-1.8c-0.7-0.4-1.1-1.4-0.9-3.1c0.3-2.5,3.6-9.2,3.7-9.5l3.1,1.8
								c-0.2,0.4-3.4,7.1-3.7,9.5C422.1,183.3,422.5,184.3,423.2,184.7z"/>
						</g>
					</g>
				</g>
			</g>
			<g id="showerdrop2">
				<g id="drio3_2_">
					<g class="st10">
						<g>
							<path class="st55" d="M400.3,173.3c0.2,0.1,3.5,3,3.7,5.2c0.4,2.8-1.4,5.7-3.7,7c-2.3,1.3-4.1,0.6-3.7-2.7
								C396.9,180.4,400.2,173.6,400.3,173.3z"/>
						</g>
						<g>
							<path class="st56" d="M397.6,185.9l-3.1-1.8c-0.7-0.4-1.1-1.4-0.9-3.1c0.3-2.5,3.6-9.2,3.7-9.5l3.1,1.8
								c-0.2,0.4-3.4,7.1-3.7,9.5C396.4,184.5,396.8,185.5,397.6,185.9z"/>
						</g>
					</g>
				</g>
			</g>
			<g id="showerdrop1">
				<g id="drio3_4_">
					<g class="st10">
						<g>
							<path class="st55" d="M414.1,186.4c0.2,0.1,3.5,3,3.7,5.2c0.4,2.8-1.4,5.7-3.7,7c-2.3,1.3-4.1,0.6-3.7-2.7
								C410.7,193.5,413.9,186.8,414.1,186.4z"/>
						</g>
						<g>
							<path class="st56" d="M411.3,199l-3.1-1.8c-0.7-0.4-1.1-1.4-0.9-3.1c0.3-2.5,3.6-9.2,3.7-9.5l3.1,1.8
								c-0.2,0.4-3.4,7.1-3.7,9.5C410.2,197.6,410.6,198.6,411.3,199z"/>
						</g>
					</g>
				</g>
			</g>
		</g>
		<g id="shower_head">
			<g class="st10">
				<g>
					
						<linearGradient id="SVGID_19_" gradientUnits="userSpaceOnUse" x1="358.1" y1="181.4001" x2="471.4" y2="181.4001" gradientTransform="matrix(1 0 0 1 0 -2.0001)">
						<stop  offset="0" style="stop-color:#F1F2F2"/>
						<stop  offset="1" style="stop-color:#BCBEC0"/>
					</linearGradient>
					<polygon class="st57" points="471.4,179.4 414.9,212.2 358.1,179.4 414.6,146.6 					"/>
				</g>
				<g>
					
						<linearGradient id="SVGID_20_" gradientUnits="userSpaceOnUse" x1="414.9" y1="200.8501" x2="471.4" y2="200.8501" gradientTransform="matrix(1 0 0 1 0 -2.0001)">
						<stop  offset="0" style="stop-color:#F1F2F2"/>
						<stop  offset="1" style="stop-color:#BCBEC0"/>
					</linearGradient>
					<polygon class="st58" points="471.4,179.4 471.3,185.5 414.9,218.3 414.9,212.2 					"/>
				</g>
				<g>
					<polygon class="st2" points="414.9,212.2 414.9,218.3 358.1,185.5 358.1,179.4 					"/>
				</g>
			</g>
			<g>
				<g>
					
						<linearGradient id="SVGID_21_" gradientUnits="userSpaceOnUse" x1="356.7" y1="161.1501" x2="414.7" y2="161.1501" gradientTransform="matrix(1 0 0 1 0 -2.0001)">
						<stop  offset="0" style="stop-color:#F1F2F2"/>
						<stop  offset="1" style="stop-color:#BCBEC0"/>
					</linearGradient>
					<polygon class="st59" points="405.7,175.4 356.7,148.4 365.7,142.9 414.7,170 					"/>
					<polygon class="st2" points="356.7,148.4 356.7,152.3 405.7,179.4 405.7,175.4 					"/>
				</g>
				
					<linearGradient id="SVGID_22_" gradientUnits="userSpaceOnUse" x1="405.7" y1="176.7001" x2="414.7" y2="176.7001" gradientTransform="matrix(1 0 0 1 0 -2.0001)">
					<stop  offset="0" style="stop-color:#F1F2F2"/>
					<stop  offset="1" style="stop-color:#BCBEC0"/>
				</linearGradient>
				<polygon class="st60" points="405.7,175.4 405.7,179.4 414.7,173.9 414.7,170 				"/>
			</g>
		</g>
	</g>
	<g id="sink_2_">
		<path class="st61" d="M184.4,417c0,0-4.5,19.9-39.7,20.7c0,0-34.1,0.1-40.5-21.1c0,0-2.9,25,17,31.9c0,0,21,10.8,45.7-1
			c5.2-2.5,10.1-7.9,13-12.8c1.4-2.4,2.3-4.7,3-7.4C183.8,424.1,183.6,420,184.4,417z"/>
		<path class="st22" d="M142.8,451.8"/>
		<path class="st22" d="M108.4,432.6c0-10.6,15.4-19.1,34.5-19.1c19,0,34.5,8.6,34.5,19.1"/>
		
			<radialGradient id="SVGID_23_" cx="143.2687" cy="423.5566" r="41.3472" gradientTransform="matrix(1.0211 0 0 0.4811 -2.5446 223.0495)" gradientUnits="userSpaceOnUse">
			<stop  offset="0" style="stop-color:#E6E7E8"/>
			<stop  offset="1" style="stop-color:#D1D3D4"/>
		</radialGradient>
		<ellipse class="st62" cx="144" cy="413.2" rx="36.7" ry="20.3"/>
		<path id="sink_water" class="st63" d="M152.1,434.3c0-2-3.1-4.1-6.1-4.1s-5.6,2.5-5.6,4.5c0,0,2,0.2,5.8,0
			C150.1,434.5,152.1,434.3,152.1,434.3z"/>
		
			<radialGradient id="SVGID_24_" cx="144.088" cy="406.8378" r="20.4666" fx="142.6237" fy="407.0163" gradientTransform="matrix(1 0 0 -1 0 839.8898)" gradientUnits="userSpaceOnUse">
			<stop  offset="5.154639e-03" style="stop-color:#E6E7E8"/>
			<stop  offset="1" style="stop-color:#D1D3D4"/>
		</radialGradient>
		<path class="st64" d="M184.4,417c0,0-4.8,18.2-40,18.9c0,0-34.1,0.1-40.5-21.1c0,0-2.7,24.6,17.1,32.2c0,0,20.8,10.5,45.5-1.3
			c5.2-2.5,10-7.4,13-12.3c1.4-2.4,2.8-4.8,3.6-7.5C184.2,422.9,183.6,420,184.4,417z"/>
		<path class="st65" d="M144.4,436.6c-22.7,0-40.5-10.3-40.5-23.4s17.8-23.4,40.5-23.4s40.5,10.3,40.5,23.4S167.1,436.6,144.4,436.6
			z M144.4,393.9c-19.7,0-36.4,8.8-36.4,19.3c0,10.4,16.7,19.3,36.4,19.3s36.4-8.8,36.4-19.3C180.7,402.7,164.1,393.9,144.4,393.9z"
			/>
		<g id="sink_drops_2_">
			<g id="drop2">
				<g class="st10">
					<g>
						<path class="st55" d="M150.9,403.3c0.1,0.1,2.3,2,2.4,3.4c0.2,1.9-0.9,3.7-2.4,4.6s-2.6,0.4-2.4-1.8
							C148.8,407.9,150.8,403.5,150.9,403.3z"/>
					</g>
					<g>
						<path class="st56" d="M149.2,411.5l-2.1-1.2c-0.4-0.2-0.7-0.9-0.5-2c0.2-1.6,2.3-5.9,2.4-6.1l2.1,1.2
							c-0.1,0.2-2.2,4.6-2.4,6.1C148.4,410.5,148.6,411.2,149.2,411.5z"/>
					</g>
				</g>
			</g>
			<g id="drop1_2_">
				<g class="st10">
					<g>
						<path class="st55" d="M150.9,403.5c0.1,0.1,2.3,2,2.4,3.4c0.2,1.9-0.9,3.7-2.4,4.6s-2.6,0.4-2.4-1.8
							C148.7,408.1,150.8,403.7,150.9,403.5z"/>
					</g>
					<g>
						<path class="st56" d="M149.1,411.6l-2.1-1.2c-0.4-0.2-0.7-0.9-0.5-2c0.2-1.6,2.3-5.9,2.4-6.1l2.1,1.2
							c-0.1,0.2-2.2,4.6-2.4,6.1C148.4,410.7,148.6,411.4,149.1,411.6z"/>
					</g>
				</g>
			</g>
		</g>
		<g>
			<g>
				
					<linearGradient id="SVGID_25_" gradientUnits="userSpaceOnUse" x1="112.1" y1="400.8501" x2="160.1" y2="400.8501" gradientTransform="matrix(1 0 0 1 0 -2.0001)">
					<stop  offset="0" style="stop-color:#F1F2F2"/>
					<stop  offset="1" style="stop-color:#BCBEC0"/>
				</linearGradient>
				<polygon class="st66" points="152.7,412.3 112.1,389.9 119.5,385.4 160.1,407.7 				"/>
				<polygon class="st2" points="112.1,389.9 112.1,393.2 152.7,415.5 152.7,412.3 				"/>
			</g>
			
				<linearGradient id="SVGID_26_" gradientUnits="userSpaceOnUse" x1="152.6687" y1="413.6001" x2="160.1247" y2="413.6001" gradientTransform="matrix(1 0 0 1 0 -2.0001)">
				<stop  offset="0" style="stop-color:#F1F2F2"/>
				<stop  offset="1" style="stop-color:#BCBEC0"/>
			</linearGradient>
			<polygon class="st67" points="152.7,412.3 152.7,415.5 160.1,411.1 160.1,407.7 			"/>
		</g>
		<path class="st65" d="M108.5,413.7"/>
	</g>
	<g id="window_1_">
		<polygon class="st39" points="544.7,281.4 542.7,219.9 665.5,292.3 667.4,353.9 		"/>
		<g>
			<polygon class="st40" points="527.9,293 534.7,288.3 539.7,284.8 544.7,281.4 549.4,278.2 547.4,209.9 542.4,207 537.3,204 
				532,200.9 530.1,199.8 525.2,203.2 			"/>
		</g>
		<g>
			<polygon class="st40" points="538.6,287.4 677.9,371.3 677.9,368.8 677.3,365 677.2,357.6 677.5,352.5 676.9,341.4 630.4,314 
				625.2,311 620,307.9 560.1,272.6 555.4,275.8 550.4,279.2 545.4,282.7 			"/>
			<g>
				<g class="st10">
					<g>
						<g id="window_outside_2_" class="st10">
							<g>
								<polygon class="st68" points="616.5,331.1 621.4,327.6 546.2,283.3 541.2,286.7 								"/>
							</g>
							<g>
								<polygon class="st68" points="541.2,286.6 541.2,286.7 546.2,283.3 546.2,283.2 543.9,208.8 538.8,205.8 								"/>
							</g>
							<g>
								<polygon class="st68" points="616.5,332.4 621.5,329 621.4,327.6 616.5,331.1 								"/>
							</g>
							<g>
								<polygon class="st68" points="616.5,331 617.6,331.7 677.6,367.6 677.4,360.5 621.4,327.6 620.4,328.4 								"/>
							</g>
							<g>
								<path class="st68" d="M611.2,328l-70-41.3v-0.1l-2.4-80.8l-5.2-3.1l2.6,87.4l141.9,82.8l-0.6-5.2l-60-35.9l-1.1-0.6"/>
							</g>
						</g>
					</g>
					<polygon class="st41" points="555.4,275.8 544.3,211.7 673.2,287.8 677.4,347.9 					"/>
					<g>
						<polygon class="st40" points="620.4,320.6 625.4,317.2 555.4,275.9 550.4,279.3 						"/>
					</g>
					<g>
						<polygon class="st39" points="620.5,322 625.4,318.6 625.4,317.2 620.4,320.6 						"/>
					</g>
					<g>
						<polygon class="st40" points="550.4,279.2 550.4,279.3 555.4,275.9 555.4,275.8 545.8,209 539.8,208.8 						"/>
					</g>
					<g>
						<polygon class="st39" points="625.7,325.1 630.6,321.6 625.4,318.6 620.5,322 						"/>
					</g>
					<g>
						<polygon class="st39" points="625.7,325.1 630.6,321.6 630.6,320.3 625.6,323.7 						"/>
					</g>
					<g>
						<polygon class="st40" points="625.6,323.7 626.8,324.3 677.2,354.1 677.4,347.9 630.6,320.2 629.5,321 						"/>
					</g>
					<g>
						<polygon class="st40" points="625.9,324.2 629.6,321.2 630.6,320.4 630,314.2 624.3,255.3 618.9,252.2 624.6,311.5 
							625.4,319.1 						"/>
					</g>
					<g>
						<path class="st39" d="M545.4,282.7l132,77.9l0.2-6.2l-50.8-30l-1.1-0.6v1.4l-5.2-3.1v-1.4l-70-41.3v-0.1l-11.1-73.2l-5.7-3.4
							L545.4,282.7z"/>
					</g>
					<g>
						<polygon class="st39" points="620.5,321.4 620.6,322.8 626,325.6 625.9,324.2 625.4,319.1 624.6,311.5 618.9,252.2 
							613.4,248.8 619.2,308.8 619.9,315 						"/>
					</g>
				</g>
			</g>
		</g>
		<g>
			<path class="st42" d="M678.6,388.2l-155.7-91.9l-3.1-102.7l155.7,91.9L678.6,388.2z M527.9,293l145.3,85.7l-2.7-89.8l-145.3-85.7
				L527.9,293"/>
		</g>
		<g>
			<g class="st10">
				<g>
					<polygon class="st40" points="522.9,296.4 527.9,293 525.2,203.2 520.2,206.6 					"/>
				</g>
				<g>
					<polygon class="st40" points="668.2,382.1 673.2,378.7 527.9,293 522.9,296.4 					"/>
				</g>
				<g>
					<polygon class="st40" points="673.6,391.6 678.6,388.2 675.5,285.5 670.5,289 					"/>
				</g>
				<g>
					<polygon class="st40" points="670.5,289 675.5,285.5 519.8,193.7 514.8,197.1 					"/>
				</g>
				<g>
					<path class="st39" d="M673.6,391.6l-155.7-91.9L514.8,197l155.7,92L673.6,391.6z M522.9,296.4l145.3,85.7l-2.7-89.8
						l-145.3-85.7L522.9,296.4"/>
				</g>
			</g>
		</g>
	</g>
	<g id="washer_2_">
		<g>
			<g class="st10">
				<g>
					<polygon class="st69" points="727.5,518.2 799.6,476.4 799.3,587.1 727.2,628.9 					"/>
				</g>
				<g>
					<polygon class="st22" points="636.1,465.5 708.2,423.6 799.6,476.4 727.5,518.2 					"/>
				</g>
				<g>
					<polygon class="st70" points="727.5,518.2 727.2,628.9 635.8,576.2 636.1,465.5 					"/>
				</g>
			</g>
		</g>
		<g class="st10">
			<g class="st10">
				<g>
					<polygon class="st71" points="724.5,518.7 724.4,529.3 638.9,480 638.9,469.3 					"/>
				</g>
			</g>
			<g>
				<path class="st72" d="M692.5,502.5v4.2c0,1.3-1.4,2.1-2.5,1.4l-18.4-10.6c-0.5-0.3-0.8-0.8-0.8-1.4v-4.2c0-1.3,1.4-2.1,2.5-1.4
					l18.4,10.6C692.2,501.3,692.5,501.9,692.5,502.5z"/>
			</g>
		</g>
		<g id="inner_washer">
			<g>
				<g class="st10">
					<g>
						<g>
							
								<linearGradient id="SVGID_27_" gradientUnits="userSpaceOnUse" x1="668.3799" y1="512.7777" x2="696.9526" y2="582.8153" gradientTransform="matrix(1 0 0 1 0 -2.0001)">
								<stop  offset="0" style="stop-color:#E6E7E8"/>
								<stop  offset="1" style="stop-color:#BCBEC0"/>
							</linearGradient>
							<path class="st73" d="M659.2,517.9l5.6-3.2c4.6-2.7,11-2.3,18,1.8l-5.6,3.2C670.2,515.6,663.8,515.3,659.2,517.9z"/>
						</g>
						<g>
							
								<linearGradient id="SVGID_28_" gradientUnits="userSpaceOnUse" x1="677.5986" y1="509.0168" x2="706.1711" y2="579.0544" gradientTransform="matrix(1 0 0 1 0 -2.0001)">
								<stop  offset="0" style="stop-color:#E6E7E8"/>
								<stop  offset="1" style="stop-color:#BCBEC0"/>
							</linearGradient>
							<path class="st74" d="M700.7,576.5l-5.6,3.2c4.5-2.6,7.4-8.3,7.4-16.3c0-16.1-11.3-35.7-25.3-43.7l5.6-3.2
								c14,8.1,25.3,27.7,25.3,43.7C708,568.2,705.2,573.8,700.7,576.5z"/>
						</g>
					</g>
					<g>
						
							<ellipse transform="matrix(0.8646 -0.5025 0.5025 0.8646 -184.0774 414.565)" class="st16" cx="677.1" cy="548.8" rx="20.7" ry="35.7"/>
					</g>
				</g>
			</g>
			<g>
				<g class="st10">
					<g>
						
							<ellipse transform="matrix(0.8646 -0.5025 0.5025 0.8646 -184.172 414.2134)" class="st22" cx="676.4" cy="548.8" rx="15.2" ry="26.3"/>
					</g>
				</g>
			</g>
			<path class="st75" d="M693.8,566.8c0,0-2.1,6.6-10.4,6c-2.2-0.2-4.4-1.2-4.5-1.2c-4.5-1.8-6.7-4.3-9.5-6.8
				c-3.8-3.4-6.1-7.7-8.3-12.1c-4.8-9.8-3.1-18.6-3.1-18.6s1.1-6.7,6.8-8.7c0,0,2.7-1.6,8.8,0.7c0,0-3.8,4.6-6.3,11.2
				c-2.4,6.4,0.3,13,4.1,17.9c3.1,4,5.9,6.7,9.6,8.5C684.3,565.2,688.2,566.1,693.8,566.8z"/>
		</g>
		<g>
			<g class="st10">
				<g>
					<polygon class="st76" points="665.6,485.6 665.6,494.7 641.7,480.9 641.8,471.8 					"/>
				</g>
			</g>
			<g>
				<g>
					<g class="st10">
						<g class="st10">
							<g>
								<g>
									<defs>
										<path id="SVGID_29_" d="M649.7,480.7L649.7,480.7c0.2-0.1,0.3-0.1,0.4,0H650C649.9,480.6,649.8,480.6,649.7,480.7z"/>
									</defs>
									<clipPath id="SVGID_30_">
										<use xlink:href="#SVGID_29_"  style="overflow:visible;"/>
									</clipPath>
									<g class="st77">
										<path class="st78" d="M649.7,480.7L649.7,480.7c0.1,0,0.1-0.1,0.1-0.1L649.7,480.7C649.7,480.6,649.7,480.7,649.7,480.7"
											/>
										<path class="st79" d="M649.7,480.6L649.7,480.6c0.1,0,0.1,0,0.1-0.1L649.7,480.6C649.8,480.6,649.7,480.6,649.7,480.6"/>
										<path class="st80" d="M649.8,480.6L649.8,480.6C649.8,480.6,649.9,480.6,649.8,480.6L649.8,480.6L649.8,480.6"/>
										<path class="st81" d="M649.8,480.6L649.8,480.6C649.9,480.6,649.9,480.6,649.8,480.6L649.8,480.6L649.8,480.6"/>
										<path class="st82" d="M649.8,480.6L649.8,480.6C649.9,480.6,649.9,480.6,649.8,480.6L649.8,480.6L649.8,480.6"/>
										<path class="st83" d="M649.8,480.6L649.8,480.6C649.9,480.6,649.9,480.6,649.8,480.6L649.8,480.6
											C649.9,480.6,649.8,480.6,649.8,480.6"/>
										<path class="st84" d="M649.9,480.6L649.9,480.6L649.9,480.6L649.9,480.6L649.9,480.6"/>
										<path class="st85" d="M649.9,480.6L649.9,480.6C650,480.6,650,480.6,649.9,480.6L649.9,480.6L649.9,480.6"/>
										<path class="st86" d="M649.9,480.6L649.9,480.6C650,480.6,650,480.6,649.9,480.6L649.9,480.6L649.9,480.6"/>
										<path class="st87" d="M649.9,480.6L649.9,480.6C650,480.6,650,480.6,649.9,480.6L649.9,480.6L649.9,480.6"/>
										<path class="st88" d="M649.9,480.6L649.9,480.6C650,480.6,650,480.6,649.9,480.6L649.9,480.6
											C650,480.7,650,480.6,649.9,480.6"/>
										<path class="st89" d="M650,480.7L650,480.7C650,480.6,650.1,480.6,650,480.7L650,480.7L650,480.7"/>
										<path class="st90" d="M650,480.7L650,480.7C650.1,480.6,650.1,480.6,650,480.7L650,480.7L650,480.7"/>
										<path class="st91" d="M650,480.7L650,480.7C650.1,480.6,650.1,480.6,650,480.7L650,480.7L650,480.7"/>
										<path class="st92" d="M650,480.7L650,480.7C650.1,480.6,650.1,480.6,650,480.7L650,480.7L650,480.7"/>
									</g>
								</g>
							</g>
						</g>
						<g class="st10">
							<g>
								<g>
									<defs>
										<path id="SVGID_31_" d="M655.8,487.8L655.8,487.8c0,0,0.1-0.1,0.1-0.3h0.1C656,487.6,655.9,487.7,655.8,487.8z"/>
									</defs>
									<clipPath id="SVGID_32_">
										<use xlink:href="#SVGID_31_"  style="overflow:visible;"/>
									</clipPath>
									<g class="st93">
										<polyline class="st88" points="655.9,487.5 656,487.4 656,487.4 655.9,487.5 655.9,487.5 										"/>
										<path class="st87" d="M655.9,487.5L655.9,487.5C656,487.5,656,487.5,655.9,487.5L655.9,487.5L655.9,487.5"/>
										<path class="st86" d="M655.9,487.5L655.9,487.5C656,487.5,656,487.5,655.9,487.5L655.9,487.5L655.9,487.5"/>
										<path class="st85" d="M655.9,487.5L655.9,487.5C656,487.5,656,487.5,655.9,487.5L655.9,487.5L655.9,487.5"/>
										<path class="st84" d="M655.9,487.6L655.9,487.6C656,487.5,656,487.5,655.9,487.6L655.9,487.6L655.9,487.6"/>
										<path class="st83" d="M655.9,487.6L655.9,487.6C656,487.5,656,487.6,655.9,487.6L655.9,487.6L655.9,487.6"/>
										<path class="st82" d="M655.9,487.6L655.9,487.6C656,487.6,656,487.6,655.9,487.6L655.9,487.6L655.9,487.6"/>
										<path class="st81" d="M655.9,487.6L655.9,487.6L655.9,487.6L655.9,487.6L655.9,487.6"/>
										<path class="st80" d="M655.9,487.7L655.9,487.7C655.9,487.6,655.9,487.6,655.9,487.7L655.9,487.7L655.9,487.7"/>
										<path class="st79" d="M655.9,487.7L655.9,487.7L655.9,487.7L655.9,487.7C655.8,487.7,655.9,487.7,655.9,487.7"/>
										<path class="st78" d="M655.8,487.7L655.8,487.7C655.9,487.7,655.9,487.7,655.8,487.7L655.8,487.7
											C655.8,487.8,655.8,487.8,655.8,487.7"/>
									</g>
								</g>
							</g>
						</g>
						<g>
							<polygon class="st94" points="655.9,484.7 656,484.6 656,487.4 655.9,487.5 							"/>
						</g>
						<g>
							<polygon class="st95" points="650,480.7 650.1,480.7 655.5,483.7 655.4,483.8 							"/>
						</g>
						<g>
							<path class="st96" d="M655.4,483.8c0.3,0.2,0.5,0.6,0.5,0.9v2.8c0,0.3-0.2,0.4-0.5,0.3l-5.4-3.1c-0.3-0.2-0.5-0.5-0.5-0.9
								V481c0-0.3,0.2-0.5,0.5-0.3L655.4,483.8z"/>
						</g>
						<g class="st10">
							<g>
								<g>
									<defs>
										<path id="SVGID_33_" d="M655.4,483.8L655.4,483.8c0.4,0.1,0.6,0.5,0.6,0.8h-0.1C655.9,484.3,655.7,483.9,655.4,483.8z"/>
									</defs>
									<clipPath id="SVGID_34_">
										<use xlink:href="#SVGID_33_"  style="overflow:visible;"/>
									</clipPath>
									<g class="st97">
										<polyline class="st92" points="655.4,483.8 655.5,483.7 655.5,483.7 655.4,483.8 655.4,483.8 										"/>
										<path class="st98" d="M655.4,483.8L655.4,483.8C655.5,483.8,655.5,483.8,655.4,483.8L655.4,483.8L655.4,483.8"/>
										<path class="st99" d="M655.4,483.8L655.4,483.8C655.5,483.8,655.5,483.8,655.4,483.8L655.4,483.8L655.4,483.8"/>
										<path class="st100" d="M655.4,483.8L655.4,483.8C655.5,483.8,655.5,483.8,655.4,483.8L655.4,483.8
											C655.5,483.8,655.5,483.8,655.4,483.8"/>
										<path class="st101" d="M655.5,483.8L655.5,483.8C655.5,483.8,655.6,483.8,655.5,483.8L655.5,483.8L655.5,483.8"/>
										<path class="st102" d="M655.5,483.8L655.5,483.8C655.6,483.8,655.6,483.8,655.5,483.8L655.5,483.8
											C655.5,483.9,655.5,483.9,655.5,483.8"/>
										<path class="st103" d="M655.5,483.9L655.5,483.9C655.6,483.8,655.6,483.8,655.5,483.9L655.5,483.9L655.5,483.9"/>
										<path class="st104" d="M655.5,483.9L655.5,483.9C655.6,483.9,655.6,483.9,655.5,483.9L655.5,483.9
											C655.6,483.9,655.5,483.9,655.5,483.9"/>
										<path class="st105" d="M655.6,483.9L655.6,483.9L655.6,483.9L655.6,483.9L655.6,483.9"/>
										<path class="st106" d="M655.6,483.9L655.6,483.9C655.7,483.9,655.7,483.9,655.6,483.9L655.6,483.9L655.6,483.9"/>
										<path class="st107" d="M655.6,484L655.6,484C655.7,483.9,655.7,483.9,655.6,484L655.6,484L655.6,484"/>
										<path class="st108" d="M655.6,484L655.6,484C655.7,483.9,655.7,483.9,655.6,484L655.6,484L655.6,484"/>
										<path class="st109" d="M655.6,484L655.6,484C655.7,484,655.7,484,655.6,484L655.6,484C655.7,484,655.6,484,655.6,484"/>
										<path class="st110" d="M655.7,484L655.7,484L655.7,484L655.7,484L655.7,484"/>
										<path class="st111" d="M655.7,484L655.7,484C655.8,484,655.8,484,655.7,484L655.7,484C655.7,484.1,655.7,484.1,655.7,484"
											/>
										<path class="st112" d="M655.7,484.1L655.7,484.1C655.8,484.1,655.8,484.1,655.7,484.1L655.7,484.1L655.7,484.1"/>
										<path class="st111" d="M655.8,484.2L655.8,484.2C655.8,484.1,655.8,484.1,655.8,484.2L655.8,484.2L655.8,484.2"/>
										<path class="st110" d="M655.8,484.2L655.8,484.2C655.9,484.2,655.9,484.2,655.8,484.2L655.8,484.2L655.8,484.2"/>
										<path class="st109" d="M655.8,484.2L655.8,484.2C655.9,484.2,655.9,484.2,655.8,484.2L655.8,484.2
											C655.8,484.3,655.8,484.2,655.8,484.2"/>
										<path class="st108" d="M655.8,484.3L655.8,484.3C655.9,484.2,655.9,484.2,655.8,484.3L655.8,484.3L655.8,484.3"/>
										<path class="st107" d="M655.8,484.3L655.8,484.3C655.9,484.3,655.9,484.3,655.8,484.3L655.8,484.3L655.8,484.3"/>
										<path class="st106" d="M655.8,484.3L655.8,484.3C655.9,484.3,655.9,484.3,655.8,484.3L655.8,484.3L655.8,484.3"/>
										<path class="st105" d="M655.8,484.3L655.8,484.3C655.9,484.3,655.9,484.3,655.8,484.3L655.8,484.3
											C655.8,484.4,655.8,484.3,655.8,484.3"/>
										<path class="st104" d="M655.9,484.4L655.9,484.4C655.9,484.3,655.9,484.3,655.9,484.4L655.9,484.4L655.9,484.4"/>
										<path class="st103" d="M655.9,484.4L655.9,484.4L655.9,484.4L655.9,484.4L655.9,484.4"/>
										<path class="st102" d="M655.9,484.4L655.9,484.4L655.9,484.4L655.9,484.4L655.9,484.4"/>
										<path class="st101" d="M655.9,484.4L655.9,484.4C655.9,484.4,656,484.4,655.9,484.4L655.9,484.4
											C655.9,484.5,655.9,484.4,655.9,484.4"/>
										<path class="st100" d="M655.9,484.5L655.9,484.5C656,484.4,656,484.4,655.9,484.5L655.9,484.5L655.9,484.5"/>
										<path class="st99" d="M655.9,484.5L655.9,484.5C656,484.5,656,484.5,655.9,484.5L655.9,484.5L655.9,484.5"/>
										<path class="st98" d="M655.9,484.5L655.9,484.5C656,484.5,656,484.5,655.9,484.5L655.9,484.5L655.9,484.5"/>
										<path class="st92" d="M655.9,484.5L655.9,484.5C656,484.5,656,484.5,655.9,484.5L655.9,484.5
											C655.9,484.6,655.9,484.6,655.9,484.5"/>
										<path class="st91" d="M655.9,484.6L655.9,484.6C656,484.5,656,484.5,655.9,484.6L655.9,484.6L655.9,484.6"/>
										<path class="st90" d="M655.9,484.6L655.9,484.6C656,484.6,656,484.6,655.9,484.6L655.9,484.6L655.9,484.6"/>
										<path class="st89" d="M655.9,484.6L655.9,484.6C656,484.6,656,484.6,655.9,484.6L655.9,484.6L655.9,484.6"/>
										<path class="st88" d="M655.9,484.6L655.9,484.6C656,484.6,656,484.6,655.9,484.6L655.9,484.6
											C655.9,484.7,655.9,484.7,655.9,484.6"/>
									</g>
								</g>
							</g>
						</g>
					</g>
				</g>
			</g>
		</g>
		<g>
			<g class="st10">
				<g>
					<path class="st22" d="M695.7,506.5l2.4-1.4c0.6-0.4,1.5-0.3,2.5,0.2l-2.4,1.4C697.2,506.1,696.3,506.1,695.7,506.5z"/>
				</g>
				<g>
					
						<linearGradient id="SVGID_35_" gradientUnits="userSpaceOnUse" x1="700.2928" y1="507.6917" x2="703.3265" y2="518.1412" gradientTransform="matrix(1 0 0 1 0 -2.0001)">
						<stop  offset="0" style="stop-color:#E6E7E8"/>
						<stop  offset="1" style="stop-color:#D1D3D4"/>
					</linearGradient>
					<path class="st113" d="M703.1,513.7l-2.4,1.4c0.6-0.4,1-1.2,1-2.3c0-2.2-1.6-5-3.5-6.1l2.4-1.4c2,1.1,3.5,3.9,3.5,6.1
						C704.1,512.5,703.7,513.3,703.1,513.7z"/>
				</g>
				<g>
					
						<ellipse transform="matrix(0.8646 -0.5025 0.5025 0.8646 -162.0635 420.0152)" class="st114" cx="698.2" cy="510.7" rx="2.9" ry="5"/>
				</g>
			</g>
		</g>
		<g>
			<g class="st10">
				<g>
					<path class="st22" d="M707.7,513.4l2.4-1.4c0.6-0.4,1.5-0.3,2.5,0.2l-2.4,1.4C709.2,513,708.3,513,707.7,513.4z"/>
				</g>
				<g>
					
						<linearGradient id="SVGID_36_" gradientUnits="userSpaceOnUse" x1="712.292" y1="514.5889" x2="715.3257" y2="525.0383" gradientTransform="matrix(1 0 0 1 0 -2.0001)">
						<stop  offset="0" style="stop-color:#E6E7E8"/>
						<stop  offset="1" style="stop-color:#D1D3D4"/>
					</linearGradient>
					<path class="st115" d="M715.1,520.6l-2.4,1.4c0.6-0.4,1-1.2,1-2.3c0-2.2-1.6-5-3.5-6.1l2.4-1.4c2,1.1,3.5,3.9,3.5,6.1
						C716.1,519.4,715.7,520.2,715.1,520.6z"/>
				</g>
				<g>
					
						<ellipse transform="matrix(0.8646 -0.5025 0.5025 0.8646 -163.9286 426.9203)" class="st114" cx="710.1" cy="517.6" rx="2.9" ry="5"/>
				</g>
			</g>
		</g>
	</g>
	<g id="dryer_2_">
		<g>
			<g>
				<g class="st10">
					<g>
						<polygon class="st69" points="727.8,406.2 799.9,364.4 799.6,475.1 727.5,516.9 						"/>
					</g>
					<g>
						<polygon class="st22" points="636.4,353.5 708.5,311.6 799.9,364.4 727.8,406.2 						"/>
					</g>
					<g>
						<polygon class="st70" points="727.8,406.2 727.5,516.9 636.1,464.2 636.4,353.5 						"/>
					</g>
					<g>
						<polygon class="st116" points="716.1,417 716,480.7 646.2,440.5 646.4,376.7 						"/>
					</g>
				</g>
			</g>
			<g class="st10">
				<g class="st10">
					<g>
						<polygon class="st71" points="724.8,406.7 724.7,417.3 639.2,367.9 639.2,357.3 						"/>
					</g>
				</g>
				<g>
					<path class="st72" d="M692.8,390.5v4.2c0,1.3-1.4,2.1-2.5,1.4L672,385.6c-0.5-0.3-0.8-0.8-0.8-1.4V380c0-1.3,1.4-2.1,2.5-1.4
						L692,389C692.5,389.3,692.8,389.9,692.8,390.5z"/>
				</g>
			</g>
			<g>
				<g class="st10">
					<g>
						<path class="st22" d="M696,394.5l2.4-1.4c0.6-0.4,1.5-0.3,2.5,0.2l-2.4,1.4C697.5,394.1,696.6,394.1,696,394.5z"/>
					</g>
					<g>
						
							<linearGradient id="SVGID_37_" gradientUnits="userSpaceOnUse" x1="700.6191" y1="395.6821" x2="703.6528" y2="406.1314" gradientTransform="matrix(1 0 0 1 0 -2.0001)">
							<stop  offset="0" style="stop-color:#E6E7E8"/>
							<stop  offset="1" style="stop-color:#D1D3D4"/>
						</linearGradient>
						<path class="st117" d="M703.4,401.6L701,403c0.6-0.4,1-1.2,1-2.3c0-2.2-1.6-5-3.5-6.1l2.4-1.4c2,1.1,3.5,3.9,3.5,6.1
							C704.4,400.5,704,401.3,703.4,401.6z"/>
					</g>
					<g>
						
							<ellipse transform="matrix(0.8646 -0.5025 0.5025 0.8646 -105.744 404.9969)" class="st114" cx="698.5" cy="398.7" rx="2.9" ry="5"/>
					</g>
				</g>
			</g>
			<g>
				<g class="st10">
					<g>
						<path class="st22" d="M708,401.3l2.4-1.4c0.6-0.4,1.5-0.3,2.5,0.2l-2.4,1.4C709.5,401,708.6,401,708,401.3z"/>
					</g>
					<g>
						
							<linearGradient id="SVGID_38_" gradientUnits="userSpaceOnUse" x1="712.6183" y1="402.5793" x2="715.652" y2="413.0287" gradientTransform="matrix(1 0 0 1 0 -2.0001)">
							<stop  offset="0" style="stop-color:#E6E7E8"/>
							<stop  offset="1" style="stop-color:#D1D3D4"/>
						</linearGradient>
						<path class="st118" d="M715.4,408.5l-2.4,1.4c0.6-0.4,1-1.2,1-2.3c0-2.2-1.6-5-3.5-6.1l2.4-1.4c2,1.1,3.5,3.9,3.5,6.1
							C716.4,407.4,716,408.2,715.4,408.5z"/>
					</g>
					<g>
						
							<ellipse transform="matrix(0.8646 -0.5025 0.5025 0.8646 -107.5856 411.9622)" class="st114" cx="710.5" cy="405.6" rx="2.9" ry="5"/>
					</g>
				</g>
			</g>
		</g>
		<g>
			<g>
				<g>
					<polygon points="708,493.2 708,495.3 694.2,487.3 694.2,485.3 					"/>
				</g>
			</g>
		</g>
		<g>
			<g>
				<g>
					<polygon points="708.1,489.5 708.1,491.6 694.3,483.6 694.3,481.6 					"/>
				</g>
			</g>
		</g>
		<g>
			<g>
				<g>
					<polygon points="708.3,485.8 708.3,487.9 694.5,479.9 694.5,477.9 					"/>
				</g>
			</g>
		</g>
		<g>
			<g>
				<g>
					<polygon points="708,496.9 708,499 694.2,491 694.2,488.9 					"/>
				</g>
			</g>
		</g>
	</g>
	<g id="hairdryer_full">
		<g id="hairdryer">
			<g class="st14">
				<g>
					<g class="st10">
						<g>
							<path d="M126.2,471.9l-9.1,5.2c0.2-0.1,0.4-0.2,0.5-0.5l9.1-5.2C126.6,471.6,126.3,471.7,126.2,471.9z"/>
						</g>
						<g>
							<polygon points="119.5,471.7 128.5,466.5 126.6,471.4 117.6,476.6 							"/>
						</g>
						<g>
							<path d="M101.2,451.3c0.2,0.1,0.5,0.2,0.6,0.5l16.6,16.6c1,1,1.5,2.4,1.1,3.4l-1.9,4.8c-0.2,0.7-1,0.8-1.7,0.4
								c-0.2-0.1-0.5-0.2-0.6-0.5l-16.7-16.6c-1-1-1.5-2.5-1.1-3.4l1.9-4.8C99.7,450.9,100.4,450.8,101.2,451.3z"/>
						</g>
					</g>
				</g>
				<g>
					<path d="M77.5,439.1l-16.4,26.8l11.9,9.9c0.5,0.4,1.2,0.5,1.7,0.1c6.2-3.9,41.6-26.8,38.5-35.6
						C110.1,430.8,96.4,415.9,77.5,439.1z"/>
				</g>
				<g>
					<g>
						<path d="M124.8,470.3l3.2,2.3c-0.1-0.1-0.4-0.1-0.6,0l-3.2-2.3C124.4,470.2,124.6,470.2,124.8,470.3z"/>
					</g>
					<g>
						<path d="M123.7,476.6l-3.2-2.3c-0.1-0.1-0.2-0.2-0.2-0.6l3.2,2.3C123.4,476.2,123.4,476.5,123.7,476.6z"/>
					</g>
					<g>
						<polygon points="124.4,473.9 121.2,471.6 124.1,470.3 127.4,472.6 						"/>
					</g>
					<g>
						<polygon points="123.4,476 120.3,473.7 120.3,473 123.5,475.3 						"/>
					</g>
					<g>
						<path d="M123.5,475.3l-3.2-2.3c0-0.5,0.5-1.1,1-1.3l3.2,2.3C123.9,474.2,123.5,474.8,123.5,475.3z"/>
					</g>
					<g>
						<path d="M127.4,472.6c0.5-0.2,0.8,0,0.7,0.5l-0.1,0.7c0,0.5-0.5,1.1-1,1.3l-3,1.3c-0.5,0.2-0.8,0-0.8-0.6l0.1-0.7
							c0-0.5,0.5-1.1,1-1.3L127.4,472.6z"/>
					</g>
				</g>
			</g>
			<g>
				<g class="st10">
					<g>
						<path class="st119" d="M100.9,449.3l9.1-5.2c0.4-0.2,0.8-0.1,1.3,0.1l-9.1,5.2C101.6,449.2,101.1,449.1,100.9,449.3z"/>
					</g>
					<g>
						<path class="st119" d="M102.1,449.4l9.1-5.2c0.2,0.1,0.5,0.2,0.6,0.5l-9.1,5.2C102.6,449.7,102.3,449.6,102.1,449.4z"/>
					</g>
					<g>
						<path class="st120" d="M127.2,470l-9.1,5.2c0.2-0.1,0.4-0.2,0.5-0.5l9.1-5.2C127.4,469.8,127.3,470,127.2,470z"/>
					</g>
					<g>
						<polygon class="st120" points="120.5,469.9 129.5,464.7 127.5,469.6 118.6,474.8 						"/>
					</g>
					<g>
						<polygon class="st119" points="102.8,449.9 111.8,444.7 128.4,461.3 119.3,466.5 						"/>
					</g>
					<g>
						
							<linearGradient id="SVGID_39_" gradientUnits="userSpaceOnUse" x1="125.3986" y1="468.9756" x2="122.9037" y2="465.3717" gradientTransform="matrix(1 0 0 1 0 -2.0001)">
							<stop  offset="3.095709e-06" style="stop-color:#8E191C"/>
							<stop  offset="1" style="stop-color:#ED1C24"/>
						</linearGradient>
						<path class="st121" d="M119.3,466.5l9.1-5.2c1,1,1.5,2.4,1.1,3.4l-9.1,5.2C120.8,469.1,120.3,467.5,119.3,466.5z"/>
					</g>
					<g>
						<path class="st122" d="M102.1,449.4c0.2,0.1,0.5,0.2,0.6,0.5l16.6,16.6c1,1,1.5,2.4,1.1,3.4l-1.9,4.8c-0.2,0.7-1,0.8-1.7,0.4
							c-0.2-0.1-0.5-0.2-0.6-0.5L99.6,458c-1-1-1.5-2.5-1.1-3.4l1.9-4.8C100.6,449.2,101.4,449,102.1,449.4z"/>
					</g>
					<g>
						<path class="st123" d="M98.8,448.8c0.1,0.1,0.2,0.1,0.4,0.4l10.2,10.2c0.6,0.6,0.8,1.6,0.7,2.1l-1.2,3
							c-0.1,0.5-0.6,0.5-1.1,0.2c-0.1-0.1-0.2-0.2-0.4-0.4l-10.2-10.2c-0.6-0.6-0.8-1.6-0.7-2.1l1.2-3
							C98,448.6,98.5,448.6,98.8,448.8z"/>
					</g>
				</g>
				<g>
					<g class="st10">
						<g>
							<path class="st124" d="M102.6,456l1.1-0.6c0.1-0.1,0.4,0,0.5,0l-1.1,0.6C102.8,455.9,102.7,455.9,102.6,456z"/>
						</g>
						<g>
							<path class="st124" d="M103.1,456l1.1-0.6c0.1,0,0.1,0.1,0.2,0.2l-1.1,0.6C103.2,456.1,103.2,456.1,103.1,456z"/>
						</g>
						<g>
							<polygon class="st124" points="107.4,461.3 108.6,460.7 108.2,461.8 107.1,462.5 							"/>
						</g>
						<g>
							<path class="st124" d="M108,462l-1.1,0.6c0.1,0,0.1-0.1,0.1-0.2l1.1-0.6C108.2,461.9,108,461.9,108,462z"/>
						</g>
						<g>
							<polygon class="st124" points="103.3,456.2 104.4,455.5 108.2,459.4 107.1,460 							"/>
						</g>
						<g>
							<path class="st124" d="M107.1,460l1.1-0.6c0.4,0.4,0.6,1,0.4,1.3l-1.1,0.6C107.7,461,107.4,460.4,107.1,460z"/>
						</g>
						<g>
							<path class="st125" d="M103.1,456c0.1,0,0.1,0.1,0.2,0.2l3.8,3.9c0.4,0.4,0.6,1,0.4,1.3l-0.5,1.2c-0.1,0.2-0.4,0.2-0.7,0.1
								c-0.1,0-0.1-0.1-0.2-0.1l-3.8-3.9c-0.4-0.4-0.5-1-0.4-1.2l0.5-1.2C102.5,455.9,102.8,455.9,103.1,456z"/>
						</g>
					</g>
				</g>
			</g>
			<g>
				
					<linearGradient id="SVGID_40_" gradientUnits="userSpaceOnUse" x1="11.9567" y1="351.0326" x2="36.6996" y2="383.9715" gradientTransform="matrix(0.9668 -0.2555 0.2555 0.9668 -34.4497 95.7505)">
					<stop  offset="0" style="stop-color:#ED1C24"/>
					<stop  offset="1" style="stop-color:#52120D"/>
				</linearGradient>
				<path class="st126" d="M78.5,437.3l-17.9,25.5L76,474.2c0,0,41.7-26,38.3-35.7C111.1,429,97.4,414.2,78.5,437.3z"/>
			</g>
			<g>
				<g>
					<path class="st119" d="M125.7,468.5l3.2,2.3c-0.1-0.1-0.4-0.1-0.6,0l-3.2-2.3C125.4,468.3,125.6,468.3,125.7,468.5z"/>
				</g>
				<g>
					<path class="st122" d="M124.5,474.8l-3.2-2.3c-0.1-0.1-0.2-0.2-0.2-0.6l3.2,2.3C124.4,474.4,124.4,474.6,124.5,474.8z"/>
				</g>
				<g>
					<polygon class="st119" points="125.4,472.1 122.2,469.9 125.1,468.5 128.4,470.8 					"/>
				</g>
				<g>
					<polygon class="st122" points="124.4,474.2 121.1,471.9 121.2,471.3 124.4,473.4 					"/>
				</g>
				<g>
					
						<linearGradient id="SVGID_41_" gradientUnits="userSpaceOnUse" x1="149.2385" y1="495.224" x2="150.7104" y2="493.4763" gradientTransform="matrix(0.9959 9.002136e-02 -9.002136e-02 0.9959 18.6101 -34.4722)">
						<stop  offset="3.095709e-06" style="stop-color:#52120D"/>
						<stop  offset="1" style="stop-color:#ED1C24"/>
					</linearGradient>
					<path class="st127" d="M124.4,473.4l-3.2-2.3c0-0.5,0.5-1.1,1-1.3l3.2,2.3C124.9,472.3,124.5,473,124.4,473.4z"/>
				</g>
				<g>
					<path class="st120" d="M128.4,470.8c0.5-0.2,0.8,0,0.7,0.5L129,472c0,0.5-0.5,1.1-1,1.3l-3,1.3c-0.5,0.2-0.8,0-0.8-0.6l0.1-0.7
						c0-0.5,0.5-1.1,1-1.3L128.4,470.8z"/>
				</g>
			</g>
			<g>
				<g>
					<g>
						<path class="st128" d="M64.9,461.3c4.1,0.2,9,3.7,10.8,7.6c1.9,4,0.1,6.8-4,6.6c-4.1-0.2-9-3.7-11-7.6
							C59,463.9,60.8,461,64.9,461.3z"/>
					</g>
				</g>
			</g>
			<g id="hot_circle">
				<g>
					<g>
						<path class="st129" d="M64.9,461.3c4.1,0.2,9,3.7,10.8,7.6c1.9,4,0.1,6.8-4,6.6c-4.1-0.2-9-3.7-11-7.6
							C59,464,60.8,461.1,64.9,461.3z"/>
					</g>
				</g>
			</g>
			<g>
				<polygon class="st16" points="60.7,467.6 65.5,461.2 66.3,461.4 61.3,468 				"/>
				<polygon class="st16" points="61.5,469 67.1,461.7 67.8,461.9 62,469.5 				"/>
				<polygon class="st16" points="62.6,470.1 68.5,462.3 69.1,462.7 63.2,470.5 				"/>
				
					<rect x="62" y="467" transform="matrix(0.6077 -0.7942 0.7942 0.6077 -344.8116 236.6535)" class="st16" width="10.2" height="0.7"/>
				<polygon class="st16" points="64.9,472.3 71.2,463.9 71.8,464.4 65.5,472.8 				"/>
				<polygon class="st16" points="66.3,473.2 72.5,464.8 73.1,465.3 66.9,473.7 				"/>
				<polygon class="st16" points="67.6,473.9 73.6,465.9 74.3,466.4 68.2,474.4 				"/>
				<polygon class="st16" points="69,474.5 74.5,467.2 75.1,467.6 69.6,474.9 				"/>
				<polygon class="st16" points="70.8,475.1 75.5,469 76.1,469.5 71.3,475.6 				"/>
			</g>
			<g>
				<g>
					<g>
						<path class="st122" d="M64.9,461.2c4.1,0.2,9.1,3.8,11,7.8s0.1,6.9-4.1,6.7c-4.1-0.2-9.1-3.8-11-7.8
							C58.8,463.9,60.7,460.8,64.9,461.2z M71.6,475c3.9,0.2,5.6-2.5,3.8-6.3c-1.8-3.8-6.4-6.9-10.3-7.3s-5.6,2.5-3.8,6.2
							C63.1,471.5,67.7,474.8,71.6,475"/>
					</g>
				</g>
			</g>
		</g>
		<g id="hairdryer_cord">
			<g id="dry_plug_2_">
				<g>
					<g>
						<g class="st10">
							<g>
								<path class="st130" d="M42.7,452.6l0.3,0.1c-0.4-0.3-1-0.2-1.7,0.1l-0.3-0.1C41.6,452.3,42.3,452.3,42.7,452.6z"/>
							</g>
							<g>
								<path class="st130" d="M40,458l-0.3-0.1c-0.4-0.3-0.7-0.6-0.7-1.3c-0.1-1.3,0.8-3.1,2-3.8l0.3,0.1c-1.2,0.7-2,2.5-2,3.8
									C39.3,457.3,39.6,457.7,40,458z"/>
							</g>
							<g>
								<path class="st131" d="M41.4,452.8c1.2-0.7,2.2-0.1,2.2,1.2c0,1.3-0.9,3.1-2.2,3.8c-1.2,0.7-2.2,0.1-2.2-1.2
									C39.2,455.2,40.1,453.4,41.4,452.8z"/>
							</g>
						</g>
					</g>
					<g>
						<g class="st10">
							<g>
								<polygon class="st132" points="42,457.3 39.5,456.9 39.5,455.7 42,456.3 								"/>
							</g>
							<g>
								<polygon class="st53" points="42,456.3 39.5,455.7 43.2,453.2 43.6,455.2 								"/>
							</g>
							<g>
								<polygon class="st133" points="43.6,455.2 43.6,456.3 42,457.3 42,456.3 								"/>
							</g>
						</g>
					</g>
				</g>
				<g>
					<g class="st10">
						<g>
							<polygon class="st132" points="44.7,458.1 42,457.3 42,456.3 44.6,457.5 							"/>
						</g>
						<g>
							<polygon class="st53" points="44.6,457.5 42,456.3 43.6,455.2 45.8,456.6 							"/>
						</g>
						<g>
							<polygon class="st131" points="45.8,456.6 45.9,457.3 44.7,458.1 44.6,457.5 							"/>
						</g>
					</g>
				</g>
				<g>
					<polygon points="41.5,455.5 41.1,455.4 42.4,454.5 42.7,454.6 					"/>
				</g>
				<g>
					<polygon points="42,455.7 41.6,455.6 42.8,454.7 43.1,454.8 					"/>
				</g>
			</g>
			<g>
				<g class="st10">
					<g class="st10">
						<g>
							
								<radialGradient id="SVGID_42_" cx="132.3219" cy="475.9805" r="117.2104" gradientTransform="matrix(1 0 0 1 0 -2.0001)" gradientUnits="userSpaceOnUse">
								<stop  offset="0" style="stop-color:#000000"/>
								<stop  offset="1" style="stop-color:#414042"/>
							</radialGradient>
							<path class="st134" d="M105,495.1c-4.1,0-8.5-0.7-13.2-2.5c-0.3-0.1-1.2-0.5-2.1-1.2c-2.1,1.1-4.2,1.8-5.4,2.1l-0.5,0.2
								c-1.8,0.6-3.4,0.6-4.8,0.2c-3.7-1.3-6.8-5-9.2-11.1c-3.2-8.1-11.7-16.6-25.1-24.7l1.4-0.7c13.7,8.3,21.5,16.8,24.8,25.1
								c2.3,5.8,5.1,9.3,8.5,10.4c1.2,0.4,2.5,0.4,4.1-0.2l0.5-0.2c1.1-0.3,3-0.9,4.8-1.8c-0.9-0.9-1.7-2.1-2-3.7
								c-0.4-2.1,0.1-3.8,1.2-4.9c0.9-0.9,2-1.1,2.7-1.2c0.1,0,3.3-0.3,4.5,1.7c0.8,1.4,0.2,3-0.2,3.7c-0.8,1.9-2.4,3.4-4.3,4.5
								c0.7,0.5,1.3,0.7,1.4,0.8c16.2,6,29.2-0.3,35.4-7.5c0.2-0.2,0.4-0.5,0.7-0.8c2.2-2.3,1.1-4.5-0.9-8.9
								c-0.1-0.2-0.2-0.4-0.2-0.5l1-0.5c0.1,0.1,0.2,0.3,0.3,0.6c2.3,5.1,3,7.7,0.7,10.2c-0.3,0.3-0.6,0.6-0.7,0.8
								C123.8,490.2,115.5,495.1,105,495.1z M91.3,481.9c-0.3,0-0.4,0-0.5,0c-0.6,0.1-1.4,0.3-2.1,0.9c-0.9,0.8-1.2,2.2-0.9,3.9
								c0.2,1.4,1.1,2.5,1.9,3.3c1.8-1,3.4-2.4,4.2-4.2c0.3-0.6,0.7-1.8,0.2-2.7C93.7,482,92.1,481.9,91.3,481.9z"/>
						</g>
					</g>
					<g>
						
							<radialGradient id="SVGID_43_" cx="141.2939" cy="475.9805" r="129.164" gradientTransform="matrix(1 0 0 1 0 -2.0001)" gradientUnits="userSpaceOnUse">
							<stop  offset="0" style="stop-color:#000000"/>
							<stop  offset="1" style="stop-color:#414042"/>
						</radialGradient>
						<polygon class="st135" points="44.6,457.5 44.7,458.1 47.6,459.4 45.8,456.9 						"/>
						<g>
							
								<radialGradient id="SVGID_44_" cx="132.3257" cy="475.7368" r="118.5726" gradientTransform="matrix(1 0 0 1 0 -2.0001)" gradientUnits="userSpaceOnUse">
								<stop  offset="0" style="stop-color:#000000"/>
								<stop  offset="1" style="stop-color:#414042"/>
							</radialGradient>
							<path class="st136" d="M104.8,494.7c-4.1,0-8.5-0.7-13.2-2.5c-0.3-0.1-1.2-0.5-2.1-1.2c-2.1,1.1-4.2,1.8-5.4,2.1l-0.5,0.2
								c-1.8,0.6-3.4,0.6-4.8,0.2c-3.7-1.3-6.8-5-9.2-11.1c-3.2-8.1-11.6-16.7-25-24.9l1.2-0.9c13.7,8.3,21.6,17.1,24.9,25.4
								c2.3,5.8,5.1,9.3,8.5,10.4c1.2,0.4,2.5,0.4,4.1-0.2l0.5-0.2c1.1-0.3,3-0.9,4.8-1.8c-0.9-0.9-1.7-2.1-2-3.7
								c-0.4-2.1,0.1-3.8,1.2-4.9c0.9-0.9,2-1.1,2.7-1.2c0.1,0,3.3-0.3,4.5,1.7c0.8,1.4,0.2,3-0.2,3.7c-0.8,1.9-2.4,3.4-4.3,4.5
								c0.7,0.5,1.3,0.7,1.4,0.8c16.2,6,29.2-0.3,35.4-7.5c0.2-0.2,0.4-0.5,0.7-0.8c2.2-2.3,1-4.4-1-8.8c-0.1-0.2-0.2-0.4-0.2-0.5
								l1-0.5c0.1,0.1,0.2,0.3,0.3,0.6c2.3,5.1,3.1,7.6,0.8,10c-0.3,0.3-0.6,0.6-0.7,0.8C123.6,489.8,115.3,494.7,104.8,494.7z
								 M91,481.5c-0.3,0-0.4,0-0.5,0c-0.6,0.1-1.4,0.3-2.1,0.9c-0.9,0.8-1.2,2.2-0.9,3.9c0.2,1.4,1.1,2.5,1.9,3.3
								c1.8-1,3.4-2.4,4.2-4.2c0.3-0.6,0.7-1.8,0.2-2.7C93.4,481.7,91.8,481.5,91,481.5z"/>
						</g>
					</g>
					
						<radialGradient id="SVGID_45_" cx="132.3165" cy="475.9805" r="117.2063" gradientTransform="matrix(1 0 0 1 0 -2.0001)" gradientUnits="userSpaceOnUse">
						<stop  offset="0" style="stop-color:#000000"/>
						<stop  offset="1" style="stop-color:#414042"/>
					</radialGradient>
					<path class="st137" d="M130.4,479l-1.7-3.9l-0.9-2c0.1,0.1,0.3,0.2,0.4,0.3c0,0.1,0,0.2,0.1,0.3
						C129,475.4,129.7,477.2,130.4,479z"/>
				</g>
			</g>
		</g>
	</g>
</g>
</svg>
