<?xml version="1.0" encoding="utf-8"?>
<!-- Generator: Adobe Illustrator 24.2.1, SVG Export Plug-In . SVG Version: 6.00 Build 0)  -->
<svg version="1.1" xmlns="http://www.w3.org/2000/svg" xmlns:xlink="http://www.w3.org/1999/xlink" x="0px" y="0px"
	 viewBox="0 0 500 500" style="enable-background:new 0 0 500 500;" xml:space="preserve">
<style type="text/css">
	.bathroom-st0{fill:#414042;stroke:#A7A9AC;stroke-width:0.5;stroke-miterlimit:10;}
	.bathroom-st1{fill:#6D6E71;stroke:#D1D3D4;stroke-width:0.5;stroke-miterlimit:10;}
	.bathroom-st2{fill:#939598;}
	.bathroom-st3{fill:#808285;}
	.bathroom-st4{fill:#BCBEC0;}
	.bathroom-st5{fill:#726658;}
	.bathroom-st6{fill:#594A42;}
	.bathroom-st7{fill:#C2B59B;}
	.bathroom-st8{fill:url(#bathroom-SVGID_1_);}
	.bathroom-st9{fill:url(#bathroom-SVGID_2_);}
	.bathroom-st10{enable-background:new    ;}
	.bathroom-st11{fill:#BFBFBF;}
	.bathroom-st12{clip-path:url(#bathroom-SVGID_4_);}
	.bathroom-st13{clip-path:url(#bathroom-SVGID_6_);}
	.bathroom-st14{opacity:0.5;}
	.bathroom-st15{fill:#020202;}
	.bathroom-st16{fill:#414042;}
	.bathroom-st17{fill:#8E8E8E;}
	.bathroom-st18{fill:#262626;}
	.bathroom-st19{fill:#153BCA;}
	.bathroom-st20{fill:#D5D6D7;}
	.bathroom-st21{fill:none;}
	.bathroom-st22{fill:#FFFFFF;}
	.bathroom-st23{fill:url(#bathroom-SVGID_7_);}
	.bathroom-st24{fill:url(#bathroom-SVGID_8_);}
	.bathroom-st25{fill:url(#bathroom-SVGID_9_);stroke:#FFFFFF;stroke-miterlimit:10;}
	.bathroom-st26{fill:url(#light_1_);}
	.bathroom-st27{fill:url(#bathroom-SVGID_10_);}
	.bathroom-st28{fill:url(#bathroom-SVGID_11_);}
	.bathroom-st29{fill:#7D7C7C;}
	.bathroom-st30{fill:#F6F6F6;}
	.bathroom-st31{fill:#BABABA;}
	.bathroom-st32{fill:#D3D3D3;}
	.bathroom-st33{fill:#B5B6B6;}
	.bathroom-st34{fill:#DCDCDC;}
	.bathroom-st35{fill:#9E9E9E;}
	.bathroom-st36{fill:url(#bathroom-SVGID_12_);stroke:#603913;stroke-miterlimit:10;}
	.bathroom-st37{fill:url(#bathroom-SVGID_13_);stroke:#603913;stroke-miterlimit:10;}
	.bathroom-st38{fill:#DFDFDE;}
	.bathroom-st39{fill:#F9FBF8;}
	.bathroom-st40{opacity:0.7;}
	.bathroom-st41{opacity:0.7;fill:#00B1B5;enable-background:new    ;}
	.bathroom-st42{fill:#C2C1C0;}
	.bathroom-st43{opacity:0.5;fill:#101010;enable-background:new    ;}
	.bathroom-st44{fill:url(#bathroom-SVGID_14_);}
	.bathroom-st45{fill:#303030;}
	.bathroom-st46{fill:#101010;}
	.bathroom-st47{fill:url(#bathroom-SVGID_15_);}
	.bathroom-st48{fill:url(#bathroom-SVGID_16_);}
	.bathroom-st49{fill:url(#bathroom-SVGID_17_);}
	.bathroom-st50{fill:url(#bathroom-SVGID_18_);}
	.bathroom-st51{fill:none;stroke:#000000;stroke-width:0.2;stroke-miterlimit:10;}
	.bathroom-st52{fill:#B5B5B6;}
	.bathroom-st53{fill:#5E5D5F;}
	.bathroom-st54{fill:#787878;}
	.bathroom-st55{fill:#58C1EF;}
	.bathroom-st56{fill:#4DABCB;}
	.bathroom-st57{fill:url(#bathroom-SVGID_19_);}
	.bathroom-st58{fill:url(#bathroom-SVGID_20_);}
	.bathroom-st59{fill:url(#bathroom-SVGID_21_);}
	.bathroom-st60{fill:url(#bathroom-SVGID_22_);}
	.bathroom-st61{opacity:0.5;enable-background:new    ;}
	.bathroom-st62{fill:url(#bathroom-SVGID_23_);}
	.bathroom-st63{fill:#4F7CBF;}
	.bathroom-st64{fill:url(#bathroom-SVGID_24_);}
	.bathroom-st65{fill:#E6E7E8;}
	.bathroom-st66{fill:url(#bathroom-SVGID_25_);}
	.bathroom-st67{fill:url(#bathroom-SVGID_26_);}
	.bathroom-st68{fill:#00AEEF;}
	.bathroom-st69{fill:#E2E2E2;}
	.bathroom-st70{fill:#BCBFC1;}
	.bathroom-st71{fill:#414142;}
	.bathroom-st72{fill:#ADE0F0;stroke:#000000;stroke-width:0.2;stroke-miterlimit:10;}
	.bathroom-st73{fill:url(#bathroom-SVGID_27_);}
	.bathroom-st74{fill:url(#bathroom-SVGID_28_);}
	.bathroom-st75{fill:#CECCCD;}
	.bathroom-st76{fill:#FFFFFF;stroke:#6D6E71;stroke-width:0.1;stroke-miterlimit:10;}
	.bathroom-st77{clip-path:url(#bathroom-SVGID_30_);enable-background:new    ;}
	.bathroom-st78{fill:#717477;}
	.bathroom-st79{fill:#74777A;}
	.bathroom-st80{fill:#777A7D;}
	.bathroom-st81{fill:#7B7D80;}
	.bathroom-st82{fill:#7E8183;}
	.bathroom-st83{fill:#818486;}
	.bathroom-st84{fill:#848789;}
	.bathroom-st85{fill:#878A8C;}
	.bathroom-st86{fill:#8A8D8F;}
	.bathroom-st87{fill:#8D9093;}
	.bathroom-st88{fill:#919396;}
	.bathroom-st89{fill:#949799;}
	.bathroom-st90{fill:#979A9C;}
	.bathroom-st91{fill:#9A9D9F;}
	.bathroom-st92{fill:#9DA0A2;}
	.bathroom-st93{clip-path:url(#bathroom-SVGID_32_);enable-background:new    ;}
	.bathroom-st94{fill:#999B9E;}
	.bathroom-st95{fill:#A6A9AB;}
	.bathroom-st96{fill:#747779;}
	.bathroom-st97{clip-path:url(#bathroom-SVGID_34_);enable-background:new    ;}
	.bathroom-st98{fill:#A0A3A5;}
	.bathroom-st99{fill:#A3A6A8;}
	.bathroom-st100{fill:#A6A8AB;}
	.bathroom-st101{fill:#A9ABAE;}
	.bathroom-st102{fill:#ACAEB0;}
	.bathroom-st103{fill:#AFB1B3;}
	.bathroom-st104{fill:#B2B4B6;}
	.bathroom-st105{fill:#B5B7B9;}
	.bathroom-st106{fill:#B8BABC;}
	.bathroom-st107{fill:#BDBFC1;}
	.bathroom-st108{fill:#C4C5C7;}
	.bathroom-st109{fill:#C7C8C9;}
	.bathroom-st110{fill:#C9CACC;}
	.bathroom-st111{fill:#CBCCCD;}
	.bathroom-st112{fill:#CCCDCF;}
	.bathroom-st113{fill:url(#bathroom-SVGID_35_);}
	.bathroom-st114{fill:#C9C9C9;}
	.bathroom-st115{fill:url(#bathroom-SVGID_36_);}
	.bathroom-st116{fill:#BCBFC1;stroke:#000000;stroke-width:0.2;stroke-miterlimit:10;}
	.bathroom-st117{fill:url(#bathroom-SVGID_37_);}
	.bathroom-st118{fill:url(#bathroom-SVGID_38_);}
	.bathroom-st119{fill:#ED1C24;}
	.bathroom-st120{fill:#8E191C;}
	.bathroom-st121{fill:url(#bathroom-SVGID_39_);}
	.bathroom-st122{fill:#52120D;}
	.bathroom-st123{fill:#FEEBE9;}
	.bathroom-st124{fill:#66B7E6;}
	.bathroom-st125{fill:#0078BA;}
	.bathroom-st126{fill:url(#bathroom-SVGID_40_);}
	.bathroom-st127{fill:url(#bathroom-SVGID_41_);}
	.bathroom-st128{fill:#969696;}
	.bathroom-st129{fill:#EA0000;}
	.bathroom-st130{fill:#606161;}
	.bathroom-st131{fill:#4C4C4C;}
	.bathroom-st132{fill:#909091;}
	.bathroom-st133{fill:#2D2D2D;}
	.bathroom-st134{fill:url(#bathroom-SVGID_42_);}
	.bathroom-st135{fill:url(#bathroom-SVGID_43_);}
	.bathroom-st136{fill:url(#bathroom-SVGID_44_);}
	.bathroom-st137{fill:url(#bathroom-SVGID_45_);}
</style>
<g id="Layer_1">
	<g id="bathroom">
		<g>
			<polygon class="bathroom-st0" points="320.5,399.2 385.1,361.9 423.7,384.3 358.4,421 			"/>
			<polygon class="bathroom-st0" points="385.1,361.9 449.6,324.7 486.8,346.1 423.7,384.3 			"/>
			<polygon class="bathroom-st0" points="199.7,468.8 257.1,435.6 298.5,459.5 242.7,494.1 			"/>
			<polygon class="bathroom-st0" points="257.1,435.6 321.6,398.4 360.7,420.9 297.5,458.9 			"/>
			<polygon class="bathroom-st0" points="256,394.2 320.5,356.9 356.4,377.7 291.8,414.9 			"/>
			<polygon class="bathroom-st0" points="320.5,356.9 385.1,319.7 421,340.4 356.4,377.6 			"/>
			<polygon class="bathroom-st0" points="163.8,447.2 192.5,430.7 228.4,451.4 199.7,468.8 			"/>
			<polygon class="bathroom-st0" points="192.5,430.6 257,393.4 292.9,414.1 228.4,451.4 			"/>
			<polygon class="bathroom-st0" points="385.7,319.4 450.2,282.1 486.1,302.9 421.6,340.1 			"/>
			<polygon class="bathroom-st0" points="242.9,359.7 307.5,322.4 343.3,343.1 278.8,380.4 			"/>
			<polygon class="bathroom-st0" points="307.4,322.4 372,285.2 407.9,305.8 343.3,343.1 			"/>
			<polygon class="bathroom-st0" points="127.1,426.3 179.4,396.1 215.3,416.8 163,447 			"/>
			<polygon class="bathroom-st0" points="179.4,396.1 244,358.8 279.9,379.5 215.3,416.8 			"/>
			<polygon class="bathroom-st0" points="185.9,350.4 250.5,313.1 286.4,333.8 221.8,371.1 			"/>
			<polygon class="bathroom-st0" points="250.5,313.1 315.1,275.9 351,296.5 286.4,333.8 			"/>
			<polygon class="bathroom-st0" points="90.3,405.5 122.5,386.8 158.3,407.5 127.1,426.3 			"/>
			<polygon class="bathroom-st0" points="122.5,386.8 187.1,349.5 223,370.2 158.4,407.5 			"/>
			<polygon class="bathroom-st0" points="315.7,275.6 380.2,238.3 416.1,259 351.6,296.3 			"/>
			<polygon class="bathroom-st0" points="168.9,318.6 233.4,281.2 269.3,302 204.8,339.2 			"/>
			<polygon class="bathroom-st0" points="233.4,281.2 298,244 333.9,264.7 269.3,302 			"/>
			<polygon class="bathroom-st0" points="55.9,383.6 105.4,355 141.3,375.7 91.1,404.7 			"/>
			<polygon class="bathroom-st0" points="105.4,355 170,317.7 205.9,338.4 141.3,375.7 			"/>
			<polygon class="bathroom-st0" points="114,308 178.6,270.7 214.4,291.4 149.9,328.7 			"/>
			<polygon class="bathroom-st0" points="178.6,270.7 243.1,233.4 279,254.1 214.4,291.4 			"/>
			<polygon class="bathroom-st0" points="19,362.6 50.6,344.4 86.4,365.1 54.6,383.5 			"/>
			<polygon class="bathroom-st0" points="50.5,344.4 115.1,307.1 151,327.9 86.4,365.1 			"/>
			<polygon class="bathroom-st0" points="243.8,233.1 308.3,195.9 344.2,216.6 279.6,253.9 			"/>
			<polygon class="bathroom-st0" points="96.4,276.9 160.9,239.7 196.8,260.4 132.3,297.7 			"/>
			<polygon class="bathroom-st0" points="160.9,239.7 225.5,202.4 261.4,223.1 196.8,260.3 			"/>
			<polygon class="bathroom-st0" points="6.5,356.9 56.7,327.1 68.8,334.1 18,363.4 			"/>
			<polygon class="bathroom-st0" points="32.9,313.4 97.5,276.1 133.4,296.8 68.8,334.1 			"/>
		</g>
		<g>
			<polygon class="bathroom-st1" points="19.6,143.8 19.6,185.3 84.2,148 84.2,106.6 			"/>
			<polygon class="bathroom-st1" points="84.2,106.3 84.2,147.9 148.9,110.5 148.9,69.2 			"/>
			<polygon class="bathroom-st1" points="148.9,69 148.9,110.6 213.5,73.3 213.5,31.9 			"/>
			<polygon class="bathroom-st1" points="213.5,31.6 213.5,73.2 250.6,50.8 250.6,9.5 			"/>
			<polygon class="bathroom-st1" points="7.6,191.1 8,232.3 56.7,204.2 56.7,162.9 			"/>
			<polygon class="bathroom-st1" points="56.7,162.8 57,204.4 121.7,167.1 121.4,125.8 			"/>
			<polygon class="bathroom-st1" points="121.3,125.3 121.3,166.8 186.4,130 186,88.2 			"/>
			<polygon class="bathroom-st1" points="186,88.1 186,129.7 250.6,92.3 250.6,51 			"/>
			<polygon class="bathroom-st1" points="19.6,226.3 19.6,267.9 84.2,230.5 84.2,189.2 			"/>
			<polygon class="bathroom-st1" points="84.2,188.9 85.2,237.2 149.9,199.9 148.9,151.8 			"/>
			<polygon class="bathroom-st1" points="148.9,151.6 148.9,193.1 213.5,155.8 213.5,114.5 			"/>
			<polygon class="bathroom-st1" points="213.5,114.2 213.5,155.7 278.2,118.5 278.2,77.1 			"/>
			<polygon class="bathroom-st1" points="6.5,274.1 6.5,315.5 56.7,286.6 56.7,245.3 			"/>
			<polygon class="bathroom-st1" points="56.7,244.9 56.7,286.5 121.3,249.2 121.3,207.9 			"/>
			<polygon class="bathroom-st1" points="121.3,207.8 121.3,249.3 186,212.1 186,170.7 			"/>
			<polygon class="bathroom-st1" points="186,170.2 186,211.8 250.6,174.5 250.6,133.2 			"/>
			<polygon class="bathroom-st1" points="16.4,309.5 16.4,351 81,313.7 81,272.4 			"/>
			<polygon class="bathroom-st1" points="80.5,272.5 80.5,314.1 145.8,276.3 146.1,234.8 			"/>
			<polygon class="bathroom-st1" points="146.1,234.8 145.7,276.3 210.3,239 210.3,197.7 			"/>
			<polygon class="bathroom-st1" points="210.3,197.4 210.3,239 275,201.6 275,160.3 			"/>
		</g>
		<g>
			<polygon class="bathroom-st1" points="481.4,144.8 481.4,186.4 416.8,149 416.8,107.7 			"/>
			<polygon class="bathroom-st1" points="416.8,107.3 416.8,148.9 352.1,111.6 352.1,70.3 			"/>
			<polygon class="bathroom-st1" points="352.1,70.1 352.1,111.6 287.5,74.3 287.5,32.9 			"/>
			<polygon class="bathroom-st1" points="287.5,32.7 287.5,74.2 250.4,51.8 250.4,10.5 			"/>
			<polygon class="bathroom-st1" points="481.4,185.2 481.4,226.7 444.4,205.3 444.4,164 			"/>
			<polygon class="bathroom-st1" points="444.4,163.6 444.4,205.1 379.7,167.9 379.7,126.5 			"/>
			<polygon class="bathroom-st1" points="380.9,127.2 380.9,168.7 316.2,131.4 316.2,90 			"/>
			<polygon class="bathroom-st1" points="315.1,89.2 315.1,130.7 250.4,93.4 250.4,52.1 			"/>
			<polygon class="bathroom-st1" points="481.4,227.3 481.4,268.9 416.8,231.6 416.8,190.3 			"/>
			<polygon class="bathroom-st1" points="416.8,189.9 415.8,238.2 351.1,200.9 352.1,152.8 			"/>
			<polygon class="bathroom-st1" points="352.1,152.6 352.1,194.2 287.5,156.9 287.5,115.5 			"/>
			<polygon class="bathroom-st1" points="287.5,115.3 287.5,156.8 250.4,134.2 250.4,93.4 			"/>
			<polygon class="bathroom-st1" points="481.4,267.3 481,308.4 444.4,287.6 444.4,246.3 			"/>
			<polygon class="bathroom-st1" points="444.4,246 444.4,287.5 379.7,250.2 379.7,208.9 			"/>
			<polygon class="bathroom-st1" points="379.7,208.7 379.7,250.2 315.1,212.9 315.1,171.6 			"/>
			<polygon class="bathroom-st1" points="315.1,171.3 315.1,212.8 250.4,175.5 250.4,134.2 			"/>
			<polygon class="bathroom-st1" points="481,308.4 480.4,349 420,314.8 420,273.4 			"/>
			<polygon class="bathroom-st1" points="420,273.1 420,314.7 355.4,277.3 355.4,236 			"/>
			<polygon class="bathroom-st1" points="355.4,235.8 355.4,277.3 290.7,240 290.7,198.7 			"/>
			<polygon class="bathroom-st1" points="290.7,198.4 290.7,240 250.1,216 250.1,175.1 			"/>
		</g>
		<g>
			<polygon class="bathroom-st2" points="6.2,142.2 20.6,150.5 20.6,349.6 6,341.2 			"/>
			<polygon class="bathroom-st3" points="494,142.2 479.7,150.3 480,349.2 494,341.2 			"/>
			<polygon class="bathroom-st4" points="6.2,142.2 250.1,1.4 494,142.2 479.7,150.5 250.1,18 20.6,150.5 			"/>
			<polygon class="bathroom-st2" points="250,498.5 249.9,498.6 6,357.8 6,341.2 250.1,482 			"/>
			<polygon class="bathroom-st3" points="494,341.2 494,357.8 250,498.6 250,482 			"/>
		</g>
		<g id="table">
			<polygon class="bathroom-st5" points="35.2,341.1 105.1,300.8 105.2,248.8 35.2,289.2 			"/>
			<polygon class="bathroom-st6" points="35.2,269.1 67.6,286.5 67.6,360.3 35.2,341.1 			"/>
			<polygon class="bathroom-st5" points="105.2,228.6 137.6,247.8 137.5,319.9 105.1,300.8 			"/>
			<polygon class="bathroom-st5" points="67.6,360.3 137.5,319.9 137.6,268 67.6,308.4 			"/>
			<polygon class="bathroom-st7" points="35.2,269 67.6,288.2 137.6,247.8 105.2,228.6 			"/>
			<g>
				<polygon class="bathroom-st6" points="67.6,305.7 67.6,308.4 137.6,268 137.6,265.4 				"/>
				<polygon class="bathroom-st6" points="101.4,288.9 102.9,288 103.2,339.8 101.8,340.5 				"/>
			</g>
			<g>
				
					<linearGradient id="bathroom-SVGID_1_" gradientUnits="userSpaceOnUse" x1="97.5636" y1="188.8236" x2="103.4472" y2="166.6902" gradientTransform="matrix(1 0 0 -1 0 500.6999)">
					<stop  offset="0" style="stop-color:#FFFFFF"/>
					<stop  offset="1" style="stop-color:#9E9E9E"/>
				</linearGradient>
				<polygon class="bathroom-st8" points="100.7,326.6 98.2,327.9 98.2,311.2 100.7,309.9 				"/>
				<polygon class="bathroom-st4" points="100.7,309.9 98.2,311.2 98.2,327.9 97.1,327.2 97.1,310.8 99.6,309.3 				"/>
			</g>
			<g>
				
					<linearGradient id="bathroom-SVGID_2_" gradientUnits="userSpaceOnUse" x1="104.7966" y1="193.8042" x2="110.6803" y2="171.6709" gradientTransform="matrix(1 0 0 -1 0 500.6999)">
					<stop  offset="0" style="stop-color:#FFFFFF"/>
					<stop  offset="1" style="stop-color:#9E9E9E"/>
				</linearGradient>
				<polygon class="bathroom-st9" points="107.9,321.5 105.4,322.9 105.4,306.2 107.9,304.8 				"/>
				<polygon class="bathroom-st4" points="107.9,304.8 105.4,306.2 105.4,322.9 104.4,322.2 104.4,305.8 106.9,304.3 				"/>
			</g>
			<g>
				<g>
					<g class="bathroom-st10">
						<g>
							<polygon class="bathroom-st11" points="97,282.3 97,280.7 107.9,274.4 107.9,276 							"/>
							<g class="bathroom-st10">
								<g>
									<g>
										<g>
											<defs>
												<polygon id="bathroom-SVGID_3_" points="97,282.3 97,280.7 107.9,274.4 107.9,276 												"/>
											</defs>
											<clipPath id="bathroom-SVGID_4_">
												<use xlink:href="#bathroom-SVGID_3_"  style="overflow:visible;"/>
											</clipPath>
											<g class="bathroom-st12">
												<g>
													<g>
														<g>
															<g>
																<g>
																	<defs>
																		<polyline id="bathroom-SVGID_5_" points="107.9,276 97,282.3 97,280.7 107.9,274.4 107.9,276 																		"/>
																	</defs>
																	<clipPath id="bathroom-SVGID_6_">
																		<use xlink:href="#bathroom-SVGID_5_"  style="overflow:visible;"/>
																	</clipPath>
																	<g class="bathroom-st13">
																	</g>
																</g>
															</g>
														</g>
													</g>
												</g>
											</g>
										</g>
									</g>
								</g>
							</g>
						</g>
						<g>
							<polygon class="bathroom-st11" points="97,282.3 96.6,282 96.6,280.4 97,280.7 							"/>
						</g>
						<g>
							<polygon class="bathroom-st11" points="97,280.7 96.6,280.4 107.5,274.1 107.9,274.4 							"/>
						</g>
					</g>
				</g>
			</g>
		</g>
		<g>
			<g class="bathroom-st10">
				<g class="bathroom-st14">
					<polygon class="bathroom-st15" points="326.8,261.2 237.6,313.1 160.7,268.3 249.9,216.4 					"/>
				</g>
			</g>
			<g class="bathroom-st10">
				<g>
					<polygon class="bathroom-st2" points="323.5,254.3 323,260.8 250,218.6 250,212.8 					"/>
				</g>
				<g>
					<polygon class="bathroom-st3" points="250,212.8 250,218.6 165.6,267.7 165.1,261.3 					"/>
				</g>
				<g>
					<polygon class="bathroom-st16" points="323.1,260.8 238.7,309.9 165.6,267.6 250,218.6 					"/>
				</g>
				<g>
					<polygon class="bathroom-st2" points="238.7,304.6 238.6,310.2 165.1,266.9 165.1,261.3 					"/>
				</g>
				<g>
					<polygon class="bathroom-st3" points="323.5,254.3 323,260.8 238.6,310.2 238.7,304.5 					"/>
				</g>
			</g>
			<g id="drain">
				<polygon class="bathroom-st17" points="256.5,250 227.9,266.6 199,250 227.7,233.4 				"/>
				<g>
					<g id="drain_1_">
						<polygon class="bathroom-st18" points="228.9,238 208.7,250 206.5,248.5 226.8,236.6 						"/>
					</g>
					<g id="drain_2_">
						<polygon class="bathroom-st18" points="233.4,241 213.2,253 211,251.6 231.3,239.6 						"/>
					</g>
					<g id="drain_3_">
						<polygon class="bathroom-st18" points="238.6,243.9 218.3,255.9 216.1,254.5 236.3,242.5 						"/>
					</g>
					<g id="drain_4_">
						<polygon class="bathroom-st18" points="243.3,247.1 223.1,259 220.9,257.6 241.1,245.6 						"/>
					</g>
					<g id="drain_5_">
						<polygon class="bathroom-st18" points="248.3,250 228.1,262 225.8,260.6 246.1,248.6 						"/>
					</g>
				</g>
			</g>
			<g id="shower_puddle">
				<g>
					<g id="puddle_c">
						<g>
							<g>
								<path class="bathroom-st19" d="M252,256.2c1.1,0.7,1.1,1.7,0,2.3c-1.1,0.7-2.8,0.7-3.9,0s-1.1-1.7,0-2.3S251,255.7,252,256.2z"/>
							</g>
						</g>
					</g>
				</g>
				<g id="puddle_ring4">
					<g id="ripple_outer">
						<g id="puddle_c_24_">
							<g>
								<g>
									<path class="bathroom-st20" d="M250.8,249.3c0.6,0.4,0.6,0.9,0,1.2c-0.6,0.4-1.5,0.4-2.1,0c-0.6-0.4-0.6-0.9,0-1.2
										C249.3,249,250.2,249,250.8,249.3z M248.9,250.4c0.5,0.2,1.2,0.2,1.7,0c0.5-0.2,0.5-0.7,0-0.9s-1.2-0.3-1.7,0
										C248.4,249.7,248.4,250.1,248.9,250.4"/>
								</g>
							</g>
						</g>
					</g>
					<g id="ripple_inner">
						<g id="puddle_c_21_">
							<g>
								<g>
									<path class="bathroom-st20" d="M250,249.7c0.2,0.1,0.2,0.2,0,0.4c-0.2,0.1-0.4,0.1-0.6,0s-0.2-0.2,0-0.4
										C249.6,249.7,249.9,249.7,250,249.7z M249.5,250c0.1,0.1,0.3,0.1,0.4,0c0.1-0.1,0.1-0.2,0-0.2c-0.1-0.1-0.3-0.1-0.4,0
										C249.4,249.9,249.4,250,249.5,250"/>
								</g>
							</g>
						</g>
					</g>
				</g>
				<g id="puddle_ring3">
					<g id="ripple_inner_1_">
						<g id="puddle_c_23_">
							<g>
								<g>
									<path class="bathroom-st20" d="M257.7,256.8c0.2,0.1,0.2,0.2,0,0.4c-0.2,0.1-0.4,0.1-0.6,0c-0.2-0.1-0.2-0.2,0-0.4
										C257.3,256.7,257.6,256.7,257.7,256.8z M257.2,257.1c0.1,0.1,0.3,0.1,0.4,0c0.1-0.1,0.1-0.2,0-0.2s-0.3-0.1-0.4,0
										C257.1,256.9,257.1,257,257.2,257.1"/>
								</g>
							</g>
						</g>
					</g>
					<g id="ripple_outer_1_">
						<g id="puddle_c_36_">
							<g>
								<g>
									<path class="bathroom-st20" d="M258.4,256.4c0.6,0.4,0.6,0.9,0,1.2c-0.6,0.4-1.5,0.4-2.1,0c-0.6-0.4-0.6-0.9,0-1.2
										C257,256,257.8,256,258.4,256.4z M256.6,257.4c0.5,0.2,1.2,0.2,1.7,0c0.5-0.2,0.5-0.7,0-0.9c-0.5-0.3-1.2-0.2-1.7,0
										C256.1,256.7,256.1,257.2,256.6,257.4"/>
								</g>
							</g>
						</g>
					</g>
				</g>
				<g id="puddle_ring2">
					<g id="ripple_inner_2_">
						<g id="puddle_c_20_">
							<g>
								<g>
									<path class="bathroom-st20" d="M242.5,257.4c0.2,0.1,0.2,0.2,0,0.4s-0.4,0.1-0.6,0c-0.2-0.1-0.2-0.2,0-0.4
										C242.1,257.3,242.3,257.3,242.5,257.4z M242,257.7c0.1,0.1,0.3,0.1,0.4,0c0.1-0.1,0.1-0.2,0-0.2c-0.1-0.1-0.3-0.1-0.4,0
										C241.9,257.5,241.9,257.6,242,257.7"/>
								</g>
							</g>
						</g>
					</g>
					<g id="ripple_outer_2_">
						<g id="puddle_c_19_">
							<g>
								<g>
									<path class="bathroom-st20" d="M243.3,257c0.6,0.4,0.6,0.9,0,1.2c-0.6,0.4-1.5,0.4-2.1,0c-0.6-0.4-0.6-0.9,0-1.2
										C241.7,256.6,242.7,256.6,243.3,257z M241.4,258c0.5,0.2,1.2,0.3,1.7,0s0.5-0.7,0-0.9c-0.5-0.2-1.2-0.3-1.7,0
										C240.9,257.3,240.9,257.8,241.4,258"/>
								</g>
							</g>
						</g>
					</g>
				</g>
				<g id="puddle_ring1">
					<g id="ripple_outer_3_">
						<g id="puddle_c_28_">
							<g>
								<g>
									<path class="bathroom-st20" d="M251.6,264.8c0.6,0.4,0.6,0.9,0,1.2c-0.6,0.4-1.5,0.4-2.1,0c-0.6-0.4-0.6-0.9,0-1.2
										C250.1,264.4,251,264.4,251.6,264.8z M249.7,265.8c0.5,0.2,1.2,0.3,1.7,0s0.5-0.7,0-0.9c-0.5-0.2-1.2-0.3-1.7,0
										C249.3,265.1,249.3,265.6,249.7,265.8"/>
								</g>
							</g>
						</g>
					</g>
					<g id="ripple_inner_3_">
						<g id="puddle_c_25_">
							<g>
								<g>
									<path class="bathroom-st20" d="M250.9,265.2c0.2,0.1,0.2,0.2,0,0.4c-0.2,0.1-0.4,0.1-0.6,0c-0.2-0.1-0.2-0.2,0-0.4
										C250.4,265.1,250.7,265.1,250.9,265.2z M250.3,265.5c0.1,0.1,0.3,0.1,0.4,0c0.1-0.1,0.1-0.2,0-0.2c-0.1-0.1-0.3-0.1-0.4,0
										C250.2,265.3,250.2,265.4,250.3,265.5"/>
								</g>
							</g>
						</g>
					</g>
				</g>
			</g>
		</g>
		<g>
			<line class="bathroom-st21" x1="154" y1="73.1" x2="145.9" y2="78.4"/>
			<path class="bathroom-st4" d="M230.5,114"/>
			<path class="bathroom-st4" d="M220.1,120"/>
		</g>
		<g>
			<polygon class="bathroom-st22" points="105.9,209.6 42.1,246 42.1,150.9 105.9,114.5 			"/>
			<g>
				
					<linearGradient id="bathroom-SVGID_7_" gradientUnits="userSpaceOnUse" x1="46.7188" y1="347.1345" x2="106.9381" y2="290.0033" gradientTransform="matrix(1 0 0 -1 0 500.6999)">
					<stop  offset="0" style="stop-color:#FFFFFF"/>
					<stop  offset="1" style="stop-color:#9E9E9E"/>
				</linearGradient>
				<polygon class="bathroom-st23" points="108.4,211.2 44.7,247.6 44.7,152.5 108.4,116.1 				"/>
				
					<linearGradient id="bathroom-SVGID_8_" gradientUnits="userSpaceOnUse" x1="74.2174" y1="363.8145" x2="49.2313" y2="282.3991" gradientTransform="matrix(1 0 0 -1 0 500.6999)">
					<stop  offset="0" style="stop-color:#FFFFFF"/>
					<stop  offset="1" style="stop-color:#A5A5A5"/>
				</linearGradient>
				<polygon class="bathroom-st24" points="108.4,116.1 105.9,114.5 42.1,150.9 42.1,246 44.7,247.6 44.7,152.5 				"/>
			</g>
			
				<linearGradient id="bathroom-SVGID_9_" gradientUnits="userSpaceOnUse" x1="51.5563" y1="341.1234" x2="102.0176" y2="293.2498" gradientTransform="matrix(1 0 0 -1 0 500.6999)">
				<stop  offset="0" style="stop-color:#FFFFFF"/>
				<stop  offset="1" style="stop-color:#9E9E9E"/>
			</linearGradient>
			<polygon class="bathroom-st25" points="103.2,207.9 49.8,238.4 49.8,158.7 103.2,128.2 			"/>
			<polygon class="bathroom-st22" points="44.7,238.4 89,128.2 108.4,116.1 108.4,131.9 51.1,243.4 44.7,247.6 			"/>
			<polyline class="bathroom-st22" points="107.8,140.6 108.4,147.6 59.5,238.5 			"/>
		</g>
		<g>
			
				<linearGradient id="light_1_" gradientUnits="userSpaceOnUse" x1="77.8397" y1="375.6273" x2="77.9921" y2="284.7889" gradientTransform="matrix(1 0 0 -1 0 500.6999)">
				<stop  offset="0" style="stop-color:#FFF200;stop-opacity:0.8"/>
				<stop  offset="1" style="stop-color:#FFF200;stop-opacity:0"/>
			</linearGradient>
			<polygon id="light" class="bathroom-st26" points="93.8,228.5 62.2,230.2 62.2,130 93.1,127.9 			"/>
			
				<linearGradient id="bathroom-SVGID_10_" gradientUnits="userSpaceOnUse" x1="77.0871" y1="384.5615" x2="85.8483" y2="351.6027" gradientTransform="matrix(1 0 0 -1 0 500.6999)">
				<stop  offset="0" style="stop-color:#FFFFFF"/>
				<stop  offset="1" style="stop-color:#9E9E9E"/>
			</linearGradient>
			<polygon class="bathroom-st27" points="93.1,127.9 67.6,142.8 67.6,129.1 93.1,114.3 			"/>
			
				<linearGradient id="bathroom-SVGID_11_" gradientUnits="userSpaceOnUse" x1="74.8951" y1="383.9789" x2="83.6563" y2="351.0201" gradientTransform="matrix(1 0 0 -1 0 500.6999)">
				<stop  offset="0" style="stop-color:#FFFFFF"/>
				<stop  offset="1" style="stop-color:#9E9E9E"/>
			</linearGradient>
			<polygon class="bathroom-st28" points="93.1,114.3 87.7,111.5 62.2,126.3 62.2,139.9 67.6,142.8 67.6,129.1 			"/>
		</g>
		<g id="lightswitch_back">
			<g>
				<g>
					<g>
						<polygon class="bathroom-st29" points="121.4,205.1 121,204.9 121,187.2 121.3,187.5 						"/>
					</g>
					<g>
						<polygon class="bathroom-st30" points="121.3,187.5 121,187.2 131.5,181.3 131.9,181.4 						"/>
					</g>
					<g>
						<polygon class="bathroom-st31" points="131.9,181.4 131.9,199.1 121.4,205.1 121.3,187.5 						"/>
					</g>
				</g>
				<g>
					<g>
						<g>
							<polygon class="bathroom-st32" points="125,197 124.9,196.9 124.9,191.3 125,191.4 							"/>
						</g>
						<g>
							<polygon class="bathroom-st32" points="125,191.4 124.9,191.3 128.3,189.4 128.4,189.4 							"/>
						</g>
						<g>
							<polygon class="bathroom-st33" points="128.4,189.4 128.4,195.1 125,197 125,191.4 							"/>
						</g>
					</g>
				</g>
			</g>
			<g>
				<g>
					<g class="bathroom-st10">
						<g>
							<polygon class="bathroom-st34" points="126.3,193.6 127.8,192.8 127.7,190.6 126.3,191.4 							"/>
						</g>
						<g>
							<polygon class="bathroom-st35" points="127.6,195.6 128.1,193.7 126.3,193.6 126.3,191.4 126.1,191.6 126.1,195.9 							"/>
						</g>
					</g>
				</g>
				<g>
					<g>
						<g class="bathroom-st10">
							<g>
								<polygon class="bathroom-st34" points="127.6,194 129.2,193 129.8,195 128.1,195.9 								"/>
							</g>
							<g>
								<polygon class="bathroom-st30" points="126.3,193.6 127.8,192.8 129.2,193 127.6,194 								"/>
							</g>
							<g>
								<polyline class="bathroom-st35" points="126.1,196 126.1,193.7 127.6,194 128.1,195.9 126.1,196 								"/>
							</g>
						</g>
					</g>
				</g>
			</g>
		</g>
		
			<linearGradient id="bathroom-SVGID_12_" gradientUnits="userSpaceOnUse" x1="139.6178" y1="230.4716" x2="139.6178" y2="230.4716" gradientTransform="matrix(1 0 0 -1 0 500.6999)">
			<stop  offset="0" style="stop-color:#F1F2F2"/>
			<stop  offset="1" style="stop-color:#BCBEC0"/>
		</linearGradient>
		<path class="bathroom-st36" d="M139.6,270.2"/>
		
			<linearGradient id="bathroom-SVGID_13_" gradientUnits="userSpaceOnUse" x1="76.1192" y1="193.8058" x2="76.1192" y2="193.8058" gradientTransform="matrix(1 0 0 -1 0 500.6999)">
			<stop  offset="0" style="stop-color:#F1F2F2"/>
			<stop  offset="1" style="stop-color:#BCBEC0"/>
		</linearGradient>
		<path class="bathroom-st37" d="M76.1,306.9"/>
		<g id="window_back">
			<polygon class="bathroom-st38" points="328.4,168 327.2,131.5 400.2,174.5 401.3,211 			"/>
			<g>
				<polygon class="bathroom-st39" points="318.4,174.9 322.5,172.1 325.4,170.1 328.4,168 331.2,166.1 330,125.6 327,123.9 324,122.1 
					320.9,120.2 319.7,119.6 316.8,121.6 				"/>
			</g>
			<g>
				<polygon class="bathroom-st39" points="318.4,174.9 404.7,225.7 407.7,223.7 407.7,222.3 407.5,218.5 407.4,214.6 407.4,210.9 373,190.7 
					369.9,188.9 366.8,187.1 331.2,166.1 328.4,168 325.4,170.1 322.5,172.1 				"/>
				<g class="bathroom-st40">
					<g class="bathroom-st10">
						<polygon class="bathroom-st41" points="328.4,168 327.2,131.5 400.2,174.5 401.3,211 						"/>
						<g>
							<polygon class="bathroom-st39" points="367,194.6 370,192.6 328.4,168.1 325.4,170.1 							"/>
						</g>
						<g>
							<polygon class="bathroom-st38" points="367.1,195.4 370,193.4 370,192.6 367,194.6 							"/>
						</g>
						<g>
							<polygon class="bathroom-st39" points="325.4,170.1 325.4,170.1 328.4,168.1 328.4,168 327,123.9 324,122.1 							"/>
						</g>
						<g>
							<polygon class="bathroom-st38" points="370.2,197.3 373.1,195.2 370,193.4 367.1,195.4 							"/>
						</g>
						<g>
							<polygon class="bathroom-st38" points="370.2,197.3 373.1,195.2 373.1,194.3 370.1,196.4 							"/>
						</g>
						<g>
							<polygon class="bathroom-st39" points="370.1,196.4 370.8,196.8 407.5,218.5 407.4,214.6 373.1,194.3 372.5,194.8 							"/>
						</g>
						<g>
							<polygon class="bathroom-st39" points="370.1,196.4 372.5,194.8 373.1,194.3 373,190.7 371.8,150.2 368.7,148.4 369.9,188.9 
								370,193.4 							"/>
						</g>
						<g>
							<path class="bathroom-st38" d="M322.5,172.1l85.2,50.2l-0.1-3.9l-36.8-21.7l-0.7-0.4v0.8l-3.1-1.8v-0.8L325.5,170v-0.1l-1.4-48
								l-3.1-1.8L322.5,172.1z"/>
						</g>
						<g>
							<polygon class="bathroom-st38" points="367,194.6 367.1,195.4 370.2,197.3 370.1,196.4 370,193.4 369.9,188.9 368.7,148.4 
								365.6,146.5 366.8,187.1 366.9,190.7 							"/>
						</g>
					</g>
				</g>
			</g>
			<g>
				<path class="bathroom-st42" d="M407.9,231.4l-92.5-54.5l-1.8-61l92.5,54.5L407.9,231.4z M318.4,174.9l86.4,50.9l-1.6-53.3l-86.4-50.9
					L318.4,174.9"/>
			</g>
			<g>
				<g class="bathroom-st10">
					<g>
						<polygon class="bathroom-st39" points="315.4,176.9 318.4,174.9 316.8,121.6 313.8,123.6 						"/>
					</g>
					<g>
						<polygon class="bathroom-st39" points="401.8,227.8 404.7,225.7 318.4,174.9 315.4,176.9 						"/>
					</g>
					<g>
						<polygon class="bathroom-st39" points="405,233.4 407.9,231.4 406.1,170.5 403.1,172.5 						"/>
					</g>
					<g>
						<polygon class="bathroom-st39" points="403.1,172.5 406.1,170.5 313.6,115.9 310.6,117.9 						"/>
					</g>
					<g>
						<path class="bathroom-st38" d="M405,233.4l-92.5-54.5l-1.8-60.9l92.5,54.5L405,233.4z M315.4,176.9l86.4,50.9l-1.6-53.3l-86.4-50.9
							L315.4,176.9"/>
					</g>
				</g>
			</g>
		</g>
		<g id="toilet">
			<path class="bathroom-st43" d="M384.5,292.5c0,0-9.1,12.5-19.8,7.9c-8.5-3.6-6-11.4-4.2-14.3c0.6-0.9,1.1-1.5,1.8-2.4
				c2.5-2.6,10.2-7.9,18.1-2.7C390,287.2,384.5,292.5,384.5,292.5z"/>
			
				<linearGradient id="bathroom-SVGID_14_" gradientUnits="userSpaceOnUse" x1="378.1811" y1="223.8758" x2="372.4969" y2="207.0352" gradientTransform="matrix(1 5.616738e-03 5.616738e-03 -1 -4.0016 501.2629)">
				<stop  offset="0" style="stop-color:#F1F2F2"/>
				<stop  offset="1" style="stop-color:#A7A9AC"/>
			</linearGradient>
			<path class="bathroom-st44" d="M361,292.3l21.6-11.3c0,0,4.5,2.7-3.1,8.5C371.9,295.5,363.4,295.6,361,292.3z"/>
			<path class="bathroom-st45" d="M361,292.3l21.6-11.3c0,0,0.8,3.6-6,8C369.9,293.5,363.3,294.5,361,292.3z"/>
			<path class="bathroom-st46" d="M383.8,279.7c0,0-13,17.5-27.4,11.7c-11.5-4.6-7.7-15.3-5.2-19.4c0.8-1.4,1.5-2.2,2.6-3.3
				c3.6-3.7,14.3-11.2,24.9-4.6C391.5,272.2,383.8,279.7,383.8,279.7z"/>
			
				<radialGradient id="bathroom-SVGID_15_" cx="391.2306" cy="258.0774" r="11.515" gradientTransform="matrix(0.9974 7.234246e-02 7.234246e-02 -0.9974 -42.067 506.2151)" gradientUnits="userSpaceOnUse">
				<stop  offset="0" style="stop-color:#F1F2F2"/>
				<stop  offset="0.3839" style="stop-color:#EFF0F0"/>
				<stop  offset="0.5641" style="stop-color:#E9EAEB"/>
				<stop  offset="0.7018" style="stop-color:#DEDFE1"/>
				<stop  offset="0.8179" style="stop-color:#CFD1D2"/>
				<stop  offset="0.9193" style="stop-color:#BBBDC0"/>
				<stop  offset="1" style="stop-color:#A7A9AC"/>
			</radialGradient>
			<path class="bathroom-st47" d="M377.8,278.9c0,0-8.6,11.7-18.3,7.8c-7.6-3.1-5.3-10.2-3.4-12.9c0.5-0.8,2-2.4,2.7-3
				c2.5-2.3,8.6-6.7,15.7-2.3C383,273.8,377.8,278.9,377.8,278.9z"/>
			<path class="bathroom-st46" d="M393.2,261.3c0,0,9.4-19.6-2.5-29.7c-9.4-8-17.1,0.4-19.5,4.5c-0.7,1.1-1.3,2.5-1.7,3.9
				c-1.5,4.9-3.3,17.8,7.6,24.2C390.2,271.7,393.2,261.3,393.2,261.3z"/>
			
				<linearGradient id="bathroom-SVGID_16_" gradientUnits="userSpaceOnUse" x1="520.8647" y1="221.0015" x2="522.4444" y2="220.005" gradientTransform="matrix(0.842 -7.760885e-03 0.1387 -0.9632 -95.5997 478.6425)">
				<stop  offset="0" style="stop-color:#FFFFFF"/>
				<stop  offset="1" style="stop-color:#939598"/>
			</linearGradient>
			<path class="bathroom-st48" d="M374.7,262.8l-1.3-0.7c-0.1,0-0.1-0.1-0.1-0.1l0.2-0.4c0-0.1,0.1-0.1,0.1-0.1l1.3,0.7
				c0.1,0,0.1,0.1,0.1,0.1l-0.2,0.4C374.8,262.8,374.8,262.9,374.7,262.8z"/>
			
				<linearGradient id="bathroom-SVGID_17_" gradientUnits="userSpaceOnUse" x1="530.0506" y1="197.8577" x2="532.2301" y2="196.8407" gradientTransform="matrix(0.8546 -2.451519e-02 0.1548 -0.9415 -102.9977 464.9115)">
				<stop  offset="0" style="stop-color:#FFFFFF"/>
				<stop  offset="1" style="stop-color:#939598"/>
			</linearGradient>
			<path class="bathroom-st49" d="M381.8,266.8l-1.4-0.9c-0.1-0.1-0.1-0.1,0-0.1l0.3-0.5c0.1-0.1,0.1-0.1,0.1,0l1.4,0.9
				c0.1,0.1,0.1,0.1,0,0.1l-0.3,0.5C381.9,266.8,381.9,266.9,381.8,266.8z"/>
		</g>
		
			<linearGradient id="bathroom-SVGID_18_" gradientUnits="userSpaceOnUse" x1="146.6074" y1="424.6992" x2="146.6074" y2="424.6992" gradientTransform="matrix(1 0 0 -1 0 500.6999)">
			<stop  offset="0" style="stop-color:#F1F2F2"/>
			<stop  offset="1" style="stop-color:#BCBEC0"/>
		</linearGradient>
		<path class="bathroom-st50" d="M146.6,76"/>
		<path class="bathroom-st51" d="M79.9,281.2"/>
		<g id="outlet">
			<g>
				<g>
					<g>
						<polygon class="bathroom-st29" points="23.3,284 22.9,283.7 22.9,262.6 23.3,262.9 						"/>
					</g>
					<g>
						<polygon class="bathroom-st30" points="23.3,262.9 22.9,262.6 35.4,255.5 35.8,255.8 						"/>
					</g>
					<g>
						<polygon class="bathroom-st31" points="35.8,255.8 36,276.7 23.4,284 23.3,262.9 						"/>
					</g>
				</g>
				<g>
					<g class="bathroom-st10">
						<g>
							<path class="bathroom-st30" d="M31.7,267.2l0.4,0.2c-0.4-0.3-1.1-0.2-1.8,0.1l-0.4-0.2C30.6,266.9,31.3,266.9,31.7,267.2z"/>
						</g>
						<g>
							<path class="bathroom-st30" d="M28.4,273.6l-0.4-0.2c-0.4-0.3-0.7-0.8-0.7-1.7c0-1.7,1.1-3.6,2.5-4.4l0.4,0.2
								c-1.4,0.8-2.5,2.8-2.5,4.4C27.7,272.7,28,273.3,28.4,273.6z"/>
						</g>
						<g>
							<path class="bathroom-st52" d="M30.3,267.6c1.4-0.8,2.6-0.1,2.6,1.4c0,1.7-1.1,3.6-2.5,4.4c-1.4,0.8-2.6,0.1-2.6-1.4
								C27.7,270.4,28.9,268.3,30.3,267.6z"/>
						</g>
						<g>
							<path d="M29.3,271.1c0.2-0.1,0.4,0,0.4,0.2s-0.1,0.4-0.4,0.6c-0.2,0.1-0.4,0-0.4-0.2S29.1,271.2,29.3,271.1z"/>
						</g>
						<g>
							<path d="M31.3,269.6c0.2-0.1,0.4,0,0.4,0.2s-0.1,0.4-0.4,0.6c-0.2,0.1-0.4,0-0.4-0.2S31.1,269.8,31.3,269.6z"/>
						</g>
					</g>
				</g>
			</g>
		</g>
		<path class="bathroom-st53" d="M37.9,274.7"/>
		
	</g>
	<g id="gui">
		<g id="lightswitch">
			<g>
				<g>
					<g>
						<polygon class="bathroom-st29" points="121.4,205.1 121,204.9 121,187.2 121.3,187.5 						"/>
					</g>
					<g>
						<polygon class="bathroom-st30" points="121.3,187.5 121,187.2 131.4,181.3 131.8,181.4 						"/>
					</g>
					<g>
						<polygon class="bathroom-st31" points="131.8,181.4 131.9,199.1 121.4,205.1 121.3,187.5 						"/>
					</g>
				</g>
				<g>
					<g>
						<g>
							<polygon class="bathroom-st32" points="125,197 124.9,196.9 124.9,191.3 125,191.3 							"/>
						</g>
						<g>
							<polygon class="bathroom-st32" points="125,191.3 124.9,191.3 128.2,189.4 128.4,189.4 							"/>
						</g>
						<g>
							<polygon class="bathroom-st33" points="128.4,189.4 128.4,195.1 125,197 125,191.3 							"/>
						</g>
					</g>
				</g>
			</g>
			<g>
				<g>
					<g class="bathroom-st10">
						<g>
							<polygon class="bathroom-st54" points="126.1,193.8 127.7,192.8 127.7,195 126.1,195.9 							"/>
						</g>
						<g>
							<polygon class="bathroom-st34" points="127.4,191.7 129,190.8 129.5,192.7 127.9,193.6 							"/>
						</g>
						<g>
							<polygon class="bathroom-st30" points="125.9,191.4 127.5,190.5 129,190.8 127.4,191.7 							"/>
						</g>
						<g>
							<polygon class="bathroom-st35" points="127.4,191.7 127.9,193.6 126.1,193.8 126.1,195.9 125.9,195.8 125.9,191.4 							"/>
						</g>
					</g>
				</g>
			</g>
		</g>
		<g id="shower">
			<g id="shower_drops_2_">
				<g id="showerdrop4">
					<g id="drio3_6_">
						<g class="bathroom-st10">
							<g>
								<path class="bathroom-st55" d="M250.6,96.5c0.1,0.1,2.1,1.8,2.2,3.1c0.2,1.7-0.8,3.4-2.2,4.1c-1.4,0.8-2.4,0.4-2.2-1.6
									C248.6,100.6,250.6,96.7,250.6,96.5z"/>
							</g>
							<g>
								<path class="bathroom-st56" d="M249,104l-1.8-1.1c-0.4-0.2-0.7-0.8-0.5-1.8c0.2-1.5,2.1-5.4,2.2-5.6l1.8,1.1c-0.1,0.2-2,4.2-2.2,5.6
									C248.3,103.1,248.5,103.7,249,104z"/>
							</g>
						</g>
					</g>
				</g>
				<g id="showerdrop3">
					<g id="drio3_3_">
						<g class="bathroom-st10">
							<g>
								<path class="bathroom-st55" d="M258.3,103.4c0.1,0.1,2.1,1.8,2.2,3.1c0.2,1.7-0.8,3.4-2.2,4.1c-1.4,0.8-2.4,0.4-2.2-1.6
									C256.3,107.6,258.3,103.5,258.3,103.4z"/>
							</g>
							<g>
								<path class="bathroom-st56" d="M256.7,110.8l-1.8-1.1c-0.4-0.2-0.7-0.8-0.5-1.8c0.2-1.5,2.1-5.4,2.2-5.6l1.8,1.1
									c-0.1,0.2-2,4.2-2.2,5.6C256,110,256.2,110.6,256.7,110.8z"/>
							</g>
						</g>
					</g>
				</g>
				<g id="showerdrop2">
					<g id="drio3_2_">
						<g class="bathroom-st10">
							<g>
								<path class="bathroom-st55" d="M243.1,104.1c0.1,0.1,2.1,1.8,2.2,3.1c0.2,1.7-0.8,3.4-2.2,4.1c-1.4,0.8-2.4,0.4-2.2-1.6
									C241.1,108.3,243,104.3,243.1,104.1z"/>
							</g>
							<g>
								<path class="bathroom-st56" d="M241.5,111.5l-1.8-1.1c-0.4-0.2-0.7-0.8-0.5-1.8c0.2-1.5,2.1-5.4,2.2-5.6l1.8,1.1
									c-0.1,0.2-2,4.2-2.2,5.6C240.8,110.7,241,111.3,241.5,111.5z"/>
							</g>
						</g>
					</g>
				</g>
				<g id="showerdrop1">
					<g id="drio3_4_">
						<g class="bathroom-st10">
							<g>
								<path class="bathroom-st55" d="M251.3,111.8c0.1,0.1,2.1,1.8,2.2,3.1c0.2,1.7-0.8,3.4-2.2,4.1s-2.4,0.4-2.2-1.6
									C249.3,116,251.2,112.1,251.3,111.8z"/>
							</g>
							<g>
								<path class="bathroom-st56" d="M249.6,119.3l-1.8-1.1c-0.4-0.2-0.7-0.8-0.5-1.8c0.2-1.5,2.1-5.4,2.2-5.6l1.8,1.1
									c-0.1,0.2-2,4.2-2.2,5.6C249,118.5,249.2,119.1,249.6,119.3z"/>
							</g>
						</g>
					</g>
				</g>
			</g>
			<g id="shower_head">
				<g class="bathroom-st10">
					<g>
						
							<linearGradient id="bathroom-SVGID_19_" gradientUnits="userSpaceOnUse" x1="218.1026" y1="393.0091" x2="285.2145" y2="393.0091" gradientTransform="matrix(1 0 0 -1 0 500.6999)">
							<stop  offset="0" style="stop-color:#F1F2F2"/>
							<stop  offset="1" style="stop-color:#BCBEC0"/>
						</linearGradient>
						<polygon class="bathroom-st57" points="285.2,107.7 251.7,127.1 218.1,107.7 251.6,88.3 						"/>
					</g>
					<g>
						
							<linearGradient id="bathroom-SVGID_20_" gradientUnits="userSpaceOnUse" x1="251.7474" y1="381.4881" x2="285.2145" y2="381.4881" gradientTransform="matrix(1 0 0 -1 0 500.6999)">
							<stop  offset="0" style="stop-color:#F1F2F2"/>
							<stop  offset="1" style="stop-color:#BCBEC0"/>
						</linearGradient>
						<polygon class="bathroom-st58" points="285.2,107.7 285.2,111.3 251.7,130.7 251.7,127.1 						"/>
					</g>
					<g>
						<polygon class="bathroom-st2" points="251.7,127.1 251.7,130.7 218.1,111.3 218.1,107.7 						"/>
					</g>
				</g>
				<g>
					<g>
						
							<linearGradient id="bathroom-SVGID_21_" gradientUnits="userSpaceOnUse" x1="217.2733" y1="405.0039" x2="251.6289" y2="405.0039" gradientTransform="matrix(1 0 0 -1 0 500.6999)">
							<stop  offset="0" style="stop-color:#F1F2F2"/>
							<stop  offset="1" style="stop-color:#BCBEC0"/>
						</linearGradient>
						<polygon class="bathroom-st59" points="246.3,105.3 217.3,89.3 222.6,86.1 251.6,102.1 						"/>
						<polygon class="bathroom-st2" points="217.3,89.3 217.3,91.6 246.3,107.7 246.3,105.3 						"/>
					</g>
					
						<linearGradient id="bathroom-SVGID_22_" gradientUnits="userSpaceOnUse" x1="246.2979" y1="395.7931" x2="251.6289" y2="395.7931" gradientTransform="matrix(1 0 0 -1 0 500.6999)">
						<stop  offset="0" style="stop-color:#F1F2F2"/>
						<stop  offset="1" style="stop-color:#BCBEC0"/>
					</linearGradient>
					<polygon class="bathroom-st60" points="246.3,105.3 246.3,107.7 251.6,104.4 251.6,102.1 					"/>
				</g>
			</g>
		</g>
		<g id="sink_2_">
			<path class="bathroom-st61" d="M115.2,248.4c0,0-2.7,11.8-23.5,12.3c0,0-20.2,0.1-24-12.5c0,0-1.7,14.8,10.1,18.9c0,0,12.4,6.4,27.1-0.6
				c3.1-1.5,6-4.7,7.7-7.6c0.8-1.4,1.4-2.8,1.8-4.4C114.9,252.6,114.7,250.2,115.2,248.4z"/>
			<path class="bathroom-st22" d="M90.6,269"/>
			<path class="bathroom-st22" d="M70.2,257.7c0-6.3,9.1-11.3,20.4-11.3c11.3,0,20.4,5.1,20.4,11.3"/>
			
				<radialGradient id="bathroom-SVGID_23_" cx="77.0923" cy="126.5213" r="24.4915" gradientTransform="matrix(1.0211 0 0 -0.4811 12.4143 315.118)" gradientUnits="userSpaceOnUse">
				<stop  offset="0" style="stop-color:#E6E7E8"/>
				<stop  offset="1" style="stop-color:#D1D3D4"/>
			</radialGradient>
			<ellipse class="bathroom-st62" cx="91.3" cy="246.2" rx="21.7" ry="12"/>
			<path id="sink_water" class="bathroom-st63" d="M96.1,258.7c0-1.2-1.8-2.4-3.6-2.4c-1.8,0-3.3,1.5-3.3,2.7c0,0,1.2,0.1,3.4,0
				C94.9,258.8,96.1,258.7,96.1,258.7z"/>
			
				<radialGradient id="bathroom-SVGID_24_" cx="91.3352" cy="498.0488" r="12.1231" fx="90.4678" fy="498.1545" gradientTransform="matrix(1 0 0 1 0 -240.1102)" gradientUnits="userSpaceOnUse">
				<stop  offset="5.154639e-03" style="stop-color:#E6E7E8"/>
				<stop  offset="1" style="stop-color:#D1D3D4"/>
			</radialGradient>
			<path class="bathroom-st64" d="M115.2,248.4c0,0-2.8,10.8-23.7,11.2c0,0-20.2,0.1-24-12.5c0,0-1.6,14.6,10.1,19.1c0,0,12.3,6.2,27-0.8
				c3.1-1.5,5.9-4.4,7.7-7.3c0.8-1.4,1.7-2.8,2.1-4.4C115.1,251.9,114.7,250.2,115.2,248.4z"/>
			<path class="bathroom-st65" d="M91.5,260c-13.4,0-24-6.1-24-13.9s10.5-13.9,24-13.9s24,6.1,24,13.9S105,260,91.5,260z M91.5,234.7
				c-11.7,0-21.6,5.2-21.6,11.4c0,6.2,9.9,11.4,21.6,11.4s21.6-5.2,21.6-11.4C113,240,103.2,234.7,91.5,234.7z"/>
			<g id="sink_drops_2_">
				<g id="drop2">
					<g class="bathroom-st10">
						<g>
							<path class="bathroom-st55" d="M95.4,240.3c0.1,0.1,1.4,1.2,1.4,2c0.1,1.1-0.5,2.2-1.4,2.7c-0.9,0.5-1.5,0.2-1.4-1.1
								C94.1,243,95.3,240.4,95.4,240.3z"/>
						</g>
						<g>
							<path class="bathroom-st56" d="M94.4,245.2l-1.2-0.7c-0.2-0.1-0.4-0.5-0.3-1.2c0.1-0.9,1.4-3.5,1.4-3.6l1.2,0.7
								c-0.1,0.1-1.3,2.7-1.4,3.6C93.9,244.6,94,245,94.4,245.2z"/>
						</g>
					</g>
				</g>
				<g id="drop1_2_">
					<g class="bathroom-st10">
						<g>
							<path class="bathroom-st55" d="M95.4,240.4c0.1,0.1,1.4,1.2,1.4,2c0.1,1.1-0.5,2.2-1.4,2.7c-0.9,0.5-1.5,0.2-1.4-1.1
								C94.1,243.2,95.3,240.6,95.4,240.4z"/>
						</g>
						<g>
							<path class="bathroom-st56" d="M94.3,245.2l-1.2-0.7c-0.2-0.1-0.4-0.5-0.3-1.2c0.1-0.9,1.4-3.5,1.4-3.6l1.2,0.7
								c-0.1,0.1-1.3,2.7-1.4,3.6C93.9,244.7,94,245.1,94.3,245.2z"/>
						</g>
					</g>
				</g>
			</g>
			<g>
				<g>
					
						<linearGradient id="bathroom-SVGID_25_" gradientUnits="userSpaceOnUse" x1="72.3875" y1="263.0205" x2="100.8197" y2="263.0205" gradientTransform="matrix(1 0 0 -1 0 500.6999)">
						<stop  offset="0" style="stop-color:#F1F2F2"/>
						<stop  offset="1" style="stop-color:#BCBEC0"/>
					</linearGradient>
					<polygon class="bathroom-st66" points="96.4,245.6 72.4,232.4 76.8,229.7 100.8,242.9 					"/>
					<polygon class="bathroom-st2" points="72.4,232.4 72.4,234.3 96.4,247.5 96.4,245.6 					"/>
				</g>
				
					<linearGradient id="bathroom-SVGID_26_" gradientUnits="userSpaceOnUse" x1="96.4179" y1="255.4682" x2="100.8343" y2="255.4682" gradientTransform="matrix(1 0 0 -1 0 500.6999)">
					<stop  offset="0" style="stop-color:#F1F2F2"/>
					<stop  offset="1" style="stop-color:#BCBEC0"/>
				</linearGradient>
				<polygon class="bathroom-st67" points="96.4,245.6 96.4,247.5 100.8,244.9 100.8,242.9 				"/>
			</g>
			<path class="bathroom-st65" d="M70.3,246.5"/>
		</g>
		<g id="window_1_">
			<polygon class="bathroom-st38" points="328.6,168.1 327.4,131.7 400.2,174.6 401.3,211.1 			"/>
			<g>
				<polygon class="bathroom-st39" points="318.7,175 322.7,172.2 325.7,170.1 328.6,168.1 331.4,166.2 330.2,125.8 327.3,124 324.2,122.3 
					321.1,120.4 320,119.8 317.1,121.8 				"/>
			</g>
			<g>
				<polygon class="bathroom-st39" points="325,171.7 407.5,221.4 407.5,219.9 407.2,217.6 407.1,213.2 407.3,210.2 406.9,203.6 379.4,187.4 
					376.3,185.6 373.2,183.8 337.8,162.9 335,164.8 332,166.8 329,168.9 				"/>
				<g>
					<g class="bathroom-st10">
						<g>
							<g id="window_outside_2_" class="bathroom-st10">
								<g>
									<polygon class="bathroom-st68" points="371.2,197.5 374.1,195.5 329.5,169.2 326.6,171.2 									"/>
								</g>
								<g>
									<polygon class="bathroom-st68" points="326.6,171.2 326.6,171.2 329.5,169.2 329.5,169.2 328.2,125.1 325.1,123.3 									"/>
								</g>
								<g>
									<polygon class="bathroom-st68" points="371.2,198.3 374.1,196.3 374.1,195.5 371.2,197.5 									"/>
								</g>
								<g>
									<polygon class="bathroom-st68" points="371.2,197.5 371.8,197.9 407.4,219.2 407.2,215 374.1,195.5 373.5,195.9 									"/>
								</g>
								<g>
									<path class="bathroom-st68" d="M368,195.7l-41.5-24.5v-0.1l-1.4-47.9l-3.1-1.8l1.5,51.8l84.1,49l-0.4-3.1L371.8,198l-0.7-0.4"/>
								</g>
							</g>
						</g>
						<polygon class="bathroom-st41" points="335,164.8 328.4,126.8 404.7,171.9 407.2,207.5 						"/>
						<g>
							<polygon class="bathroom-st39" points="373.5,191.3 376.4,189.3 335,164.9 332,166.9 							"/>
						</g>
						<g>
							<polygon class="bathroom-st38" points="373.5,192.2 376.4,190.1 376.4,189.3 373.5,191.3 							"/>
						</g>
						<g>
							<polygon class="bathroom-st39" points="332,166.8 332,166.9 335,164.9 335,164.8 329.3,125.2 325.7,125.1 							"/>
						</g>
						<g>
							<polygon class="bathroom-st38" points="376.6,194 379.5,191.9 376.4,190.1 373.5,192.2 							"/>
						</g>
						<g>
							<polygon class="bathroom-st38" points="376.6,194 379.5,191.9 379.5,191.2 376.6,193.2 							"/>
						</g>
						<g>
							<polygon class="bathroom-st39" points="376.6,193.2 377.3,193.5 407.1,211.2 407.2,207.5 379.5,191.1 378.9,191.6 							"/>
						</g>
						<g>
							<polygon class="bathroom-st39" points="376.7,193.5 378.9,191.7 379.5,191.2 379.2,187.5 375.8,152.6 372.6,150.8 376,185.9 
								376.4,190.4 							"/>
						</g>
						<g>
							<path class="bathroom-st38" d="M329,168.9l78.2,46.1l0.1-3.7l-30.1-17.8l-0.7-0.4v0.8l-3.1-1.8v-0.8l-41.5-24.5v-0.1l-6.6-43.4l-3.4-2
								L329,168.9z"/>
						</g>
						<g>
							<polygon class="bathroom-st38" points="373.5,191.8 373.6,192.6 376.8,194.3 376.7,193.5 376.4,190.4 376,185.9 372.6,150.8 
								369.3,148.8 372.8,184.3 373.2,188 							"/>
						</g>
					</g>
				</g>
			</g>
			<g>
				<path class="bathroom-st42" d="M407.9,231.4l-92.2-54.4l-1.8-60.8l92.2,54.4L407.9,231.4z M318.7,175l86.1,50.8l-1.6-53.2l-86.1-50.8
					L318.7,175"/>
			</g>
			<g>
				<g class="bathroom-st10">
					<g>
						<polygon class="bathroom-st39" points="315.7,177 318.7,175 317.1,121.8 314.1,123.8 						"/>
					</g>
					<g>
						<polygon class="bathroom-st39" points="401.8,227.8 404.7,225.7 318.7,175 315.7,177 						"/>
					</g>
					<g>
						<polygon class="bathroom-st39" points="405,233.4 407.9,231.4 406.1,170.5 403.1,172.6 						"/>
					</g>
					<g>
						<polygon class="bathroom-st39" points="403.1,172.6 406.1,170.5 313.9,116.2 310.9,118.2 						"/>
					</g>
					<g>
						<path class="bathroom-st38" d="M405,233.4l-92.2-54.4l-1.8-60.8l92.2,54.5L405,233.4z M315.7,177l86.1,50.8l-1.6-53.2l-86.1-50.8
							L315.7,177"/>
					</g>
				</g>
			</g>
		</g>
		<g id="washer_2_">
			<g>
				<g class="bathroom-st10">
					<g>
						<polygon class="bathroom-st69" points="436.9,308.4 479.6,283.6 479.4,349.2 436.7,373.9 						"/>
					</g>
					<g>
						<polygon class="bathroom-st22" points="382.8,277.2 425.5,252.3 479.6,283.6 436.9,308.4 						"/>
					</g>
					<g>
						<polygon class="bathroom-st70" points="436.9,308.4 436.7,373.9 382.6,342.7 382.8,277.2 						"/>
					</g>
				</g>
			</g>
			<g class="bathroom-st10">
				<g class="bathroom-st10">
					<g>
						<polygon class="bathroom-st71" points="435.1,308.7 435.1,314.9 384.4,285.7 384.4,279.4 						"/>
					</g>
				</g>
				<g>
					<path class="bathroom-st72" d="M416.2,299.1v2.5c0,0.8-0.8,1.2-1.5,0.8l-10.9-6.3c-0.3-0.2-0.5-0.5-0.5-0.8v-2.5c0-0.8,0.8-1.2,1.5-0.8
						l10.9,6.3C416,298.4,416.2,298.7,416.2,299.1z"/>
				</g>
			</g>
			<g id="inner_washer">
				<g>
					<g class="bathroom-st10">
						<g>
							<g>
								
									<linearGradient id="bathroom-SVGID_27_" gradientUnits="userSpaceOnUse" x1="401.8931" y1="196.7216" x2="418.8178" y2="155.2357" gradientTransform="matrix(1 0 0 -1 0 500.6999)">
									<stop  offset="0" style="stop-color:#E6E7E8"/>
									<stop  offset="1" style="stop-color:#BCBEC0"/>
								</linearGradient>
								<path class="bathroom-st73" d="M396.5,308.2l3.3-1.9c2.7-1.6,6.5-1.4,10.7,1.1l-3.3,1.9C403,306.8,399.2,306.7,396.5,308.2z"/>
							</g>
							<g>
								
									<linearGradient id="bathroom-SVGID_28_" gradientUnits="userSpaceOnUse" x1="407.3537" y1="198.9493" x2="424.2783" y2="157.4634" gradientTransform="matrix(1 0 0 -1 0 500.6999)">
									<stop  offset="0" style="stop-color:#E6E7E8"/>
									<stop  offset="1" style="stop-color:#BCBEC0"/>
								</linearGradient>
								<path class="bathroom-st74" d="M421,342.9l-3.3,1.9c2.7-1.5,4.4-4.9,4.4-9.7c0-9.5-6.7-21.1-15-25.9l3.3-1.9c8.3,4.8,15,16.4,15,25.9
									C425.4,338,423.7,341.3,421,342.9z"/>
							</g>
						</g>
						<g>
							
								<ellipse transform="matrix(0.8646 -0.5025 0.5025 0.8646 -108.9438 248.7622)" class="bathroom-st16" cx="407.1" cy="326.5" rx="12.3" ry="21.1"/>
						</g>
					</g>
				</g>
				<g>
					<g class="bathroom-st10">
						<g>
							
								<ellipse transform="matrix(0.8646 -0.5025 0.5025 0.8646 -108.9999 248.554)" class="bathroom-st22" cx="406.7" cy="326.5" rx="9" ry="15.6"/>
						</g>
					</g>
				</g>
				<path class="bathroom-st75" d="M417,337.2c0,0-1.2,3.9-6.2,3.6c-1.3-0.1-2.6-0.7-2.7-0.7c-2.7-1.1-4-2.5-5.6-4c-2.3-2-3.6-4.6-4.9-7.2
					c-2.8-5.8-1.8-11-1.8-11s0.7-4,4-5.2c0,0,1.6-0.9,5.2,0.4c0,0-2.3,2.7-3.7,6.6c-1.4,3.8,0.2,7.7,2.4,10.6c1.8,2.4,3.5,4,5.7,5
					C411.3,336.2,413.6,336.7,417,337.2z"/>
			</g>
			<g>
				<g class="bathroom-st10">
					<g>
						<polygon class="bathroom-st76" points="400.2,289.1 400.2,294.5 386.1,286.3 386.1,280.9 						"/>
					</g>
				</g>
				<g>
					<g>
						<g class="bathroom-st10">
							<g class="bathroom-st10">
								<g>
									<g>
										<g>
											<defs>
												<path id="bathroom-SVGID_29_" d="M390.8,286.2L390.8,286.2c0.1-0.1,0.2-0.1,0.2,0H391C390.9,286.1,390.9,286.1,390.8,286.2z"/>
											</defs>
											<clipPath id="bathroom-SVGID_30_">
												<use xlink:href="#bathroom-SVGID_29_"  style="overflow:visible;"/>
											</clipPath>
											<g class="bathroom-st77">
												<path class="bathroom-st78" d="M390.8,286.2L390.8,286.2C390.9,286.2,390.9,286.1,390.8,286.2L390.8,286.2
													C390.8,286.1,390.8,286.2,390.8,286.2"/>
												<path class="bathroom-st79" d="M390.8,286.1L390.8,286.1C390.9,286.1,390.9,286.1,390.8,286.1L390.8,286.1
													C390.9,286.1,390.8,286.1,390.8,286.1"/>
												<path class="bathroom-st80" d="M390.9,286.1L390.9,286.1C390.9,286.1,390.9,286.1,390.9,286.1L390.9,286.1L390.9,286.1"/>
												<path class="bathroom-st81" d="M390.9,286.1L390.9,286.1C390.9,286.1,390.9,286.1,390.9,286.1L390.9,286.1L390.9,286.1"/>
												<path class="bathroom-st82" d="M390.9,286.1L390.9,286.1C390.9,286.1,390.9,286.1,390.9,286.1L390.9,286.1L390.9,286.1"/>
												<path class="bathroom-st83" d="M390.9,286.1L390.9,286.1C390.9,286.1,390.9,286.1,390.9,286.1L390.9,286.1
													C390.9,286.1,390.9,286.1,390.9,286.1"/>
												<path class="bathroom-st84" d="M390.9,286.1L390.9,286.1L390.9,286.1L390.9,286.1L390.9,286.1"/>
												<path class="bathroom-st85" d="M390.9,286.1L390.9,286.1C391,286.1,391,286.1,390.9,286.1L390.9,286.1L390.9,286.1"/>
												<path class="bathroom-st86" d="M390.9,286.1L390.9,286.1C391,286.1,391,286.1,390.9,286.1L390.9,286.1L390.9,286.1"/>
												<path class="bathroom-st87" d="M390.9,286.1L390.9,286.1C391,286.1,391,286.1,390.9,286.1L390.9,286.1L390.9,286.1"/>
												<path class="bathroom-st88" d="M390.9,286.1L390.9,286.1C391,286.1,391,286.1,390.9,286.1L390.9,286.1
													C391,286.2,391,286.1,390.9,286.1"/>
												<path class="bathroom-st89" d="M391,286.2L391,286.2C391,286.1,391.1,286.1,391,286.2L391,286.2L391,286.2"/>
												<path class="bathroom-st90" d="M391,286.2L391,286.2C391.1,286.1,391.1,286.1,391,286.2L391,286.2L391,286.2"/>
												<path class="bathroom-st91" d="M391,286.2L391,286.2C391.1,286.1,391.1,286.1,391,286.2L391,286.2L391,286.2"/>
												<path class="bathroom-st92" d="M391,286.2L391,286.2C391.1,286.1,391.1,286.1,391,286.2L391,286.2L391,286.2"/>
											</g>
										</g>
									</g>
								</g>
							</g>
							<g class="bathroom-st10">
								<g>
									<g>
										<g>
											<defs>
												<path id="bathroom-SVGID_31_" d="M394.4,290.4L394.4,290.4c0,0,0.1-0.1,0.1-0.2h0.1C394.6,290.2,394.5,290.3,394.4,290.4z"/>
											</defs>
											<clipPath id="bathroom-SVGID_32_">
												<use xlink:href="#bathroom-SVGID_31_"  style="overflow:visible;"/>
											</clipPath>
											<g class="bathroom-st93">
												<polyline class="bathroom-st88" points="394.5,290.2 394.6,290.1 394.6,290.1 394.5,290.2 394.5,290.2 												"/>
												<path class="bathroom-st87" d="M394.5,290.2L394.5,290.2C394.6,290.2,394.6,290.2,394.5,290.2L394.5,290.2L394.5,290.2"/>
												<path class="bathroom-st86" d="M394.5,290.2L394.5,290.2C394.6,290.2,394.6,290.2,394.5,290.2L394.5,290.2L394.5,290.2"/>
												<path class="bathroom-st85" d="M394.5,290.2L394.5,290.2C394.6,290.2,394.6,290.2,394.5,290.2L394.5,290.2L394.5,290.2"/>
												<path class="bathroom-st84" d="M394.5,290.2L394.5,290.2C394.6,290.2,394.6,290.2,394.5,290.2L394.5,290.2L394.5,290.2"/>
												<path class="bathroom-st83" d="M394.5,290.2L394.5,290.2C394.6,290.2,394.6,290.2,394.5,290.2L394.5,290.2L394.5,290.2"/>
												<path class="bathroom-st82" d="M394.5,290.2L394.5,290.2C394.6,290.2,394.6,290.2,394.5,290.2L394.5,290.2L394.5,290.2"/>
												<path class="bathroom-st81" d="M394.5,290.2L394.5,290.2L394.5,290.2L394.5,290.2L394.5,290.2"/>
												<path class="bathroom-st80" d="M394.5,290.3L394.5,290.3C394.5,290.2,394.5,290.2,394.5,290.3L394.5,290.3L394.5,290.3"/>
												<path class="bathroom-st79" d="M394.5,290.3L394.5,290.3L394.5,290.3L394.5,290.3C394.4,290.3,394.5,290.3,394.5,290.3"/>
												<path class="bathroom-st78" d="M394.4,290.3L394.4,290.3C394.5,290.3,394.5,290.3,394.4,290.3L394.4,290.3
													C394.4,290.4,394.4,290.4,394.4,290.3"/>
											</g>
										</g>
									</g>
								</g>
							</g>
							<g>
								<polygon class="bathroom-st94" points="394.5,288.5 394.6,288.5 394.6,290.1 394.5,290.2 								"/>
							</g>
							<g>
								<polygon class="bathroom-st95" points="391,286.2 391.1,286.2 394.3,287.9 394.2,288 								"/>
							</g>
							<g>
								<path class="bathroom-st96" d="M394.2,288c0.2,0.1,0.3,0.4,0.3,0.5v1.7c0,0.2-0.1,0.2-0.3,0.2l-3.2-1.8c-0.2-0.1-0.3-0.3-0.3-0.5
									v-1.7c0-0.2,0.1-0.3,0.3-0.2L394.2,288z"/>
							</g>
							<g class="bathroom-st10">
								<g>
									<g>
										<g>
											<defs>
												<path id="bathroom-SVGID_33_" d="M394.2,288L394.2,288c0.2,0.1,0.4,0.3,0.4,0.5h-0.1C394.5,288.3,394.4,288.1,394.2,288z"/>
											</defs>
											<clipPath id="bathroom-SVGID_34_">
												<use xlink:href="#bathroom-SVGID_33_"  style="overflow:visible;"/>
											</clipPath>
											<g class="bathroom-st97">
												<polyline class="bathroom-st92" points="394.2,288 394.3,287.9 394.3,287.9 394.2,288 394.2,288 												"/>
												<path class="bathroom-st98" d="M394.2,288L394.2,288C394.3,288,394.3,288,394.2,288L394.2,288L394.2,288"/>
												<path class="bathroom-st99" d="M394.2,288L394.2,288C394.3,288,394.3,288,394.2,288L394.2,288L394.2,288"/>
												<path class="bathroom-st100" d="M394.2,288L394.2,288C394.3,288,394.3,288,394.2,288L394.2,288C394.3,288,394.3,288,394.2,288"/>
												<path class="bathroom-st101" d="M394.3,288L394.3,288C394.3,288,394.3,288,394.3,288L394.3,288L394.3,288"/>
												<path class="bathroom-st102" d="M394.3,288L394.3,288C394.3,288,394.3,288,394.3,288L394.3,288
													C394.3,288.1,394.3,288.1,394.3,288"/>
												<path class="bathroom-st103" d="M394.3,288.1L394.3,288.1C394.3,288,394.3,288,394.3,288.1L394.3,288.1L394.3,288.1"/>
												<path class="bathroom-st104" d="M394.3,288.1L394.3,288.1C394.3,288.1,394.3,288.1,394.3,288.1L394.3,288.1
													C394.3,288.1,394.3,288.1,394.3,288.1"/>
												<path class="bathroom-st105" d="M394.3,288.1L394.3,288.1L394.3,288.1L394.3,288.1L394.3,288.1"/>
												<path class="bathroom-st106" d="M394.3,288.1L394.3,288.1C394.4,288.1,394.4,288.1,394.3,288.1L394.3,288.1L394.3,288.1"/>
												<path class="bathroom-st107" d="M394.3,288.1L394.3,288.1C394.4,288.1,394.4,288.1,394.3,288.1L394.3,288.1L394.3,288.1"/>
												<path class="bathroom-st108" d="M394.3,288.1L394.3,288.1C394.4,288.1,394.4,288.1,394.3,288.1L394.3,288.1L394.3,288.1"/>
												<path class="bathroom-st109" d="M394.3,288.1L394.3,288.1C394.4,288.1,394.4,288.1,394.3,288.1L394.3,288.1
													C394.4,288.1,394.3,288.1,394.3,288.1"/>
												<path class="bathroom-st110" d="M394.4,288.1L394.4,288.1L394.4,288.1L394.4,288.1L394.4,288.1"/>
												<path class="bathroom-st111" d="M394.4,288.1L394.4,288.1C394.4,288.1,394.4,288.1,394.4,288.1L394.4,288.1
													C394.4,288.2,394.4,288.2,394.4,288.1"/>
												<path class="bathroom-st112" d="M394.4,288.2L394.4,288.2C394.4,288.2,394.4,288.2,394.4,288.2L394.4,288.2L394.4,288.2"/>
												<path class="bathroom-st111" d="M394.4,288.2L394.4,288.2C394.4,288.2,394.4,288.2,394.4,288.2L394.4,288.2L394.4,288.2"/>
												<path class="bathroom-st110" d="M394.4,288.2L394.4,288.2C394.5,288.2,394.5,288.2,394.4,288.2L394.4,288.2L394.4,288.2"/>
												<path class="bathroom-st109" d="M394.4,288.2L394.4,288.2C394.5,288.2,394.5,288.2,394.4,288.2L394.4,288.2
													C394.4,288.3,394.4,288.2,394.4,288.2"/>
												<path class="bathroom-st108" d="M394.4,288.3L394.4,288.3C394.5,288.2,394.5,288.2,394.4,288.3L394.4,288.3L394.4,288.3"/>
												<path class="bathroom-st107" d="M394.4,288.3L394.4,288.3C394.5,288.3,394.5,288.3,394.4,288.3L394.4,288.3L394.4,288.3"/>
												<path class="bathroom-st106" d="M394.4,288.3L394.4,288.3C394.5,288.3,394.5,288.3,394.4,288.3L394.4,288.3L394.4,288.3"/>
												<path class="bathroom-st105" d="M394.4,288.3L394.4,288.3C394.5,288.3,394.5,288.3,394.4,288.3L394.4,288.3
													C394.4,288.4,394.4,288.3,394.4,288.3"/>
												<path class="bathroom-st104" d="M394.5,288.4L394.5,288.4C394.5,288.3,394.5,288.3,394.5,288.4L394.5,288.4L394.5,288.4"/>
												<path class="bathroom-st103" d="M394.5,288.4L394.5,288.4L394.5,288.4L394.5,288.4L394.5,288.4"/>
												<path class="bathroom-st102" d="M394.5,288.4L394.5,288.4L394.5,288.4L394.5,288.4L394.5,288.4"/>
												<path class="bathroom-st101" d="M394.5,288.4L394.5,288.4C394.5,288.4,394.6,288.4,394.5,288.4L394.5,288.4
													C394.5,288.4,394.5,288.4,394.5,288.4"/>
												<path class="bathroom-st100" d="M394.5,288.4L394.5,288.4C394.6,288.4,394.6,288.4,394.5,288.4L394.5,288.4L394.5,288.4"/>
												<path class="bathroom-st99" d="M394.5,288.4L394.5,288.4C394.6,288.4,394.6,288.4,394.5,288.4L394.5,288.4L394.5,288.4"/>
												<path class="bathroom-st98" d="M394.5,288.4L394.5,288.4C394.6,288.4,394.6,288.4,394.5,288.4L394.5,288.4L394.5,288.4"/>
												<path class="bathroom-st92" d="M394.5,288.4L394.5,288.4C394.6,288.4,394.6,288.4,394.5,288.4L394.5,288.4
													C394.5,288.5,394.5,288.5,394.5,288.4"/>
												<path class="bathroom-st91" d="M394.5,288.5L394.5,288.5C394.6,288.4,394.6,288.4,394.5,288.5L394.5,288.5L394.5,288.5"/>
												<path class="bathroom-st90" d="M394.5,288.5L394.5,288.5C394.6,288.5,394.6,288.5,394.5,288.5L394.5,288.5L394.5,288.5"/>
												<path class="bathroom-st89" d="M394.5,288.5L394.5,288.5C394.6,288.5,394.6,288.5,394.5,288.5L394.5,288.5L394.5,288.5"/>
												<path class="bathroom-st88" d="M394.5,288.5L394.5,288.5C394.6,288.5,394.6,288.5,394.5,288.5L394.5,288.5
													C394.5,288.5,394.5,288.5,394.5,288.5"/>
											</g>
										</g>
									</g>
								</g>
							</g>
						</g>
					</g>
				</g>
			</g>
			<g>
				<g class="bathroom-st10">
					<g>
						<path class="bathroom-st22" d="M418.1,301.4l1.4-0.8c0.4-0.2,0.9-0.2,1.5,0.1l-1.4,0.8C419,301.2,418.4,301.2,418.1,301.4z"/>
					</g>
					<g>
						
							<linearGradient id="bathroom-SVGID_35_" gradientUnits="userSpaceOnUse" x1="420.7963" y1="199.7342" x2="422.5933" y2="193.5446" gradientTransform="matrix(1 0 0 -1 0 500.6999)">
							<stop  offset="0" style="stop-color:#E6E7E8"/>
							<stop  offset="1" style="stop-color:#D1D3D4"/>
						</linearGradient>
						<path class="bathroom-st113" d="M422.5,305.7l-1.4,0.8c0.4-0.2,0.6-0.7,0.6-1.4c0-1.3-0.9-3-2.1-3.6l1.4-0.8c1.2,0.7,2.1,2.3,2.1,3.6
							C423.1,305,422.8,305.5,422.5,305.7z"/>
					</g>
					<g>
						
							<ellipse transform="matrix(0.8646 -0.5025 0.5025 0.8646 -95.9119 251.9904)" class="bathroom-st114" cx="419.6" cy="303.9" rx="1.7" ry="3"/>
					</g>
				</g>
			</g>
			<g>
				<g class="bathroom-st10">
					<g>
						<path class="bathroom-st22" d="M425.2,305.5l1.4-0.8c0.4-0.2,0.9-0.2,1.5,0.1l-1.4,0.8C426.1,305.3,425.5,305.3,425.2,305.5z"/>
					</g>
					<g>
						
							<linearGradient id="bathroom-SVGID_36_" gradientUnits="userSpaceOnUse" x1="427.9039" y1="195.6487" x2="429.7009" y2="189.4591" gradientTransform="matrix(1 0 0 -1 0 500.6999)">
							<stop  offset="0" style="stop-color:#E6E7E8"/>
							<stop  offset="1" style="stop-color:#D1D3D4"/>
						</linearGradient>
						<path class="bathroom-st115" d="M429.6,309.8l-1.4,0.8c0.4-0.2,0.6-0.7,0.6-1.4c0-1.3-0.9-3-2.1-3.6l1.4-0.8c1.2,0.7,2.1,2.3,2.1,3.6
							C430.2,309.1,429.9,309.6,429.6,309.8z"/>
					</g>
					<g>
						
							<ellipse transform="matrix(0.8646 -0.5025 0.5025 0.8646 -97.0092 256.0824)" class="bathroom-st114" cx="426.6" cy="308" rx="1.7" ry="3"/>
					</g>
				</g>
			</g>
		</g>
		<g id="dryer_2_">
			<g>
				<g>
					<g class="bathroom-st10">
						<g>
							<polygon class="bathroom-st69" points="437.1,242 479.8,217.3 479.6,282.8 436.9,307.6 							"/>
						</g>
						<g>
							<polygon class="bathroom-st22" points="383,210.8 425.7,186 479.8,217.3 437.1,242 							"/>
						</g>
						<g>
							<polygon class="bathroom-st70" points="437.1,242 436.9,307.6 382.8,276.4 383,210.8 							"/>
						</g>
						<g>
							<polygon class="bathroom-st116" points="430.2,248.4 430.1,286.2 388.8,262.4 388.9,224.6 							"/>
						</g>
					</g>
				</g>
				<g class="bathroom-st10">
					<g class="bathroom-st10">
						<g>
							<polygon class="bathroom-st71" points="435.3,242.3 435.3,248.6 384.6,219.3 384.6,213.1 							"/>
						</g>
					</g>
					<g>
						<path class="bathroom-st72" d="M416.4,232.7v2.5c0,0.8-0.8,1.2-1.5,0.8l-10.8-6.2c-0.3-0.2-0.5-0.5-0.5-0.8v-2.5c0-0.8,0.8-1.2,1.5-0.8
							l10.8,6.2C416.2,232,416.4,232.4,416.4,232.7z"/>
					</g>
				</g>
				<g>
					<g class="bathroom-st10">
						<g>
							<path class="bathroom-st22" d="M418.3,235.1l1.4-0.8c0.4-0.2,0.9-0.2,1.5,0.1l-1.4,0.8C419.1,234.9,418.6,234.9,418.3,235.1z"/>
						</g>
						<g>
							
								<linearGradient id="bathroom-SVGID_37_" gradientUnits="userSpaceOnUse" x1="420.9896" y1="266.0817" x2="422.7866" y2="259.8922" gradientTransform="matrix(1 0 0 -1 0 500.6999)">
								<stop  offset="0" style="stop-color:#E6E7E8"/>
								<stop  offset="1" style="stop-color:#D1D3D4"/>
							</linearGradient>
							<path class="bathroom-st117" d="M422.6,239.3l-1.4,0.8c0.4-0.2,0.6-0.7,0.6-1.4c0-1.3-0.9-3-2.1-3.6l1.4-0.8c1.2,0.7,2.1,2.3,2.1,3.6
								C423.2,238.7,423,239.1,422.6,239.3z"/>
						</g>
						<g>
							
								<ellipse transform="matrix(0.8646 -0.5025 0.5025 0.8646 -62.5506 243.0952)" class="bathroom-st114" cx="419.7" cy="237.6" rx="1.7" ry="3"/>
						</g>
					</g>
				</g>
				<g>
					<g class="bathroom-st10">
						<g>
							<path class="bathroom-st22" d="M425.4,239.1l1.4-0.8c0.4-0.2,0.9-0.2,1.5,0.1l-1.4,0.8C426.3,239,425.7,239,425.4,239.1z"/>
						</g>
						<g>
							
								<linearGradient id="bathroom-SVGID_38_" gradientUnits="userSpaceOnUse" x1="428.0972" y1="261.9962" x2="429.8942" y2="255.8067" gradientTransform="matrix(1 0 0 -1 0 500.6999)">
								<stop  offset="0" style="stop-color:#E6E7E8"/>
								<stop  offset="1" style="stop-color:#D1D3D4"/>
							</linearGradient>
							<path class="bathroom-st118" d="M429.7,243.4l-1.4,0.8c0.4-0.2,0.6-0.7,0.6-1.4c0-1.3-0.9-3-2.1-3.6l1.4-0.8c1.2,0.7,2.1,2.3,2.1,3.6
								C430.3,242.7,430.1,243.2,429.7,243.4z"/>
						</g>
						<g>
							
								<ellipse transform="matrix(0.8646 -0.5025 0.5025 0.8646 -63.642 247.2207)" class="bathroom-st114" cx="426.9" cy="241.7" rx="1.7" ry="3"/>
						</g>
					</g>
				</g>
			</g>
			<g>
				<g>
					<g>
						<polygon points="425.4,293.6 425.4,294.8 417.2,290.1 417.2,288.9 						"/>
					</g>
				</g>
			</g>
			<g>
				<g>
					<g>
						<polygon points="425.4,291.4 425.4,292.6 417.2,287.9 417.2,286.7 						"/>
					</g>
				</g>
			</g>
			<g>
				<g>
					<g>
						<polygon points="425.5,289.2 425.5,290.4 417.4,285.7 417.4,284.5 						"/>
					</g>
				</g>
			</g>
			<g>
				<g>
					<g>
						<polygon points="425.4,295.8 425.4,297 417.2,292.3 417.2,291 						"/>
					</g>
				</g>
			</g>
		</g>
		<g id="hairdryer_full">
			<g id="hairdryer">
				<g class="bathroom-st14">
					<g>
						<g class="bathroom-st10">
							<g>
								<path d="M80.7,280.9l-5.4,3.1c0.1-0.1,0.2-0.1,0.3-0.3l5.4-3.1C81,280.8,80.8,280.8,80.7,280.9z"/>
							</g>
							<g>
								<polygon points="76.8,280.8 82.1,277.8 81,280.7 75.6,283.7 								"/>
							</g>
							<g>
								<path d="M65.9,268.7c0.1,0.1,0.3,0.1,0.4,0.3l9.8,9.8c0.6,0.6,0.9,1.4,0.7,2l-1.1,2.8c-0.1,0.4-0.6,0.5-1,0.2
									c-0.1-0.1-0.3-0.1-0.4-0.3l-9.9-9.8c-0.6-0.6-0.9-1.5-0.7-2l1.1-2.8C65,268.5,65.5,268.5,65.9,268.7z"/>
							</g>
						</g>
					</g>
					<g>
						<path d="M51.9,261.5l-9.7,15.9l7,5.9c0.3,0.2,0.7,0.3,1,0.1c3.7-2.3,24.6-15.9,22.8-21.1C71.2,256.6,63.1,247.8,51.9,261.5z"
							/>
					</g>
					<g>
						<g>
							<path d="M79.9,280l1.9,1.4c-0.1-0.1-0.2-0.1-0.4,0l-1.9-1.4C79.7,279.9,79.8,279.9,79.9,280z"/>
						</g>
						<g>
							<path d="M79.3,283.7l-1.9-1.4c-0.1-0.1-0.1-0.1-0.1-0.4l1.9,1.4C79.1,283.5,79.1,283.7,79.3,283.7z"/>
						</g>
						<g>
							<polygon points="79.7,282.1 77.8,280.8 79.5,280 81.5,281.4 							"/>
						</g>
						<g>
							<polygon points="79.1,283.4 77.2,282 77.2,281.6 79.1,283 							"/>
						</g>
						<g>
							<path d="M79.1,283l-1.9-1.4c0-0.3,0.3-0.7,0.6-0.8l1.9,1.4C79.4,282.3,79.1,282.7,79.1,283z"/>
						</g>
						<g>
							<path d="M81.5,281.4c0.3-0.1,0.5,0,0.4,0.3l-0.1,0.4c0,0.3-0.3,0.7-0.6,0.8l-1.8,0.8c-0.3,0.1-0.5,0-0.5-0.4l0.1-0.4
								c0-0.3,0.3-0.7,0.6-0.8L81.5,281.4z"/>
						</g>
					</g>
				</g>
				<g>
					<g class="bathroom-st10">
						<g>
							<path class="bathroom-st119" d="M65.8,267.6l5.4-3.1c0.2-0.1,0.5-0.1,0.8,0.1l-5.4,3.1C66.2,267.5,65.9,267.4,65.8,267.6z"/>
						</g>
						<g>
							<path class="bathroom-st119" d="M66.5,267.6l5.4-3.1c0.1,0.1,0.3,0.1,0.4,0.3l-5.4,3.1C66.8,267.8,66.6,267.7,66.5,267.6z"/>
						</g>
						<g>
							<path class="bathroom-st120" d="M81.3,279.8l-5.4,3.1c0.1-0.1,0.2-0.1,0.3-0.3l5.4-3.1C81.5,279.7,81.4,279.8,81.3,279.8z"/>
						</g>
						<g>
							<polygon class="bathroom-st120" points="77.4,279.8 82.7,276.7 81.5,279.6 76.2,282.7 							"/>
						</g>
						<g>
							<polygon class="bathroom-st119" points="66.9,267.9 72.2,264.8 82,274.7 76.7,277.8 							"/>
						</g>
						<g>
							
								<linearGradient id="bathroom-SVGID_39_" gradientUnits="userSpaceOnUse" x1="80.2647" y1="222.6672" x2="78.7869" y2="224.8019" gradientTransform="matrix(1 0 0 -1 0 500.6999)">
								<stop  offset="3.095709e-06" style="stop-color:#8E191C"/>
								<stop  offset="1" style="stop-color:#ED1C24"/>
							</linearGradient>
							<path class="bathroom-st121" d="M76.7,277.8l5.4-3.1c0.6,0.6,0.9,1.4,0.7,2l-5.4,3.1C77.5,279.3,77.2,278.3,76.7,277.8z"/>
						</g>
						<g>
							<path class="bathroom-st122" d="M66.5,267.6c0.1,0.1,0.3,0.1,0.4,0.3l9.8,9.8c0.6,0.6,0.9,1.4,0.7,2l-1.1,2.8c-0.1,0.4-0.6,0.5-1,0.2
								c-0.1-0.1-0.3-0.1-0.4-0.3l-9.8-9.8c-0.6-0.6-0.9-1.5-0.7-2l1.1-2.8C65.6,267.5,66,267.4,66.5,267.6z"/>
						</g>
						<g>
							<path class="bathroom-st123" d="M64.5,267.3c0.1,0.1,0.1,0.1,0.2,0.2l6,6c0.4,0.4,0.5,0.9,0.4,1.2l-0.7,1.8c-0.1,0.3-0.4,0.3-0.7,0.1
								c-0.1-0.1-0.1-0.1-0.2-0.2l-6-6c-0.4-0.4-0.5-0.9-0.4-1.2l0.7-1.8C64,267.1,64.3,267.1,64.5,267.3z"/>
						</g>
					</g>
					<g>
						<g class="bathroom-st10">
							<g>
								<path class="bathroom-st124" d="M66.8,271.5l0.7-0.4c0.1-0.1,0.2,0,0.3,0l-0.7,0.4C66.9,271.5,66.8,271.5,66.8,271.5z"/>
							</g>
							<g>
								<path class="bathroom-st124" d="M67.1,271.5l0.7-0.4c0.1,0,0.1,0.1,0.1,0.1l-0.7,0.4C67.1,271.6,67.1,271.6,67.1,271.5z"/>
							</g>
							<g>
								<polygon class="bathroom-st124" points="69.6,274.7 70.3,274.3 70.1,275 69.4,275.4 								"/>
							</g>
							<g>
								<path class="bathroom-st124" d="M70,275.1l-0.7,0.4c0.1,0,0.1-0.1,0.1-0.1L70,275C70.1,275,70,275,70,275.1z"/>
							</g>
							<g>
								<polygon class="bathroom-st124" points="67.2,271.6 67.8,271.2 70.1,273.5 69.4,273.9 								"/>
							</g>
							<g>
								<path class="bathroom-st124" d="M69.4,273.9l0.7-0.4c0.2,0.2,0.4,0.6,0.2,0.8l-0.7,0.4C69.8,274.5,69.6,274.1,69.4,273.9z"/>
							</g>
							<g>
								<path class="bathroom-st125" d="M67.1,271.5c0.1,0,0.1,0.1,0.1,0.1l2.3,2.3c0.2,0.2,0.4,0.6,0.2,0.8l-0.3,0.7
									c-0.1,0.1-0.2,0.1-0.4,0.1c-0.1,0-0.1-0.1-0.1-0.1l-2.3-2.3c-0.2-0.2-0.3-0.6-0.2-0.7l0.3-0.7
									C66.7,271.5,66.9,271.5,67.1,271.5z"/>
							</g>
						</g>
					</g>
				</g>
				<g>
					
						<linearGradient id="bathroom-SVGID_40_" gradientUnits="userSpaceOnUse" x1="-61.2194" y1="154.4511" x2="-46.5632" y2="134.9402" gradientTransform="matrix(0.9668 -0.2555 -0.2555 -0.9668 144.2031 391.041)">
						<stop  offset="0" style="stop-color:#ED1C24"/>
						<stop  offset="1" style="stop-color:#52120D"/>
					</linearGradient>
					<path class="bathroom-st126" d="M52.5,260.5l-10.6,15.1l9.1,6.8c0,0,24.7-15.4,22.7-21.1C71.8,255.5,63.7,246.8,52.5,260.5z"/>
				</g>
				<g>
					<g>
						<path class="bathroom-st119" d="M80.4,278.9l1.9,1.4c-0.1-0.1-0.2-0.1-0.4,0l-1.9-1.4C80.3,278.8,80.4,278.8,80.4,278.9z"/>
					</g>
					<g>
						<path class="bathroom-st122" d="M79.7,282.7l-1.9-1.4c-0.1-0.1-0.1-0.1-0.1-0.4l1.9,1.4C79.7,282.4,79.7,282.5,79.7,282.7z"/>
					</g>
					<g>
						<polygon class="bathroom-st119" points="80.3,281.1 78.4,279.8 80.1,278.9 82,280.3 						"/>
					</g>
					<g>
						<polygon class="bathroom-st122" points="79.7,282.3 77.7,280.9 77.8,280.6 79.7,281.8 						"/>
					</g>
					<g>
						
							<linearGradient id="bathroom-SVGID_41_" gradientUnits="userSpaceOnUse" x1="111.3354" y1="258.7862" x2="112.2073" y2="259.8214" gradientTransform="matrix(0.9959 9.002136e-02 9.002136e-02 -0.9959 -55.535 528.8039)">
							<stop  offset="3.095709e-06" style="stop-color:#52120D"/>
							<stop  offset="1" style="stop-color:#ED1C24"/>
						</linearGradient>
						<path class="bathroom-st127" d="M79.7,281.8l-1.9-1.4c0-0.3,0.3-0.7,0.6-0.8l1.9,1.4C80,281.2,79.7,281.6,79.7,281.8z"/>
					</g>
					<g>
						<path class="bathroom-st120" d="M82,280.3c0.3-0.1,0.5,0,0.4,0.3l-0.1,0.4c0,0.3-0.3,0.7-0.6,0.8l-1.8,0.8c-0.3,0.1-0.5,0-0.5-0.4
							l0.1-0.4c0-0.3,0.3-0.7,0.6-0.8L82,280.3z"/>
					</g>
				</g>
				<g>
					<g>
						<g>
							<path class="bathroom-st128" d="M44.4,274.7c2.4,0.1,5.3,2.2,6.4,4.5c1.1,2.4,0.1,4-2.4,3.9c-2.4-0.1-5.3-2.2-6.5-4.5
								C40.9,276.2,42,274.5,44.4,274.7z"/>
						</g>
					</g>
				</g>
				<g id="hot_circle">
					<g>
						<g>
							<path class="bathroom-st129" d="M44.4,274.7c2.4,0.1,5.3,2.2,6.4,4.5c1.1,2.4,0.1,4-2.4,3.9c-2.4-0.1-5.3-2.2-6.5-4.5
								C40.9,276.3,42,274.6,44.4,274.7z"/>
						</g>
					</g>
				</g>
				<g>
					<polygon class="bathroom-st16" points="41.9,278.4 44.8,274.6 45.3,274.7 42.3,278.6 					"/>
					<polygon class="bathroom-st16" points="42.4,279.2 45.7,274.9 46.1,275 42.7,279.5 					"/>
					<polygon class="bathroom-st16" points="43.1,279.9 46.6,275.3 46.9,275.5 43.4,280.1 					"/>
					
						<rect x="42.7" y="278.1" transform="matrix(0.6077 -0.7942 0.7942 0.6077 -203.0444 145.5045)" class="bathroom-st16" width="6" height="0.4"/>
					<polygon class="bathroom-st16" points="44.4,281.2 48.2,276.2 48.5,276.5 44.8,281.5 					"/>
					<polygon class="bathroom-st16" points="45.3,281.7 48.9,276.7 49.3,277 45.6,282 					"/>
					<polygon class="bathroom-st16" points="46,282.1 49.6,277.4 50,277.7 46.4,282.4 					"/>
					<polygon class="bathroom-st16" points="46.9,282.5 50.1,278.2 50.5,278.4 47.2,282.7 					"/>
					<polygon class="bathroom-st16" points="47.9,282.8 50.7,279.2 51.1,279.5 48.2,283.1 					"/>
				</g>
				<g>
					<g>
						<g>
							<path class="bathroom-st122" d="M44.4,274.6c2.4,0.1,5.4,2.3,6.5,4.6s0.1,4.1-2.4,4c-2.4-0.1-5.4-2.3-6.5-4.6
								C40.8,276.2,41.9,274.4,44.4,274.6z M48.4,282.8c2.3,0.1,3.3-1.5,2.3-3.7c-1.1-2.3-3.8-4.1-6.1-4.3c-2.3-0.2-3.3,1.5-2.3,3.7
								C43.4,280.7,46.1,282.7,48.4,282.8"/>
						</g>
					</g>
				</g>
			</g>
			<g id="hairdryer_cord">
				<g id="dry_plug_2_">
					<g>
						<g>
							<g class="bathroom-st10">
								<g>
									<path class="bathroom-st130" d="M31.3,269.5l0.2,0.1c-0.2-0.2-0.6-0.1-1,0.1l-0.2-0.1C30.6,269.3,31,269.3,31.3,269.5z"/>
								</g>
								<g>
									<path class="bathroom-st130" d="M29.7,272.7l-0.2-0.1c-0.2-0.2-0.4-0.4-0.4-0.8c-0.1-0.8,0.5-1.8,1.2-2.3l0.2,0.1
										c-0.7,0.4-1.2,1.5-1.2,2.3C29.3,272.3,29.4,272.5,29.7,272.7z"/>
								</g>
								<g>
									<path class="bathroom-st131" d="M30.5,269.6c0.7-0.4,1.3-0.1,1.3,0.7s-0.5,1.8-1.3,2.3c-0.7,0.4-1.3,0.1-1.3-0.7
										C29.2,271.1,29.7,270,30.5,269.6z"/>
								</g>
							</g>
						</g>
						<g>
							<g class="bathroom-st10">
								<g>
									<polygon class="bathroom-st132" points="30.9,272.3 29.4,272.1 29.4,271.4 30.9,271.7 									"/>
								</g>
								<g>
									<polygon class="bathroom-st53" points="30.9,271.7 29.4,271.4 31.6,269.9 31.8,271.1 									"/>
								</g>
								<g>
									<polygon class="bathroom-st133" points="31.8,271.1 31.8,271.7 30.9,272.3 30.9,271.7 									"/>
								</g>
							</g>
						</g>
					</g>
					<g>
						<g class="bathroom-st10">
							<g>
								<polygon class="bathroom-st132" points="32.5,272.8 30.9,272.3 30.9,271.7 32.4,272.4 								"/>
							</g>
							<g>
								<polygon class="bathroom-st53" points="32.4,272.4 30.9,271.7 31.8,271.1 33.1,271.9 								"/>
							</g>
							<g>
								<polygon class="bathroom-st131" points="33.1,271.9 33.2,272.3 32.5,272.8 32.4,272.4 								"/>
							</g>
						</g>
					</g>
					<g>
						<polygon points="30.6,271.2 30.3,271.2 31.1,270.6 31.3,270.7 						"/>
					</g>
					<g>
						<polygon points="30.9,271.4 30.6,271.3 31.3,270.8 31.5,270.8 						"/>
					</g>
				</g>
				<g>
					<g class="bathroom-st10">
						<g class="bathroom-st10">
							<g>
								
									<radialGradient id="bathroom-SVGID_42_" cx="84.3657" cy="218.518" r="69.4282" gradientTransform="matrix(1 0 0 -1 0 500.6999)" gradientUnits="userSpaceOnUse">
									<stop  offset="0" style="stop-color:#000000"/>
									<stop  offset="1" style="stop-color:#414042"/>
								</radialGradient>
								<path class="bathroom-st134" d="M68.2,294.7c-2.4,0-5-0.4-7.8-1.5c-0.2-0.1-0.7-0.3-1.2-0.7c-1.2,0.7-2.5,1.1-3.2,1.2l-0.3,0.1
									c-1.1,0.4-2,0.4-2.8,0.1c-2.2-0.8-4-3-5.4-6.6c-1.9-4.8-6.9-9.8-14.9-14.6l0.8-0.4c8.1,4.9,12.7,10,14.7,14.9
									c1.4,3.4,3,5.5,5,6.2c0.7,0.2,1.5,0.2,2.4-0.1l0.3-0.1c0.7-0.2,1.8-0.5,2.8-1.1c-0.5-0.5-1-1.2-1.2-2.2
									c-0.2-1.2,0.1-2.3,0.7-2.9c0.5-0.5,1.2-0.7,1.6-0.7c0.1,0,2-0.2,2.7,1c0.5,0.8,0.1,1.8-0.1,2.2c-0.5,1.1-1.4,2-2.5,2.7
									c0.4,0.3,0.8,0.4,0.8,0.5c9.6,3.6,17.3-0.2,21-4.4c0.1-0.1,0.2-0.3,0.4-0.5c1.3-1.4,0.7-2.7-0.5-5.3
									c-0.1-0.1-0.1-0.2-0.1-0.3l0.6-0.3c0.1,0.1,0.1,0.2,0.2,0.4c1.4,3,1.8,4.6,0.4,6c-0.2,0.2-0.4,0.4-0.4,0.5
									C79.3,291.8,74.4,294.7,68.2,294.7z M60.1,286.9c-0.2,0-0.2,0-0.3,0c-0.4,0.1-0.8,0.2-1.2,0.5c-0.5,0.5-0.7,1.3-0.5,2.3
									c0.1,0.8,0.7,1.5,1.1,2c1.1-0.6,2-1.4,2.5-2.5c0.2-0.4,0.4-1.1,0.1-1.6C61.5,286.9,60.5,286.9,60.1,286.9z"/>
							</g>
						</g>
						<g>
							
								<radialGradient id="bathroom-SVGID_43_" cx="89.6801" cy="218.518" r="76.5087" gradientTransform="matrix(1 0 0 -1 0 500.6999)" gradientUnits="userSpaceOnUse">
								<stop  offset="0" style="stop-color:#000000"/>
								<stop  offset="1" style="stop-color:#414042"/>
							</radialGradient>
							<polygon class="bathroom-st135" points="32.4,272.4 32.5,272.8 34.2,273.5 33.1,272.1 							"/>
							<g>
								
									<radialGradient id="bathroom-SVGID_44_" cx="84.3679" cy="218.6623" r="70.235" gradientTransform="matrix(1 0 0 -1 0 500.6999)" gradientUnits="userSpaceOnUse">
									<stop  offset="0" style="stop-color:#000000"/>
									<stop  offset="1" style="stop-color:#414042"/>
								</radialGradient>
								<path class="bathroom-st136" d="M68.1,294.5c-2.4,0-5-0.4-7.8-1.5c-0.2-0.1-0.7-0.3-1.2-0.7c-1.2,0.7-2.5,1.1-3.2,1.2l-0.3,0.1
									c-1.1,0.4-2,0.4-2.8,0.1c-2.2-0.8-4-3-5.4-6.6c-1.9-4.8-6.9-9.9-14.8-14.7l0.7-0.5c8.1,4.9,12.8,10.1,14.7,15
									c1.4,3.4,3,5.5,5,6.2c0.7,0.2,1.5,0.2,2.4-0.1l0.3-0.1c0.7-0.2,1.8-0.5,2.8-1.1c-0.5-0.5-1-1.2-1.2-2.2
									c-0.2-1.2,0.1-2.3,0.7-2.9c0.5-0.5,1.2-0.7,1.6-0.7c0.1,0,2-0.2,2.7,1c0.5,0.8,0.1,1.8-0.1,2.2c-0.5,1.1-1.4,2-2.5,2.7
									c0.4,0.3,0.8,0.4,0.8,0.5c9.6,3.6,17.3-0.2,21-4.4c0.1-0.1,0.2-0.3,0.4-0.5c1.3-1.4,0.6-2.6-0.6-5.2
									c-0.1-0.1-0.1-0.2-0.1-0.3l0.6-0.3c0.1,0.1,0.1,0.2,0.2,0.4c1.4,3,1.8,4.5,0.5,5.9c-0.2,0.2-0.4,0.4-0.4,0.5
									C79.2,291.6,74.3,294.5,68.1,294.5z M59.9,286.6c-0.2,0-0.2,0-0.3,0c-0.4,0.1-0.8,0.2-1.2,0.5c-0.5,0.5-0.7,1.3-0.5,2.3
									c0.1,0.8,0.7,1.5,1.1,2c1.1-0.6,2-1.4,2.5-2.5c0.2-0.4,0.4-1.1,0.1-1.6C61.3,286.8,60.4,286.6,59.9,286.6z"/>
							</g>
						</g>
						
							<radialGradient id="bathroom-SVGID_45_" cx="84.3625" cy="218.518" r="69.4257" gradientTransform="matrix(1 0 0 -1 0 500.6999)" gradientUnits="userSpaceOnUse">
							<stop  offset="0" style="stop-color:#000000"/>
							<stop  offset="1" style="stop-color:#414042"/>
						</radialGradient>
						<path class="bathroom-st137" d="M83.2,285.2l-1-2.3l-0.5-1.2c0.1,0.1,0.2,0.1,0.2,0.2c0,0.1,0,0.1,0.1,0.2
							C82.4,283,82.8,284.1,83.2,285.2z"/>
					</g>
				</g>
			</g>
		</g>
	</g>

	<path id="path" d="M250.9,440.3c0,0,102.3-25.4,128.8-69.8S247.1,237.6,247.1,237.6S189,250.9,199.9,277s154.2,82.1,139.9,93.5
		c-27.6,22.2-59.3,47.7-92.4,48.5c-47.8,1.2-166.1-39.8-124.3-84.3c16.7-17.7-38,26.6-38,26.6s-10.5,2,10.5,17.8
		C108.6,399.2,192.8,436.7,250.9,440.3z"/>

	<svg id="snif-container">
		<use href="#snif-full-svg" id="snif" width="70"></use> 
	</svg>

	<g class="bathroom-st40">
			<g>
				<g class="bathroom-st10">
					<g>
						<polygon class="bathroom-st11" points="142.6,282.9 143.2,87.8 218.2,129.5 217.6,324.7 						"/>
					</g>
					<g>
						<polygon class="bathroom-st11" points="143.2,87.8 144,87.3 219,129 218.2,129.5 						"/>
					</g>
					<g>
						<polygon class="bathroom-st11" points="218.2,129.5 219,129 218.5,324.2 217.6,324.7 						"/>
					</g>
				</g>
			</g>
		</g>

	

</g>
</svg>
