<?xml version="1.0" encoding="utf-8"?>
<!-- Generator: Adobe Illustrator 24.3.0, SVG Export Plug-In . SVG Version: 6.00 Build 0)  -->
<svg version="1.1" xmlns="http://www.w3.org/2000/svg" xmlns:xlink="http://www.w3.org/1999/xlink" x="0px" y="0px"
	 viewBox="0 0 1252.8 591" style="enable-background:new 0 0 1252.8 591;" xml:space="preserve">
<style type="text/css">
	.st0{opacity:0.8;fill:#F7F3F2;}
	.st1{fill:#FBB786;}
	.st2{fill:#6E4219;}
	.st3{fill:#F47C4B;}
	.st4{enable-background:new    ;}
	.st5{clip-path:url(#SVGID_2_);}
	.st6{fill:#E36E45;}
	.st7{clip-path:url(#SVGID_4_);}
	.st8{clip-path:url(#SVGID_6_);}
	.st9{fill:#FFFFFF;}
	.st10{clip-path:url(#SVGID_8_);}
</style>
<g id="Layer_1">
</g>
<g id="title">
	<g id="backup">
	</g>
	<path class="st0" d="M1126.4,591H129.2C59.4,591,2.8,534.4,2.8,464.6V126.4C2.8,56.6,59.4,0,129.2,0h997.1
		c69.8,0,126.4,56.6,126.4,126.4v338.1C1252.8,534.4,1196.2,591,1126.4,591z"/>
	<g id="ready_foxes">
		<g id="snif_front_right">
			<g id="head_2_">
				<g>
					<path class="st1" d="M162,181.8l-15,84c-3.8,21.6,10.8,36.9,32.5,33.9l18.2-2.4c13.2-1.8,20.8-15.8,15-27.5l-42.1-89
						C168.8,176.6,162.8,177.4,162,181.8z"/>
				</g>
				<g>
					<path class="st2" d="M167.2,219.1l-8,44.7c-2,10.8,7.2,20.2,18,18.8l7.4-1c7.8-1,12.4-9.4,9-16.6l-22-46.7
						C170.8,216.3,167.6,216.7,167.2,219.1z"/>
				</g>
				<g>
					<path class="st3" d="M265.4,367.2c0,66.1-19.8,119.8-85.8,119.8S25.8,433.3,25.8,367.2s53.7-119.8,119.8-119.8
						S265.4,300.9,265.4,367.2z"/>
				</g>
				<g>
					<g class="st4">
						<g>
							<defs>
								<polygon id="SVGID_1_" points="153.6,395.2 89.9,404 89.9,314.9 153.8,305.9 								"/>
							</defs>
							<clipPath id="SVGID_2_">
								<use xlink:href="#SVGID_1_"  style="overflow:visible;"/>
							</clipPath>
							<g class="st5">
								<g>
									<path d="M115.5,311.3c16-2.2,32.1,18.2,37.1,47.9c5.2,31.7-5.6,30.3-22.6,35.9c-6.8,2.2-13.4,5.2-19.4,6
										c-9,1.2-16.2-2.4-19.4-21.6c-5.4-31.7,4.2-61.9,21.2-67.5C113.5,311.7,114.5,311.3,115.5,311.3"/>
								</g>
							</g>
						</g>
					</g>
				</g>
				<g>
					<path d="M89.9,317.7c-0.8,0-1.6-0.2-2.2-0.6c-2.4-1.2-3.4-4.2-2.2-6.8c8.2-16.6,23.4-17.6,30.1-15.8c2.6,0.6,4.2,3.4,3.6,6
						c-0.6,2.6-3.4,4.2-6,3.6c-1.2-0.4-12.4-2.6-18.8,10.6C93.5,316.7,91.7,317.7,89.9,317.7z"/>
				</g>
				<g>
					<g>
						<path class="st3" d="M305.7,428.1c-20,10-37.7,12.8-56.7,15.8c-54.1,8.8-106,8.6-148.9-0.2l90-68.7
							c24,9.8,48.3,19.2,73.1,28.3c8.4,3,36.3,12,62.9,8.6C325.9,411.7,315.5,423.1,305.7,428.1z"/>
					</g>
					<g>
						<g>
							<path class="st3" d="M301.7,421.1c-11.4,5.6-23.8,9.4-36.7,11.8c-13.2,2.6-26.6,4.6-39.5,6.2c-27.3,3.2-54.9,4.2-82.4,2.4
								c-7.2-0.4-14.2-1.2-21.4-2.2c1.6,0.2-1.2-0.2-1.2-0.2c-1-0.2-2.2-0.4-3.2-0.4c-1.6-0.2-3.2-0.6-4.8-0.8
								c-3.4-0.6-7-1.2-10.4-2c0.6,4.8,1.2,9.8,2,14.6c10.2-7.8,20.2-15.6,30.3-23.2c16.2-12.4,32.3-24.8,48.5-36.9
								c3.8-2.8,7.4-5.6,11.2-8.6c-2,0.2-4.2,0.6-6.2,0.8c20,8.2,40.1,16,60.3,23.6c14.2,5.4,28.3,10.2,43.3,12.4
								c11.4,1.8,23,2.6,34.3,1c-1.8-4.6-3.8-9.2-5.6-13.6c-2,2.2-4,4.2-6.2,6.2c-1,0.8-1.8,1.6-2.8,2.6c-0.4,0.4-1,0.8-1.4,1.2
								c-0.2,0.2-1.8,1.4-0.8,0.6C306.7,418.1,304.3,419.9,301.7,421.1c-3.8,2-5.2,7.4-2.8,11c2.4,3.8,7,5,11,2.8
								c8.2-4.2,15.6-10.8,21.8-17.6c2.2-2.4,3-5.6,1.6-8.8c-1.2-2.6-4.2-5.4-7.4-5c-7.4,1-14.8,1-22.2,0.4
								c-1.8-0.2-3.4-0.4-5.2-0.6c-0.4,0-2.4-0.4-1.2-0.2c-1-0.2-2-0.2-2.8-0.4c-3.2-0.6-6.4-1.2-9.6-1.8c-10.6-2.4-20.6-6-30.7-9.8
								c-15.2-5.6-30.1-11.4-45.1-17.4c-3.8-1.4-7.4-3-11.2-4.4c-3.8-1.6-7.8-4-12-1.6c-0.6,0.4-1.2,0.8-1.8,1.4
								c-9,6.8-18,13.8-27,20.6c-12.8,9.8-25.6,19.6-38.3,29.3c-7.6,5.8-15,11.6-22.6,17.2c-0.2,0-0.2,0.2-0.4,0.2
								c-2.6,2-4.2,4.4-3.8,8c0.4,3,2.6,6,5.8,6.6c55.1,11.4,112.4,7.8,167.3-2.2c15.6-2.8,30.5-7.2,44.7-14.2c3.8-1.8,5-7.4,2.8-11
								C310.1,420.1,305.7,419.1,301.7,421.1z"/>
						</g>
					</g>
				</g>
				<g>
					<path class="st6" d="M232.1,456.1c-44.7,0-90.4-8.8-93.6-9.4c-2.2-0.4-3.6-2.6-3.2-4.6c0.4-2,2.6-3.6,4.6-3.2
						c1.2,0.2,128.8,24.8,164.3-7c1.6-1.4,4.2-1.4,5.6,0.4c1.4,1.6,1.4,4.2-0.4,5.6C293.7,451.9,263,456.1,232.1,456.1z"/>
				</g>
				<g>
					<path class="st6" d="M317.5,405.5c-49.9,0-120.4-24.6-121.2-25c-1-0.4-1.6-1.6-1.2-2.6s1.6-1.6,2.6-1.2
						c0.8,0.2,79.7,27.7,128.6,24.4c1,0,2,0.8,2.2,1.8c0,1.2-0.8,2-1.8,2.2C323.7,405.5,320.7,405.5,317.5,405.5z"/>
				</g>
				<g>
					<g>
						<path d="M309.1,427.1c-20.4,11-8-17.2,20-19.2C329.1,407.9,319.1,421.7,309.1,427.1z"/>
					</g>
					<g>
						<g>
							<path d="M304.9,420.1c-1,0.4-1.8,1-2.8,1.4c0.6-0.2,1.2-0.6,2-0.8c-1.2,0.6-2.4,1-3.8,1.2c0.8,0,1.4-0.2,2.2-0.2
								c-0.4,0-1,0-1.4,0c0.8,0,1.4,0.2,2.2,0.2c-0.2,0-0.6-0.2-0.8-0.2c0.6,0.2,1.2,0.6,2,0.8c-0.2,0-0.4-0.2-0.4-0.2
								c0.6,0.4,1,0.8,1.6,1.2c-0.2-0.2-0.2-0.2-0.4-0.4c0.4,0.6,0.8,1,1.2,1.6c0-0.2-0.2-0.2-0.2-0.4c0.2,0.6,0.6,1.2,0.8,2
								c0-0.2-0.2-0.4-0.2-0.6c0,0.8,0.2,1.4,0.2,2.2c0-0.4,0-0.6,0-1c0,0.8-0.2,1.4-0.2,2.2c0-0.6,0.2-1.2,0.6-1.8
								c-0.2,0.6-0.6,1.2-0.8,2c0.6-1.2,1.2-2.4,2.2-3.4c-0.4,0.6-0.8,1-1.2,1.6c1.6-2,3.4-3.8,5.4-5.2c-0.6,0.4-1,0.8-1.6,1.2
								c2.6-2,5.6-3.8,8.8-5.2c-0.6,0.2-1.2,0.6-2,0.8c3.4-1.4,7.2-2.4,10.8-3c-0.8,0-1.4,0.2-2.2,0.2c0.8-0.2,1.6-0.2,2.4-0.2
								c-2.4-4-4.6-8-7-12c-0.4,0.4-0.6,0.8-1,1.4c0.4-0.6,0.8-1,1.2-1.6c-4.2,5.4-8.8,10.4-14.2,14.6c0.6-0.4,1-0.8,1.6-1.2
								C308.3,418.1,306.7,419.3,304.9,420.1c-3.6,2-5.2,7.4-2.8,11c2.4,3.8,7,5,11,2.8c4.8-2.6,9-6.2,12.8-10
								c2.8-2.8,5.2-5.6,7.6-8.6c0.8-1.2,1.8-2.2,2.6-3.4c1.6-2.2,1.4-5.8,0-8c-1.4-2.2-4.2-4.2-7-4c-11.4,0.8-22.4,5.2-30.5,13.2
								c-3,3-5.6,6.4-6.8,10.4c-1.8,5.2,0.4,11,5.6,13.2c5.4,2.2,11.2-0.2,16-2.8c3.6-2,5.2-7.4,2.8-11
								C313.5,419.3,308.9,418.1,304.9,420.1z"/>
						</g>
					</g>
				</g>
				<g>
					<g class="st4">
						<g>
							<defs>
								<polygon id="SVGID_3_" points="229.7,375.8 173.8,389.6 165,304.3 220.9,290.6 								"/>
							</defs>
							<clipPath id="SVGID_4_">
								<use xlink:href="#SVGID_3_"  style="overflow:visible;"/>
							</clipPath>
							<g class="st7">
								<g>
									<path d="M194.5,297.1c0.2,0,0.4,0,0.6-0.2c15.6-3.2,29.7,21.6,31.9,55.3c1.2,19.4-5.2,25.4-13.8,27.5
										c-6.4,1.6-14,1-20.6,2.4c-0.4,0-1,0.2-1.4,0.4c-2.6,0.6-4.8,1.6-6.8,2.2c-2,0.8-3.6,1.4-5,1.8c-5,1.2-7.2-2-8.6-23
										C169,330.5,179.4,300.9,194.5,297.1"/>
								</g>
							</g>
						</g>
					</g>
				</g>
				<g>
					<g class="st4">
						<g>
							<defs>
								<polygon id="SVGID_5_" points="140,362 120.1,362 124.1,333.9 144.2,333.9 								"/>
							</defs>
							<clipPath id="SVGID_6_">
								<use xlink:href="#SVGID_5_"  style="overflow:visible;"/>
							</clipPath>
							<g class="st8">
								<g>
									<path class="st9" d="M131.8,333.9c5.2,0,9.4,7.2,9.6,16.8c0.2,10.2-3.2,9.4-8.8,10.4c-2.2,0.4-4.4,1-6.4,1
										c-2.8,0-5-1.6-5.2-7.6c-0.2-10.2,4-19.4,9.8-20.4C131,333.9,131.4,333.9,131.8,333.9"/>
								</g>
							</g>
						</g>
					</g>
				</g>
				<g>
					<g class="st4">
						<g>
							<defs>
								<polygon id="SVGID_7_" points="216.1,346.9 196.3,349.7 196.3,321.3 216.3,318.5 								"/>
							</defs>
							<clipPath id="SVGID_8_">
								<use xlink:href="#SVGID_7_"  style="overflow:visible;"/>
							</clipPath>
							<g class="st10">
								<g>
									<path class="st9" d="M204.9,320.1c5.2-0.8,10.2,6.4,11.2,16.2c1,10.4-2.4,9.6-7.8,11c-2,0.6-3.8,1.2-5.6,1.4
										c-3.2,0.4-5.6-0.6-6.4-7.4c-1-10.2,2.6-19.8,8-21.2C204.5,320.3,204.7,320.1,204.9,320.1"/>
								</g>
							</g>
						</g>
					</g>
				</g>
				<g>
					<path d="M216.7,293.6c-1.2,0-2.2-0.4-3.2-1.2c-11.4-9.8-21.4-2.2-21.4-2.2c-2.2,1.6-5.4,1.2-7-0.8c-1.6-2.2-1.2-5.4,0.8-7
						c5.6-4.4,20-9.4,33.9,2.4c2.2,1.8,2.4,5,0.6,7C219.5,293,218.1,293.6,216.7,293.6z"/>
				</g>
				<g>
					<path class="st1" d="M10.1,269.2l-9.8,85c-2.6,21.8,13,36.1,34.5,31.9l18-3.6c13-2.6,19.8-17,13.4-28.5l-47.5-86.4
						C16.5,263.6,10.5,264.8,10.1,269.2z"/>
				</g>
			</g>
		</g>
	</g>
</g>
</svg>
